SplineFontDB: 3.0
FontName: Mako
FullName: Mako
FamilyName: Mako
Weight: Book
Copyright: Copyright (c) 2007 by vernon adams. All rights reserved.
Version: 1.000
ItalicAngle: 0
UnderlinePosition: -294
UnderlineWidth: 41
Ascent: 1638
Descent: 410
sfntRevision: 0x00010000
LayerCount: 2
Layer: 0 1 "Back"  1
Layer: 1 1 "Fore"  0
XUID: [1021 759 1887733602 7626011]
FSType: 0
OS2Version: 2
OS2_WeightWidthSlopeOnly: 0
OS2_UseTypoMetrics: 1
CreationTime: 1304633400
ModificationTime: 1305909897
PfmFamily: 17
TTFWeight: 400
TTFWidth: 5
LineGap: 0
VLineGap: 0
Panose: 2 0 0 0 0 0 0 0 0 0
OS2TypoAscent: 503
OS2TypoAOffset: 1
OS2TypoDescent: -128
OS2TypoDOffset: 1
OS2TypoLinegap: 0
OS2WinAscent: 0
OS2WinAOffset: 1
OS2WinDescent: 0
OS2WinDOffset: 1
HheadAscent: 0
HheadAOffset: 1
HheadDescent: 0
HheadDOffset: 1
OS2SubXSize: 8993
OS2SubYSize: 8348
OS2SubXOff: 0
OS2SubYOff: 1800
OS2SupXSize: 8993
OS2SupYSize: 8348
OS2SupXOff: 0
OS2SupYOff: 6128
OS2StrikeYSize: 102
OS2StrikeYPos: 512
OS2Vendor: 'newt'
OS2CodePages: 20000001.00000000
OS2UnicodeRanges: 800000ef.5000e04b.00000000.00000000
Lookup: 258 0 0 "'kern' Horizontal Kerning in Latin lookup 0"  {"'kern' Horizontal Kerning in Latin lookup 0 per glyph data 0"  "'kern' Horizontal Kerning in Latin lookup 0 kerning class 1"  } ['kern' ('latn' <'dflt' > ) ]
MarkAttachClasses: 1
DEI: 91125
KernClass2: 69+ 60 "'kern' Horizontal Kerning in Latin lookup 0 kerning class 1" 
 8 asterisk
 9 backslash
 5 slash
 27 guillemotleft guilsinglleft
 29 guillemotright guilsinglright
 20 emdash endash hyphen
 4 nine
 40 comma period quotedblbase quotesinglbase
 22 quotedblleft quoteleft
 24 quotedblright quoteright
 20 quotedbl quotesingle
 10 registered
 5 seven
 3 six
 9 trademark
 4 zero
 50 Adieresis A Agrave Aring Atilde Acircumflex Aacute
 1 B
 10 C Ccedilla
 5 D Eth
 43 E Eacute Ecircumflex Edieresis Egrave OE AE
 1 F
 1 G
 48 H I Iacute Icircumflex Idieresis Igrave N Ntilde
 1 J
 1 K
 8 L Lslash
 1 M

StartChar: A
Encoding: 65 65 5
Width: 1234
Flags: W
LayerCount: 2
Fore
SplineSet
335 327 m 1,0,-1
 236 0 l 1,1,-1
 41 0 l 1,2,-1
 517 1437 l 1,3,-1
 718 1437 l 1,4,-1
 1193 0 l 1,5,-1
 997 0 l 1,6,-1
 899 327 l 1,7,-1
 335 327 l 1,0,-1
368 439 m 1,8,-1
 865 439 l 1,9,-1
 618 1243 l 1,10,-1
 368 439 l 1,8,-1
EndSplineSet
EndChar

StartChar: dieresis
Encoding: 168 168 6
Width: 847
Flags: W
LayerCount: 2
Fore
SplineSet
322 1331 m 1,0,-1
 322 1164 l 1,1,-1
 149 1164 l 1,2,-1
 149 1331 l 1,3,-1
 322 1331 l 1,0,-1
698 1331 m 1,4,-1
 698 1164 l 1,5,-1
 524 1164 l 1,6,-1
 524 1331 l 1,7,-1
 698 1331 l 1,4,-1
EndSplineSet
EndChar

StartChar: grave
Encoding: 96 96 8
Width: 378
Flags: W
LayerCount: 2
Fore
SplineSet
302 1184 m 1,0,-1
 229 1184 l 1,1,-1
 9 1713 l 1,2,-1
 222 1735 l 1,3,-1
 302 1184 l 1,0,-1
EndSplineSet
EndChar

StartChar: ring
Encoding: 730 730 10
Width: 579
Flags: W
LayerCount: 2
Fore
SplineSet
299 1102 m 0,0,1
 243 1102 243 1102 197 1118.5 c 128,-1,2
 151 1135 151 1135 117.5 1166.5 c 128,-1,3
 84 1198 84 1198 65.5 1243.5 c 128,-1,4
 47 1289 47 1289 47 1347 c 0,5,6
 47 1403 47 1403 65.5 1447.5 c 128,-1,7
 84 1492 84 1492 117.5 1523 c 128,-1,8
 151 1554 151 1554 197 1570.5 c 128,-1,9
 243 1587 243 1587 299 1587 c 0,10,11
 353 1587 353 1587 398 1570.5 c 128,-1,12
 443 1554 443 1554 475.5 1523 c 128,-1,13
 508 1492 508 1492 526.5 1447.5 c 128,-1,14
 545 1403 545 1403 545 1347 c 0,15,16
 545 1288 545 1288 526.5 1242.5 c 128,-1,17
 508 1197 508 1197 475 1166 c 128,-1,18
 442 1135 442 1135 397 1118.5 c 128,-1,19
 352 1102 352 1102 299 1102 c 0,0,1
299 1195 m 256,20,21
 340 1195 340 1195 367.5 1209.5 c 128,-1,22
 395 1224 395 1224 411.5 1246 c 128,-1,23
 428 1268 428 1268 434.5 1295 c 128,-1,24
 441 1322 441 1322 441 1347 c 0,25,26
 441 1370 441 1370 434.5 1396 c 128,-1,27
 428 1422 428 1422 411.5 1444 c 128,-1,28
 395 1466 395 1466 368 1480.5 c 128,-1,29
 341 1495 341 1495 299 1495 c 0,30,31
 249 1495 249 1495 219.5 1479.5 c 128,-1,32
 190 1464 190 1464 175 1441.5 c 128,-1,33
 160 1419 160 1419 156 1393 c 128,-1,34
 152 1367 152 1367 152 1347 c 0,35,36
 152 1323 152 1323 159.5 1296 c 128,-1,37
 167 1269 167 1269 184.5 1246.5 c 128,-1,38
 202 1224 202 1224 230 1209.5 c 128,-1,39
 258 1195 258 1195 299 1195 c 256,20,21
EndSplineSet
EndChar

StartChar: tilde
Encoding: 732 732 12
Width: 893
Flags: W
LayerCount: 2
Fore
SplineSet
297 1414 m 0,0,1
 340 1414 340 1414 380.5 1396.5 c 128,-1,2
 421 1379 421 1379 458 1358.5 c 128,-1,3
 495 1338 495 1338 528 1320.5 c 128,-1,4
 561 1303 561 1303 590 1303 c 0,5,6
 606 1303 606 1303 616.5 1311.5 c 128,-1,7
 627 1320 627 1320 632 1333.5 c 128,-1,8
 637 1347 637 1347 639 1364.5 c 128,-1,9
 641 1382 641 1382 641 1401 c 1,10,-1
 772 1401 l 1,11,-1
 772 1394 l 2,12,13
 772 1329 772 1329 757.5 1287 c 128,-1,14
 743 1245 743 1245 719 1220.5 c 128,-1,15
 695 1196 695 1196 664.5 1186.5 c 128,-1,16
 634 1177 634 1177 601 1177 c 1,17,18
 590 1178 590 1178 581 1178.5 c 128,-1,19
 572 1179 572 1179 563 1181 c 0,20,21
 524 1189 524 1189 486 1206 c 128,-1,22
 448 1223 448 1223 415 1240.5 c 128,-1,23
 382 1258 382 1258 354 1271.5 c 128,-1,24
 326 1285 326 1285 307 1285 c 0,25,26
 291 1285 291 1285 281 1277 c 128,-1,27
 271 1269 271 1269 265 1255.5 c 128,-1,28
 259 1242 259 1242 257 1223.5 c 128,-1,29
 255 1205 255 1205 255 1184 c 1,30,-1
 123 1184 l 1,31,-1
 123 1198 l 2,32,33
 123 1262 123 1262 138 1303.5 c 128,-1,34
 153 1345 153 1345 177 1369.5 c 128,-1,35
 201 1394 201 1394 232 1404 c 128,-1,36
 263 1414 263 1414 297 1414 c 0,0,1
EndSplineSet
EndChar

StartChar: B
Encoding: 66 66 13
Width: 1255
Flags: W
LayerCount: 2
Fore
SplineSet
366 825 m 1,0,-1
 599 825 l 2,1,2
 685 825 685 825 744 841.5 c 128,-1,3
 803 858 803 858 839 888 c 128,-1,4
 875 918 875 918 891 963 c 128,-1,5
 907 1008 907 1008 907 1068 c 0,6,7
 907 1138 907 1138 887.5 1179.5 c 128,-1,8
 868 1221 868 1221 825.5 1245.5 c 128,-1,9
 783 1270 783 1270 716 1281 c 128,-1,10
 649 1292 649 1292 555 1292 c 2,11,-1
 366 1292 l 1,12,-1
 366 825 l 1,0,-1
977 417 m 0,13,14
 977 501 977 501 955 554.5 c 128,-1,15
 933 608 933 608 887 640 c 128,-1,16
 841 672 841 672 771 685 c 128,-1,17
 701 698 701 698 605 698 c 2,18,-1
 366 698 l 1,19,-1
 366 144 l 1,20,-1
 608 144 l 2,21,22
 699 144 699 144 768.5 155 c 128,-1,23
 838 166 838 166 884 194.5 c 128,-1,24
 930 223 930 223 953.5 276 c 128,-1,25
 977 329 977 329 977 417 c 0,13,14
1155 415 m 0,26,27
 1155 200 1155 200 1030.5 100 c 128,-1,28
 906 0 906 0 656 0 c 2,29,-1
 185 0 l 1,30,-1
 185 1437 l 1,31,-1
 580 1437 l 2,32,33
 719 1437 719 1437 816 1416 c 128,-1,34
 913 1395 913 1395 973 1350 c 128,-1,35
 1033 1305 1033 1305 1060 1234.5 c 128,-1,36
 1087 1164 1087 1164 1087 1060 c 0,37,38
 1087 1008 1087 1008 1073.5 966.5 c 128,-1,39
 1060 925 1060 925 1037.5 894 c 128,-1,40
 1015 863 1015 863 987.5 839.5 c 128,-1,41
 960 816 960 816 931.5 802 c 128,-1,42
 903 788 903 788 876.5 781 c 128,-1,43
 850 774 850 774 831 772 c 1,44,45
 922 765 922 765 993 725 c 0,46,47
 1023 708 1023 708 1052.5 682 c 128,-1,48
 1082 656 1082 656 1104.5 619.5 c 128,-1,49
 1127 583 1127 583 1141 533 c 128,-1,50
 1155 483 1155 483 1155 415 c 0,26,27
EndSplineSet
EndChar

StartChar: C
Encoding: 67 67 14
Width: 1193
Flags: W
LayerCount: 2
Fore
SplineSet
692 -24 m 0,0,1
 571 -24 571 -24 467 10.5 c 128,-1,2
 363 45 363 45 286 132 c 128,-1,3
 209 219 209 219 164.5 365.5 c 128,-1,4
 120 512 120 512 119 727 c 0,5,6
 119 935 119 935 163.5 1076 c 128,-1,7
 208 1217 208 1217 287.5 1303.5 c 128,-1,8
 367 1390 367 1390 475.5 1427 c 128,-1,9
 584 1464 584 1464 712 1464 c 0,10,11
 793 1464 793 1464 862.5 1454.5 c 128,-1,12
 932 1445 932 1445 983 1434 c 0,13,14
 1043 1421 1043 1421 1091 1405 c 1,15,-1
 1107 1250 l 1,16,17
 1057 1268 1057 1268 997 1283 c 1,18,19
 946 1294 946 1294 878 1304 c 128,-1,20
 810 1314 810 1314 733 1314 c 0,21,22
 636 1314 636 1314 559 1284 c 128,-1,23
 482 1254 482 1254 428 1186 c 128,-1,24
 374 1118 374 1118 345.5 1007.5 c 128,-1,25
 317 897 317 897 317 729 c 1,26,27
 318 570 318 570 342.5 453.5 c 128,-1,28
 367 337 367 337 416.5 264.5 c 128,-1,29
 466 192 466 192 540.5 159 c 128,-1,30
 615 126 615 126 714 127 c 1,31,32
 797 126 797 126 868 136.5 c 128,-1,33
 939 147 939 147 993 163 c 1,34,35
 1055 179 1055 179 1107 199 c 1,36,-1
 1090 43 l 1,37,38
 1041 24 1041 24 979 9 c 0,39,40
 926 -4 926 -4 853 -14 c 128,-1,41
 780 -24 780 -24 692 -24 c 0,0,1
EndSplineSet
EndChar

StartChar: cedilla
Encoding: 184 184 16
Width: 537
Flags: W
LayerCount: 2
Fore
SplineSet
498 -340 m 0,0,1
 498 -387 498 -387 481.5 -424 c 128,-1,2
 465 -461 465 -461 435.5 -486.5 c 128,-1,3
 406 -512 406 -512 367 -525 c 128,-1,4
 328 -538 328 -538 283 -538 c 0,5,6
 243 -538 243 -538 211.5 -530.5 c 128,-1,7
 180 -523 180 -523 157 -514 c 0,8,9
 131 -503 131 -503 111 -490 c 1,10,-1
 101 -394 l 1,11,12
 130 -406 130 -406 161 -416 c 0,13,14
 187 -424 187 -424 218 -430.5 c 128,-1,15
 249 -437 249 -437 278 -437 c 0,16,17
 314 -437 314 -437 335 -426.5 c 128,-1,18
 356 -416 356 -416 367.5 -401.5 c 128,-1,19
 379 -387 379 -387 382.5 -371.5 c 128,-1,20
 386 -356 386 -356 386 -345 c 0,21,22
 386 -310 386 -310 367 -289.5 c 128,-1,23
 348 -269 348 -269 313.5 -258 c 128,-1,24
 279 -247 279 -247 230.5 -242 c 128,-1,25
 182 -237 182 -237 123 -232 c 1,26,27
 123 -227 123 -227 125 -214.5 c 128,-1,28
 127 -202 127 -202 130 -184.5 c 128,-1,29
 133 -167 133 -167 136.5 -146.5 c 128,-1,30
 140 -126 140 -126 143 -105 c 0,31,32
 151 -57 151 -57 161 2 c 1,33,-1
 263 2 l 1,34,35
 254 -36 254 -36 246 -69 c 0,36,37
 239 -97 239 -97 233.5 -122 c 128,-1,38
 228 -147 228 -147 226 -155 c 1,39,40
 250 -155 250 -155 279.5 -157.5 c 128,-1,41
 309 -160 309 -160 339.5 -167 c 128,-1,42
 370 -174 370 -174 398.5 -187 c 128,-1,43
 427 -200 427 -200 449 -220.5 c 128,-1,44
 471 -241 471 -241 484.5 -270.5 c 128,-1,45
 498 -300 498 -300 498 -340 c 0,0,1
EndSplineSet
EndChar

StartChar: D
Encoding: 68 68 17
Width: 1381
Flags: W
LayerCount: 2
Fore
SplineSet
579 144 m 2,0,1
 725 144 725 144 820.5 174.5 c 128,-1,2
 916 205 916 205 972 272 c 128,-1,3
 1028 339 1028 339 1050.5 453 c 128,-1,4
 1073 567 1073 567 1073 740 c 0,5,6
 1073 881 1073 881 1053.5 983 c 128,-1,7
 1034 1085 1034 1085 985.5 1153.5 c 128,-1,8
 937 1222 937 1222 855 1257 c 128,-1,9
 773 1292 773 1292 649 1292 c 2,10,-1
 377 1292 l 1,11,-1
 377 144 l 1,12,-1
 579 144 l 2,0,1
185 0 m 1,13,-1
 185 1437 l 1,14,-1
 597 1437 l 2,15,16
 681 1437 681 1437 762.5 1428.5 c 128,-1,17
 844 1420 844 1420 918 1393.5 c 128,-1,18
 992 1367 992 1367 1054.5 1320.5 c 128,-1,19
 1117 1274 1117 1274 1163 1198.5 c 128,-1,20
 1209 1123 1209 1123 1235 1014 c 128,-1,21
 1261 905 1261 905 1261 748 c 0,22,23
 1261 578 1261 578 1234.5 441 c 128,-1,24
 1208 304 1208 304 1139 204.5 c 128,-1,25
 1070 105 1070 105 949.5 52.5 c 128,-1,26
 829 0 829 0 642 0 c 2,27,-1
 185 0 l 1,13,-1
EndSplineSet
EndChar

StartChar: Delta
Encoding: 8710 8710 18
Width: 1090
Flags: W
LayerCount: 2
Fore
SplineSet
829 99 m 1,0,-1
 547 973 l 1,1,-1
 259 99 l 1,2,-1
 829 99 l 1,0,-1
52 -2 m 1,3,-1
 460 1130 l 1,4,-1
 632 1130 l 1,5,-1
 1037 -2 l 1,6,-1
 52 -2 l 1,3,-1
EndSplineSet
EndChar

StartChar: E
Encoding: 69 69 19
Width: 1090
Flags: W
LayerCount: 2
Fore
SplineSet
185 0 m 1,0,-1
 185 1437 l 1,1,-1
 1001 1437 l 1,2,-1
 977 1292 l 1,3,-1
 374 1292 l 1,4,-1
 374 809 l 1,5,-1
 866 809 l 1,6,-1
 866 670 l 1,7,-1
 374 670 l 1,8,-1
 374 145 l 1,9,-1
 999 145 l 1,10,-1
 976 0 l 1,11,-1
 185 0 l 1,0,-1
EndSplineSet
EndChar

StartChar: acute
Encoding: 180 180 21
Width: 393
Flags: W
LayerCount: 2
Fore
SplineSet
162 1707 m 1,0,-1
 387 1707 l 1,1,-1
 147 1155 l 1,2,-1
 75 1155 l 1,3,-1
 162 1707 l 1,0,-1
EndSplineSet
EndChar

StartChar: circumflex
Encoding: 710 710 23
Width: 754
Flags: W
LayerCount: 2
Fore
SplineSet
281 1665 m 1,0,-1
 470 1665 l 1,1,-1
 692 1172 l 1,2,-1
 496 1172 l 1,3,-1
 381 1539 l 1,4,-1
 369 1539 l 1,5,-1
 257 1172 l 1,6,-1
 62 1172 l 1,7,-1
 281 1665 l 1,0,-1
EndSplineSet
EndChar

StartChar: F
Encoding: 70 70 26
Width: 1087
Flags: W
LayerCount: 2
Fore
SplineSet
370 0 m 1,0,-1
 185 0 l 1,1,-1
 185 1437 l 1,2,-1
 1019 1437 l 1,3,-1
 995 1292 l 1,4,-1
 370 1292 l 1,5,-1
 370 820 l 1,6,-1
 925 820 l 1,7,-1
 925 672 l 1,8,-1
 370 672 l 1,9,-1
 370 0 l 1,0,-1
EndSplineSet
EndChar

StartChar: G
Encoding: 71 71 27
Width: 1335
Flags: W
LayerCount: 2
Fore
SplineSet
1103 4 m 1,0,-1
 1065 145 l 1,1,2
 1032 98 1032 98 980 61 c 1,3,4
 936 27 936 27 865 1.5 c 128,-1,5
 794 -24 794 -24 694 -24 c 0,6,7
 572 -24 572 -24 466 17.5 c 128,-1,8
 360 59 360 59 282 148 c 128,-1,9
 204 237 204 237 159.5 379 c 128,-1,10
 115 521 115 521 115 721 c 0,11,12
 115 864 115 864 139 976 c 128,-1,13
 163 1088 163 1088 206 1170 c 128,-1,14
 249 1252 249 1252 308 1309 c 128,-1,15
 367 1366 367 1366 437 1400.5 c 128,-1,16
 507 1435 507 1435 585.5 1449.5 c 128,-1,17
 664 1464 664 1464 746 1464 c 0,18,19
 824 1464 824 1464 892 1453 c 128,-1,20
 960 1442 960 1442 1012 1428 c 0,21,22
 1072 1412 1072 1412 1123 1393 c 1,23,-1
 1137 1240 l 1,24,25
 1087 1260 1087 1260 1026 1277 c 0,26,27
 974 1292 974 1292 903.5 1303 c 128,-1,28
 833 1314 833 1314 751 1314 c 0,29,30
 642 1314 642 1314 560 1279.5 c 128,-1,31
 478 1245 478 1245 423 1176.5 c 128,-1,32
 368 1108 368 1108 340.5 1001.5 c 128,-1,33
 313 895 313 895 313 749 c 0,34,35
 313 594 313 594 335 476.5 c 128,-1,36
 357 359 357 359 405 281 c 128,-1,37
 453 203 453 203 529 165 c 128,-1,38
 605 127 605 127 712 127 c 0,39,40
 793 127 793 127 855.5 147 c 128,-1,41
 918 167 918 167 961 190 c 0,42,43
 1011 217 1011 217 1048 253 c 1,44,-1
 1048 609 l 1,45,-1
 903 605 l 1,46,-1
 777 605 l 1,47,-1
 758 743 l 1,48,-1
 1207 743 l 1,49,-1
 1207 4 l 1,50,-1
 1103 4 l 1,0,-1
EndSplineSet
EndChar

StartChar: H
Encoding: 72 72 28
Width: 1439
Flags: W
LayerCount: 2
Fore
SplineSet
1069 677 m 1,0,-1
 370 677 l 1,1,-1
 370 0 l 1,2,-1
 185 0 l 1,3,-1
 185 1437 l 1,4,-1
 370 1437 l 1,5,-1
 370 817 l 1,6,-1
 1069 817 l 1,7,-1
 1069 1437 l 1,8,-1
 1254 1437 l 1,9,-1
 1254 0 l 1,10,-1
 1069 0 l 1,11,-1
 1069 677 l 1,0,-1
EndSplineSet
EndChar

StartChar: I
Encoding: 73 73 29
Width: 553
Flags: W
LayerCount: 2
Fore
SplineSet
185 0 m 1,0,-1
 185 1437 l 1,1,-1
 368 1437 l 1,2,-1
 368 0 l 1,3,-1
 185 0 l 1,0,-1
EndSplineSet
EndChar

StartChar: J
Encoding: 74 74 34
Width: 693
Flags: W
LayerCount: 2
Fore
SplineSet
59 -14 m 1,0,-1
 35 53 l 1,1,2
 104 53 104 53 153 59 c 128,-1,3
 202 65 202 65 235 80 c 128,-1,4
 268 95 268 95 287.5 120 c 128,-1,5
 307 145 307 145 317 183.5 c 128,-1,6
 327 222 327 222 330 275 c 128,-1,7
 333 328 333 328 333 399 c 2,8,-1
 333 1437 l 1,9,-1
 520 1437 l 1,10,-1
 516 308 l 2,11,12
 516 226 516 226 498.5 155 c 128,-1,13
 481 84 481 84 433.5 32 c 128,-1,14
 386 -20 386 -20 301.5 -50.5 c 128,-1,15
 217 -81 217 -81 83 -81 c 1,16,-1
 59 -14 l 1,0,-1
EndSplineSet
EndChar

StartChar: K
Encoding: 75 75 35
Width: 1293
Flags: W
LayerCount: 2
Fore
SplineSet
1221 1384 m 1,0,-1
 641 780 l 1,1,-1
 1273 47 l 1,2,-1
 1273 0 l 1,3,-1
 1081 0 l 1,4,-1
 512 672 l 1,5,-1
 370 530 l 1,6,-1
 370 0 l 1,7,-1
 185 0 l 1,8,-1
 185 1437 l 1,9,-1
 370 1437 l 1,10,-1
 370 740 l 1,11,-1
 1036 1437 l 1,12,-1
 1221 1437 l 1,13,-1
 1221 1384 l 1,0,-1
EndSplineSet
EndChar

StartChar: L
Encoding: 76 76 36
Width: 1001
Flags: W
LayerCount: 2
Fore
SplineSet
185 0 m 1,0,-1
 185 1437 l 1,1,-1
 370 1437 l 1,2,-1
 370 142 l 1,3,-1
 958 142 l 1,4,-1
 941 0 l 1,5,-1
 185 0 l 1,0,-1
EndSplineSet
EndChar

StartChar: M
Encoding: 77 77 37
Width: 1755
Flags: W
LayerCount: 2
Fore
SplineSet
221 1437 m 1,0,-1
 495 1437 l 1,1,-1
 816 380 l 1,2,-1
 884 149 l 1,3,-1
 946 380 l 1,4,-1
 1268 1437 l 1,5,-1
 1542 1437 l 1,6,-1
 1595 0 l 1,7,-1
 1412 0 l 1,8,-1
 1381 988 l 1,9,-1
 1380 1276 l 1,10,-1
 1295 941 l 1,11,-1
 1000 32 l 1,12,-1
 763 32 l 1,13,-1
 468 941 l 1,14,-1
 384 1276 l 1,15,-1
 381 987 l 1,16,-1
 341 0 l 1,17,-1
 157 0 l 1,18,-1
 221 1437 l 1,0,-1
EndSplineSet
EndChar

StartChar: N
Encoding: 78 78 38
Width: 1487
Flags: W
LayerCount: 2
Fore
SplineSet
361 1148 m 1,0,-1
 361 0 l 1,1,-1
 185 0 l 1,2,-1
 185 1437 l 1,3,-1
 375 1437 l 1,4,-1
 1126 289 l 1,5,-1
 1126 1437 l 1,6,-1
 1302 1437 l 1,7,-1
 1302 0 l 1,8,-1
 1120 1 l 1,9,-1
 361 1148 l 1,0,-1
EndSplineSet
EndChar

StartChar: O
Encoding: 79 79 40
Width: 1399
Flags: W
LayerCount: 2
Fore
SplineSet
311 722 m 0,0,1
 311 581 311 581 332.5 470.5 c 128,-1,2
 354 360 354 360 401 283.5 c 128,-1,3
 448 207 448 207 521 167 c 128,-1,4
 594 127 594 127 698 127 c 0,5,6
 803 127 803 127 876.5 167 c 128,-1,7
 950 207 950 207 997 283.5 c 128,-1,8
 1044 360 1044 360 1065.5 470.5 c 128,-1,9
 1087 581 1087 581 1087 722 c 0,10,11
 1087 862 1087 862 1065.5 972 c 128,-1,12
 1044 1082 1044 1082 997 1158 c 128,-1,13
 950 1234 950 1234 876.5 1274 c 128,-1,14
 803 1314 803 1314 698 1314 c 0,15,16
 595 1314 595 1314 521.5 1274 c 128,-1,17
 448 1234 448 1234 401.5 1158 c 128,-1,18
 355 1082 355 1082 333 972 c 128,-1,19
 311 862 311 862 311 722 c 0,0,1
120 722 m 0,20,21
 120 1098 120 1098 268 1281 c 128,-1,22
 416 1464 416 1464 698 1464 c 0,23,24
 982 1464 982 1464 1130.5 1281 c 128,-1,25
 1279 1098 1279 1098 1279 722 c 0,26,27
 1279 342 1279 342 1130.5 159 c 128,-1,28
 982 -24 982 -24 698 -24 c 0,29,30
 557 -24 557 -24 449 21.5 c 128,-1,31
 341 67 341 67 268 159.5 c 128,-1,32
 195 252 195 252 157.5 392 c 128,-1,33
 120 532 120 532 120 722 c 0,20,21
EndSplineSet
EndChar

StartChar: OE
Encoding: 338 338 41
Width: 1986
Flags: W
LayerCount: 2
Fore
SplineSet
118 724 m 0,0,1
 118 936 118 936 163.5 1074.5 c 128,-1,2
 209 1213 209 1213 287 1300 c 128,-1,3
 365 1387 365 1387 468.5 1425.5 c 128,-1,4
 572 1464 572 1464 689 1464 c 0,5,6
 748 1464 748 1464 796 1455 c 128,-1,7
 844 1446 844 1446 882.5 1430 c 128,-1,8
 921 1414 921 1414 950.5 1394.5 c 128,-1,9
 980 1375 980 1375 1002 1354 c 0,10,11
 1053 1305 1053 1305 1078 1243 c 1,12,-1
 1078 1437 l 1,13,-1
 1876 1437 l 1,14,-1
 1876 1292 l 1,15,-1
 1263 1292 l 1,16,-1
 1263 826 l 1,17,-1
 1793 826 l 1,18,-1
 1793 681 l 1,19,-1
 1263 681 l 1,20,-1
 1263 146 l 1,21,-1
 1886 146 l 1,22,-1
 1886 0 l 1,23,-1
 1078 0 l 1,24,-1
 1078 216 l 1,25,26
 1052 138 1052 138 1001 99 c 1,27,28
 979 77 979 77 949.5 56 c 128,-1,29
 920 35 920 35 881.5 18.5 c 128,-1,30
 843 2 843 2 795 -8 c 128,-1,31
 747 -18 747 -18 689 -18 c 0,32,33
 572 -18 572 -18 468 21 c 128,-1,34
 364 60 364 60 286 147.5 c 128,-1,35
 208 235 208 235 163 375.5 c 128,-1,36
 118 516 118 516 118 724 c 0,0,1
316 724 m 0,37,38
 316 552 316 552 343 439 c 128,-1,39
 370 326 370 326 419 257 c 128,-1,40
 468 188 468 188 536.5 159 c 128,-1,41
 605 130 605 130 689 130 c 0,42,43
 774 130 774 130 843.5 159 c 128,-1,44
 913 188 913 188 962 257 c 128,-1,45
 1011 326 1011 326 1037.5 439 c 128,-1,46
 1064 552 1064 552 1064 724 c 0,47,48
 1064 902 1064 902 1037.5 1013 c 128,-1,49
 1011 1124 1011 1124 962 1192 c 128,-1,50
 913 1260 913 1260 843.5 1288.5 c 128,-1,51
 774 1317 774 1317 689 1317 c 0,52,53
 605 1317 605 1317 536.5 1288.5 c 128,-1,54
 468 1260 468 1260 419 1192 c 128,-1,55
 370 1124 370 1124 343 1013 c 128,-1,56
 316 902 316 902 316 724 c 0,37,38
EndSplineSet
EndChar

StartChar: Oslash
Encoding: 216 216 46
Width: 1397
Flags: W
LayerCount: 2
Fore
SplineSet
289 -106 m 1,0,-1
 365 62 l 1,1,2
 120 231 120 231 120 720 c 0,3,4
 120 1098 120 1098 267.5 1282 c 128,-1,5
 415 1466 415 1466 697 1466 c 0,6,7
 776 1466 776 1466 846.5 1450 c 128,-1,8
 917 1434 917 1434 977 1402 c 1,9,-1
 1060 1586 l 1,10,-1
 1117 1554 l 1,11,-1
 1033 1370 l 1,12,13
 1158 1285 1158 1285 1218 1122 c 128,-1,14
 1278 959 1278 959 1278 720 c 0,15,16
 1278 338 1278 338 1129.5 154 c 128,-1,17
 981 -30 981 -30 697 -30 c 0,18,19
 538 -30 538 -30 421 28 c 1,20,-1
 346 -135 l 1,21,-1
 289 -106 l 1,0,-1
697 117 m 0,22,23
 802 117 802 117 875.5 157.5 c 128,-1,24
 949 198 949 198 996 275 c 128,-1,25
 1043 352 1043 352 1064.5 465 c 128,-1,26
 1086 578 1086 578 1086 720 c 0,27,28
 1086 884 1086 884 1058 1010 c 128,-1,29
 1030 1136 1030 1136 961 1214 c 1,30,-1
 488 176 l 1,31,32
 572 117 572 117 697 117 c 0,22,23
311 720 m 0,33,34
 311 548 311 548 341.5 423.5 c 128,-1,35
 372 299 372 299 439 222 c 1,36,-1
 911 1257 l 1,37,38
 867 1290 867 1290 813.5 1304.5 c 128,-1,39
 760 1319 760 1319 697 1319 c 0,40,41
 594 1319 594 1319 521 1278.5 c 128,-1,42
 448 1238 448 1238 401.5 1161.5 c 128,-1,43
 355 1085 355 1085 333 973.5 c 128,-1,44
 311 862 311 862 311 720 c 0,33,34
EndSplineSet
EndChar

StartChar: P
Encoding: 80 80 48
Width: 1225
Flags: W
LayerCount: 2
Fore
SplineSet
544 717 m 2,0,1
 665 717 665 717 744.5 732.5 c 128,-1,2
 824 748 824 748 870.5 782 c 128,-1,3
 917 816 917 816 935.5 868.5 c 128,-1,4
 954 921 954 921 954 1000 c 0,5,6
 954 1094 954 1094 936 1150.5 c 128,-1,7
 918 1207 918 1207 870 1238.5 c 128,-1,8
 822 1270 822 1270 737 1281.5 c 128,-1,9
 652 1293 652 1293 517 1293 c 2,10,-1
 370 1293 l 1,11,-1
 370 717 l 1,12,-1
 544 717 l 2,0,1
1147 998 m 0,13,14
 1147 876 1147 876 1111 795.5 c 128,-1,15
 1075 715 1075 715 999.5 665 c 128,-1,16
 924 615 924 615 807 593 c 128,-1,17
 690 571 690 571 528 571 c 2,18,-1
 433 571 l 2,19,20
 403 571 403 571 370 572 c 1,21,-1
 370 0 l 1,22,-1
 185 0 l 1,23,-1
 185 1437 l 1,24,-1
 494 1437 l 2,25,26
 688 1437 688 1437 814 1415.5 c 128,-1,27
 940 1394 940 1394 1014 1343 c 128,-1,28
 1088 1292 1088 1292 1117.5 1208.5 c 128,-1,29
 1147 1125 1147 1125 1147 998 c 0,13,14
EndSplineSet
EndChar

StartChar: Q
Encoding: 81 81 49
Width: 1399
Flags: W
LayerCount: 2
Fore
SplineSet
122 722 m 0,0,1
 122 917 122 917 162 1058.5 c 128,-1,2
 202 1200 202 1200 277 1290.5 c 128,-1,3
 352 1381 352 1381 458.5 1422.5 c 128,-1,4
 565 1464 565 1464 698 1464 c 0,5,6
 833 1464 833 1464 940 1422.5 c 128,-1,7
 1047 1381 1047 1381 1122 1290.5 c 128,-1,8
 1197 1200 1197 1200 1237 1058.5 c 128,-1,9
 1277 917 1277 917 1277 722 c 0,10,11
 1277 545 1277 545 1243 413.5 c 128,-1,12
 1209 282 1209 282 1147 192 c 128,-1,13
 1085 102 1085 102 997.5 51.5 c 128,-1,14
 910 1 910 1 803 -14 c 1,15,16
 829 -35 829 -35 865.5 -64.5 c 128,-1,17
 902 -94 902 -94 947 -128 c 128,-1,18
 992 -162 992 -162 1044 -196.5 c 128,-1,19
 1096 -231 1096 -231 1153 -265 c 0,20,21
 1153 -266 1153 -266 1146 -276 c 128,-1,22
 1139 -286 1139 -286 1129 -300.5 c 128,-1,23
 1119 -315 1119 -315 1107 -331.5 c 128,-1,24
 1095 -348 1095 -348 1085 -363.5 c 128,-1,25
 1075 -379 1075 -379 1068 -389 c 128,-1,26
 1061 -399 1061 -399 1061 -400 c 1,27,28
 986 -359 986 -359 917.5 -310.5 c 128,-1,29
 849 -262 849 -262 790.5 -212 c 128,-1,30
 732 -162 732 -162 684 -113 c 128,-1,31
 636 -64 636 -64 602 -20 c 1,32,33
 489 -6 489 -6 400 45.5 c 128,-1,34
 311 97 311 97 249 188.5 c 128,-1,35
 187 280 187 280 154.5 413 c 128,-1,36
 122 546 122 546 122 722 c 0,0,1
313 722 m 0,37,38
 313 582 313 582 334.5 470.5 c 128,-1,39
 356 359 356 359 403 282.5 c 128,-1,40
 450 206 450 206 523 166.5 c 128,-1,41
 596 127 596 127 700 127 c 0,42,43
 803 127 803 127 876.5 166.5 c 128,-1,44
 950 206 950 206 996.5 282.5 c 128,-1,45
 1043 359 1043 359 1064.5 470.5 c 128,-1,46
 1086 582 1086 582 1086 722 c 0,47,48
 1086 861 1086 861 1064 972 c 128,-1,49
 1042 1083 1042 1083 995.5 1158 c 128,-1,50
 949 1233 949 1233 875.5 1273.5 c 128,-1,51
 802 1314 802 1314 700 1314 c 0,52,53
 597 1314 597 1314 523.5 1273.5 c 128,-1,54
 450 1233 450 1233 403.5 1158 c 128,-1,55
 357 1083 357 1083 335 972 c 128,-1,56
 313 861 313 861 313 722 c 0,37,38
EndSplineSet
EndChar

StartChar: R
Encoding: 82 82 50
Width: 1234
Flags: W
LayerCount: 2
Fore
SplineSet
1164 0 m 1,0,-1
 983 0 l 1,1,-1
 573 600 l 1,2,-1
 373 600 l 1,3,-1
 373 0 l 1,4,-1
 185 0 l 1,5,-1
 185 1437 l 1,6,-1
 615 1437 l 2,7,8
 734 1437 734 1437 827.5 1420.5 c 128,-1,9
 921 1404 921 1404 985.5 1358.5 c 128,-1,10
 1050 1313 1050 1313 1084 1234 c 128,-1,11
 1118 1155 1118 1155 1118 1028 c 0,12,13
 1118 912 1118 912 1086.5 837 c 128,-1,14
 1055 762 1055 762 1004.5 716.5 c 128,-1,15
 954 671 954 671 890 648.5 c 128,-1,16
 826 626 826 626 760 618 c 1,17,-1
 1164 57 l 1,18,-1
 1164 0 l 1,0,-1
373 740 m 1,19,-1
 597 740 l 2,20,21
 697 740 697 740 763.5 753.5 c 128,-1,22
 830 767 830 767 870.5 799 c 128,-1,23
 911 831 911 831 928 882.5 c 128,-1,24
 945 934 945 934 945 1011 c 0,25,26
 945 1104 945 1104 927 1160 c 128,-1,27
 909 1216 909 1216 865.5 1246.5 c 128,-1,28
 822 1277 822 1277 748.5 1288 c 128,-1,29
 675 1299 675 1299 565 1299 c 2,30,-1
 373 1299 l 1,31,-1
 373 740 l 1,19,-1
EndSplineSet
EndChar

StartChar: S
Encoding: 83 83 51
Width: 1125
Flags: W
LayerCount: 2
Fore
SplineSet
103 1091 m 0,0,1
 103 1182 103 1182 137.5 1251.5 c 128,-1,2
 172 1321 172 1321 234 1368.5 c 128,-1,3
 296 1416 296 1416 381 1440 c 128,-1,4
 466 1464 466 1464 568 1464 c 0,5,6
 646 1464 646 1464 714 1455 c 128,-1,7
 782 1446 782 1446 833 1435 c 0,8,9
 893 1423 893 1423 943 1408 c 1,10,-1
 964 1249 l 1,11,12
 913 1267 913 1267 852 1282 c 1,13,14
 799 1294 799 1294 729.5 1303.5 c 128,-1,15
 660 1313 660 1313 579 1314 c 0,16,17
 513 1314 513 1314 457.5 1300.5 c 128,-1,18
 402 1287 402 1287 361.5 1258 c 128,-1,19
 321 1229 321 1229 298.5 1185 c 128,-1,20
 276 1141 276 1141 276 1084 c 0,21,22
 276 1034 276 1034 290.5 1000.5 c 128,-1,23
 305 967 305 967 341.5 939 c 128,-1,24
 378 911 378 911 439 885.5 c 128,-1,25
 500 860 500 860 593 833 c 1,26,27
 704 796 704 796 786 765 c 128,-1,28
 868 734 868 734 922.5 687.5 c 128,-1,29
 977 641 977 641 1004 570 c 128,-1,30
 1031 499 1031 499 1031 389 c 0,31,32
 1031 295 1031 295 1004 218 c 128,-1,33
 977 141 977 141 918 87 c 128,-1,34
 859 33 859 33 766 4.5 c 128,-1,35
 673 -24 673 -24 540 -24 c 0,36,37
 448 -24 448 -24 376.5 -12 c 128,-1,38
 305 0 305 0 254 15 c 0,39,40
 195 33 195 33 150 55 c 1,41,-1
 124 213 l 1,42,43
 177 188 177 188 240 170 c 1,44,45
 294 151 294 151 366.5 139 c 128,-1,46
 439 127 439 127 522 127 c 0,47,48
 597 127 597 127 656.5 138 c 128,-1,49
 716 149 716 149 758 177.5 c 128,-1,50
 800 206 800 206 822.5 253 c 128,-1,51
 845 300 845 300 845 370 c 0,52,53
 845 439 845 439 830 483 c 128,-1,54
 815 527 815 527 776 561.5 c 128,-1,55
 737 596 737 596 669.5 623 c 128,-1,56
 602 650 602 650 497 684 c 1,57,58
 392 715 392 715 317.5 750 c 128,-1,59
 243 785 243 785 195 832.5 c 128,-1,60
 147 880 147 880 125 943.5 c 128,-1,61
 103 1007 103 1007 103 1091 c 0,0,1
EndSplineSet
EndChar

StartChar: T
Encoding: 84 84 52
Width: 1101
Flags: W
LayerCount: 2
Fore
SplineSet
648 1293 m 1,0,-1
 648 0 l 1,1,-1
 461 0 l 1,2,-1
 461 1293 l 1,3,-1
 49 1293 l 1,4,-1
 49 1437 l 1,5,-1
 1063 1437 l 1,6,-1
 1039 1293 l 1,7,-1
 648 1293 l 1,0,-1
EndSplineSet
EndChar

StartChar: U
Encoding: 85 85 53
Width: 1436
Flags: W
LayerCount: 2
Fore
SplineSet
720 127 m 0,0,1
 808 127 808 127 874 146 c 128,-1,2
 940 165 940 165 984 208 c 128,-1,3
 1028 251 1028 251 1050.5 326 c 128,-1,4
 1073 401 1073 401 1073 513 c 2,5,-1
 1073 1437 l 1,6,-1
 1263 1437 l 1,7,-1
 1263 500 l 2,8,9
 1263 345 1263 345 1222.5 244 c 128,-1,10
 1182 143 1182 143 1109.5 83.5 c 128,-1,11
 1037 24 1037 24 937.5 0 c 128,-1,12
 838 -24 838 -24 721 -24 c 0,13,14
 600 -24 600 -24 499 0.5 c 128,-1,15
 398 25 398 25 325.5 85.5 c 128,-1,16
 253 146 253 146 213 247 c 128,-1,17
 173 348 173 348 173 501 c 2,18,-1
 173 1437 l 1,19,-1
 364 1437 l 1,20,-1
 364 513 l 2,21,22
 364 401 364 401 384.5 326 c 128,-1,23
 405 251 405 251 448.5 208 c 128,-1,24
 492 165 492 165 559.5 146 c 128,-1,25
 627 127 627 127 720 127 c 0,0,1
EndSplineSet
EndChar

StartChar: V
Encoding: 86 86 58
Width: 1189
Flags: W
LayerCount: 2
Fore
SplineSet
459 0 m 1,0,-1
 45 1437 l 1,1,-1
 256 1437 l 1,2,-1
 520 421 l 1,3,-1
 598 94 l 1,4,-1
 672 421 l 1,5,-1
 929 1437 l 1,6,-1
 1143 1437 l 1,7,-1
 731 0 l 1,8,-1
 459 0 l 1,0,-1
EndSplineSet
EndChar

StartChar: W
Encoding: 87 87 59
Width: 1858
Flags: W
LayerCount: 2
Fore
SplineSet
1218 0 m 1,0,-1
 994 943 l 1,1,-1
 929 1262 l 1,2,-1
 866 942 l 1,3,-1
 642 0 l 1,4,-1
 366 0 l 1,5,-1
 79 1437 l 1,6,-1
 272 1437 l 1,7,-1
 476 325 l 1,8,-1
 512 124 l 1,9,-1
 550 322 l 1,10,-1
 794 1376 l 1,11,-1
 1066 1376 l 1,12,-1
 1311 321 l 1,13,-1
 1350 124 l 1,14,-1
 1386 325 l 1,15,-1
 1588 1437 l 1,16,-1
 1777 1437 l 1,17,-1
 1494 0 l 1,18,-1
 1218 0 l 1,0,-1
EndSplineSet
EndChar

StartChar: X
Encoding: 88 88 60
Width: 1120
Flags: W
LayerCount: 2
Fore
SplineSet
494 484 m 1,0,-1
 269 0 l 1,1,-1
 61 0 l 1,2,-1
 419 728 l 1,3,-1
 64 1437 l 1,4,-1
 272 1437 l 1,5,-1
 494 953 l 1,6,-1
 560 809 l 1,7,-1
 626 953 l 1,8,-1
 848 1437 l 1,9,-1
 1057 1437 l 1,10,-1
 697 728 l 1,11,-1
 1059 0 l 1,12,-1
 851 0 l 1,13,-1
 626 485 l 1,14,-1
 560 626 l 1,15,-1
 494 484 l 1,0,-1
EndSplineSet
EndChar

StartChar: Y
Encoding: 89 89 61
Width: 1133
Flags: W
LayerCount: 2
Fore
SplineSet
899 1437 m 1,0,-1
 1107 1437 l 1,1,-1
 667 450 l 1,2,-1
 667 0 l 1,3,-1
 465 0 l 1,4,-1
 465 449 l 1,5,-1
 27 1437 l 1,6,-1
 237 1437 l 1,7,-1
 467 871 l 1,8,-1
 565 609 l 1,9,-1
 572 609 l 1,10,-1
 666 871 l 1,11,-1
 899 1437 l 1,0,-1
EndSplineSet
EndChar

StartChar: Z
Encoding: 90 90 62
Width: 1104
Flags: W
LayerCount: 2
Fore
SplineSet
92 156 m 1,0,-1
 619 972 l 1,1,-1
 840 1292 l 1,2,-1
 638 1287 l 1,3,-1
 88 1287 l 1,4,-1
 112 1437 l 1,5,-1
 1004 1437 l 1,6,-1
 1020 1273 l 1,7,-1
 392 291 l 1,8,-1
 281 141 l 1,9,-1
 484 147 l 1,10,-1
 1006 147 l 1,11,-1
 983 0 l 1,12,-1
 107 0 l 1,13,-1
 92 156 l 1,0,-1
EndSplineSet
EndChar

StartChar: a
Encoding: 97 97 63
Width: 1080
Flags: W
LayerCount: 2
Fore
SplineSet
570 453 m 1,0,1
 541 453 541 453 505.5 451.5 c 128,-1,2
 470 450 470 450 434.5 444 c 128,-1,3
 399 438 399 438 366 426 c 128,-1,4
 333 414 333 414 307.5 394 c 128,-1,5
 282 374 282 374 266.5 342.5 c 128,-1,6
 251 311 251 311 251 268 c 0,7,8
 251 191 251 191 300.5 154 c 128,-1,9
 350 117 350 117 441 117 c 0,10,11
 504 117 504 117 555.5 130 c 128,-1,12
 607 143 607 143 644 160 c 0,13,14
 687 179 687 179 722 204 c 1,15,-1
 722 447 l 1,16,17
 699 449 699 449 673 450 c 0,18,19
 651 451 651 451 624 451.5 c 128,-1,20
 597 452 597 452 570 453 c 1,0,1
906 206 m 2,21,22
 906 170 906 170 910.5 150.5 c 128,-1,23
 915 131 915 131 928 126 c 0,24,25
 942 120 942 120 966.5 121 c 128,-1,26
 991 122 991 122 1012 122 c 1,27,-1
 999 0 l 1,28,29
 985 -5 985 -5 967 -9 c 0,30,31
 952 -13 952 -13 931.5 -15.5 c 128,-1,32
 911 -18 911 -18 887 -18 c 0,33,34
 846 -18 846 -18 817.5 -3.5 c 128,-1,35
 789 11 789 11 771 31 c 128,-1,36
 753 51 753 51 744.5 78 c 128,-1,37
 736 105 736 105 736 117 c 1,38,39
 709 79 709 79 661 49 c 0,40,41
 620 23 620 23 553.5 2.5 c 128,-1,42
 487 -18 487 -18 387 -18 c 0,43,44
 319 -18 319 -18 262.5 1.5 c 128,-1,45
 206 21 206 21 166 59 c 128,-1,46
 126 97 126 97 104 153 c 128,-1,47
 82 209 82 209 82 275 c 0,48,49
 82 365 82 365 121 422 c 128,-1,50
 160 479 160 479 224 511 c 128,-1,51
 288 543 288 543 370.5 555.5 c 128,-1,52
 453 568 453 568 540 568 c 0,53,54
 575 568 575 568 608 565.5 c 128,-1,55
 641 563 641 563 667 561 c 1,56,57
 697 556 697 556 722 553 c 1,58,-1
 722 666 l 2,59,60
 722 745 722 745 710 794 c 128,-1,61
 698 843 698 843 670.5 869 c 128,-1,62
 643 895 643 895 599 903.5 c 128,-1,63
 555 912 555 912 491 912 c 0,64,65
 429 912 429 912 371 902.5 c 128,-1,66
 313 893 313 893 266 882 c 0,67,68
 211 869 211 869 163 851 c 1,69,-1
 183 990 l 1,70,71
 221 1007 221 1007 270 1021 c 0,72,73
 312 1033 312 1033 371 1043 c 128,-1,74
 430 1053 430 1053 505 1053 c 0,75,76
 626 1053 626 1053 704 1029.5 c 128,-1,77
 782 1006 782 1006 827 953.5 c 128,-1,78
 872 901 872 901 889 816.5 c 128,-1,79
 906 732 906 732 906 611 c 2,80,-1
 906 206 l 2,21,22
EndSplineSet
EndChar

StartChar: ae
Encoding: 230 230 67
Width: 1648
Flags: W
LayerCount: 2
Fore
SplineSet
1486 20 m 1,0,1
 1449 7 1449 7 1402 -4 c 0,2,3
 1362 -13 1362 -13 1308 -20.5 c 128,-1,4
 1254 -28 1254 -28 1190 -28 c 0,5,6
 959 -28 959 -28 842 116 c 1,7,8
 827 101 827 101 792.5 77 c 128,-1,9
 758 53 758 53 702 29.5 c 128,-1,10
 646 6 646 6 567.5 -11 c 128,-1,11
 489 -28 489 -28 386 -28 c 0,12,13
 318 -28 318 -28 262 -8.5 c 128,-1,14
 206 11 206 11 166 48.5 c 128,-1,15
 126 86 126 86 104 141.5 c 128,-1,16
 82 197 82 197 82 268 c 0,17,18
 82 336 82 336 106 384.5 c 128,-1,19
 130 433 130 433 170 466 c 128,-1,20
 210 499 210 499 263 517.5 c 128,-1,21
 316 536 316 536 374 545 c 128,-1,22
 432 554 432 554 491.5 555.5 c 128,-1,23
 551 557 551 557 604 555 c 1,24,25
 625 553 625 553 646 552 c 128,-1,26
 667 551 667 551 684 549 c 0,27,28
 703 547 703 547 722 546 c 1,29,-1
 722 651 l 2,30,31
 722 717 722 717 713 761.5 c 128,-1,32
 704 806 704 806 684.5 833.5 c 128,-1,33
 665 861 665 861 632.5 874.5 c 128,-1,34
 600 888 600 888 554 892 c 0,35,36
 455 901 455 901 356 885 c 128,-1,37
 257 869 257 869 163 836 c 1,38,-1
 183 969 l 1,39,40
 226 991 226 991 274 1005.5 c 128,-1,41
 322 1020 322 1020 372 1027 c 128,-1,42
 422 1034 422 1034 473 1035 c 128,-1,43
 524 1036 524 1036 572 1032 c 0,44,45
 681 1023 681 1023 751 978 c 128,-1,46
 821 933 821 933 840 839 c 1,47,48
 868 895 868 895 905 932.5 c 128,-1,49
 942 970 942 970 984.5 993 c 128,-1,50
 1027 1016 1027 1016 1074 1025.5 c 128,-1,51
 1121 1035 1121 1035 1171 1035 c 0,52,53
 1266 1035 1266 1035 1336.5 1005 c 128,-1,54
 1407 975 1407 975 1454.5 925.5 c 128,-1,55
 1502 876 1502 876 1526 812 c 128,-1,56
 1550 748 1550 748 1552 679 c 0,57,58
 1552 658 1552 658 1550.5 630.5 c 128,-1,59
 1549 603 1549 603 1546.5 576.5 c 128,-1,60
 1544 550 1544 550 1541.5 528 c 128,-1,61
 1539 506 1539 506 1537 496 c 1,62,-1
 914 496 l 1,63,-1
 914 460 l 2,64,65
 914 371 914 371 931.5 309 c 128,-1,66
 949 247 949 247 980.5 206.5 c 128,-1,67
 1012 166 1012 166 1055.5 145 c 128,-1,68
 1099 124 1099 124 1150 117 c 1,69,70
 1205 111 1205 111 1258 114 c 128,-1,71
 1311 117 1311 117 1358 124 c 128,-1,72
 1405 131 1405 131 1444 139.5 c 128,-1,73
 1483 148 1483 148 1510 154 c 1,74,-1
 1486 20 l 1,0,1
570 445 m 0,75,76
 517 445 517 445 460.5 440.5 c 128,-1,77
 404 436 404 436 357.5 418 c 128,-1,78
 311 400 311 400 281 363 c 128,-1,79
 251 326 251 326 251 261 c 0,80,81
 251 179 251 179 300.5 142.5 c 128,-1,82
 350 106 350 106 441 106 c 0,83,84
 506 106 506 106 562.5 120.5 c 128,-1,85
 619 135 619 135 662.5 153.5 c 128,-1,86
 706 172 706 172 734.5 190.5 c 128,-1,87
 763 209 763 209 773 217 c 1,88,89
 763 240 763 240 755 268.5 c 128,-1,90
 747 297 747 297 740.5 326.5 c 128,-1,91
 734 356 734 356 730.5 385.5 c 128,-1,92
 727 415 727 415 726 439 c 1,93,94
 700 440 700 440 674 442 c 0,95,96
 651 443 651 443 623.5 444 c 128,-1,97
 596 445 596 445 570 445 c 0,75,76
1176 898 m 0,98,99
 1126 898 1126 898 1082 883.5 c 128,-1,100
 1038 869 1038 869 1003.5 835 c 128,-1,101
 969 801 969 801 946 745.5 c 128,-1,102
 923 690 923 690 917 608 c 1,103,-1
 1392 608 l 1,104,105
 1393 607 1393 607 1393 623.5 c 128,-1,106
 1393 640 1393 640 1393 656 c 0,107,108
 1391 720 1391 720 1374.5 765.5 c 128,-1,109
 1358 811 1358 811 1329 840.5 c 128,-1,110
 1300 870 1300 870 1261 884 c 128,-1,111
 1222 898 1222 898 1176 898 c 0,98,99
EndSplineSet
EndChar

StartChar: ampersand
Encoding: 38 38 69
Width: 1464
Flags: W
LayerCount: 2
Fore
SplineSet
1318 -20 m 1,0,-1
 1112 164 l 1,1,2
 1034 69 1034 69 909 22.5 c 128,-1,3
 784 -24 784 -24 600 -24 c 0,4,5
 457 -24 457 -24 360 6.5 c 128,-1,6
 263 37 263 37 204 89 c 128,-1,7
 145 141 145 141 119.5 210 c 128,-1,8
 94 279 94 279 94 353 c 0,9,10
 94 418 94 418 115.5 481 c 128,-1,11
 137 544 137 544 178 599 c 128,-1,12
 219 654 219 654 283 703.5 c 128,-1,13
 347 753 347 753 422 790 c 1,14,15
 378 830 378 830 335.5 871.5 c 128,-1,16
 293 913 293 913 264.5 958 c 128,-1,17
 236 1003 236 1003 219.5 1053.5 c 128,-1,18
 203 1104 203 1104 203 1163 c 0,19,20
 203 1235 203 1235 226.5 1287 c 128,-1,21
 250 1339 250 1339 298 1380 c 128,-1,22
 346 1421 346 1421 418.5 1442.5 c 128,-1,23
 491 1464 491 1464 590 1464 c 256,24,25
 689 1464 689 1464 758.5 1441.5 c 128,-1,26
 828 1419 828 1419 871.5 1379 c 128,-1,27
 915 1339 915 1339 935 1290 c 128,-1,28
 955 1241 955 1241 955 1176 c 0,29,30
 955 1108 955 1108 933 1050 c 128,-1,31
 911 992 911 992 870.5 942.5 c 128,-1,32
 830 893 830 893 773.5 851.5 c 128,-1,33
 717 810 717 810 643 770 c 1,34,-1
 1080 371 l 1,35,36
 1100 419 1100 419 1112 485 c 128,-1,37
 1124 551 1124 551 1131 617.5 c 128,-1,38
 1138 684 1138 684 1142 757 c 128,-1,39
 1146 830 1146 830 1149 912 c 1,40,-1
 1295 923 l 1,41,42
 1295 724 1295 724 1272.5 565 c 128,-1,43
 1250 406 1250 406 1193 287 c 1,44,-1
 1418 85 l 1,45,-1
 1318 -20 l 1,0,-1
603 123 m 0,46,47
 754 123 754 123 850 158.5 c 128,-1,48
 946 194 946 194 1003 259 c 1,49,-1
 514 708 l 1,50,51
 390 640 390 640 329.5 560 c 128,-1,52
 269 480 269 480 269 374 c 0,53,54
 269 322 269 322 283.5 277 c 128,-1,55
 298 232 298 232 335.5 198 c 128,-1,56
 373 164 373 164 438 143.5 c 128,-1,57
 503 123 503 123 603 123 c 0,46,47
367 1149 m 0,58,59
 367 1110 367 1110 383 1070 c 128,-1,60
 399 1030 399 1030 425.5 993 c 128,-1,61
 452 956 452 956 485 919 c 128,-1,62
 518 882 518 882 551 853 c 1,63,64
 596 880 596 880 641 911.5 c 128,-1,65
 686 943 686 943 722 977.5 c 128,-1,66
 758 1012 758 1012 780.5 1055 c 128,-1,67
 803 1098 803 1098 803 1153 c 0,68,69
 803 1199 803 1199 792 1233.5 c 128,-1,70
 781 1268 781 1268 754.5 1291.5 c 128,-1,71
 728 1315 728 1315 685.5 1326.5 c 128,-1,72
 643 1338 643 1338 580 1338 c 0,73,74
 522 1338 522 1338 481.5 1325 c 128,-1,75
 441 1312 441 1312 415.5 1287 c 128,-1,76
 390 1262 390 1262 378.5 1228 c 128,-1,77
 367 1194 367 1194 367 1149 c 0,58,59
EndSplineSet
EndChar

StartChar: approxequal
Encoding: 8776 8776 70
Width: 1014
Flags: W
LayerCount: 2
Fore
SplineSet
860 782 m 1,0,1
 860 731 860 731 842 691 c 0,2,3
 834 674 834 674 820.5 658 c 128,-1,4
 807 642 807 642 787 629 c 128,-1,5
 767 616 767 616 739.5 608.5 c 128,-1,6
 712 601 712 601 675 601 c 0,7,8
 632 601 632 601 584.5 617 c 128,-1,9
 537 633 537 633 492 652 c 128,-1,10
 447 671 447 671 406.5 687 c 128,-1,11
 366 703 366 703 336 703 c 0,12,13
 307 703 307 703 292 690.5 c 128,-1,14
 277 678 277 678 270 664 c 0,15,16
 262 647 262 647 261 626 c 1,17,-1
 152 626 l 1,18,19
 155 675 155 675 176 715 c 0,20,21
 185 732 185 732 198.5 748 c 128,-1,22
 212 764 212 764 232 777 c 128,-1,23
 252 790 252 790 278.5 797.5 c 128,-1,24
 305 805 305 805 341 805 c 0,25,26
 386 805 386 805 433 789.5 c 128,-1,27
 480 774 480 774 524 756 c 128,-1,28
 568 738 568 738 608 722.5 c 128,-1,29
 648 707 648 707 679 707 c 0,30,31
 705 707 705 707 719.5 716 c 128,-1,32
 734 725 734 725 740.5 737 c 128,-1,33
 747 749 747 749 748 761.5 c 128,-1,34
 749 774 749 774 749 782 c 1,35,-1
 860 782 l 1,0,1
860 566 m 1,36,37
 860 516 860 516 842 476 c 0,38,39
 834 459 834 459 820.5 443 c 128,-1,40
 807 427 807 427 787 414 c 128,-1,41
 767 401 767 401 739.5 393.5 c 128,-1,42
 712 386 712 386 675 386 c 0,43,44
 632 386 632 386 584.5 402 c 128,-1,45
 537 418 537 418 492 436.5 c 128,-1,46
 447 455 447 455 406.5 471 c 128,-1,47
 366 487 366 487 336 487 c 0,48,49
 307 487 307 487 292 474.5 c 128,-1,50
 277 462 277 462 270 448 c 0,51,52
 262 431 262 431 261 410 c 1,53,-1
 152 410 l 1,54,55
 155 460 155 460 176 500 c 0,56,57
 185 517 185 517 198.5 533 c 128,-1,58
 212 549 212 549 232 562 c 128,-1,59
 252 575 252 575 278.5 582.5 c 128,-1,60
 305 590 305 590 341 590 c 0,61,62
 386 590 386 590 433 574.5 c 128,-1,63
 480 559 480 559 524 540.5 c 128,-1,64
 568 522 568 522 608 506.5 c 128,-1,65
 648 491 648 491 679 491 c 0,66,67
 705 491 705 491 719.5 499.5 c 128,-1,68
 734 508 734 508 740.5 520 c 128,-1,69
 747 532 747 532 748 545 c 128,-1,70
 749 558 749 558 749 566 c 1,71,-1
 860 566 l 1,36,37
EndSplineSet
EndChar

StartChar: asciicircum
Encoding: 94 94 72
Width: 889
Flags: W
LayerCount: 2
Fore
SplineSet
836 279 m 1,0,-1
 662 279 l 1,1,2
 656 293 656 293 639.5 339 c 128,-1,3
 623 385 623 385 600.5 447 c 128,-1,4
 578 509 578 509 552.5 579 c 128,-1,5
 527 649 527 649 505 711 c 128,-1,6
 483 773 483 773 466 819 c 128,-1,7
 449 865 449 865 444 880 c 1,8,9
 440 869 440 869 429 840 c 128,-1,10
 418 811 418 811 403.5 769.5 c 128,-1,11
 389 728 389 728 371.5 679 c 128,-1,12
 354 630 354 630 335.5 579 c 128,-1,13
 317 528 317 528 299.5 478.5 c 128,-1,14
 282 429 282 429 267.5 388.5 c 128,-1,15
 253 348 253 348 242.5 318.5 c 128,-1,16
 232 289 232 289 228 279 c 1,17,-1
 52 279 l 1,18,19
 56 287 56 287 70.5 321.5 c 128,-1,20
 85 356 85 356 107 406.5 c 128,-1,21
 129 457 129 457 155.5 519.5 c 128,-1,22
 182 582 182 582 209.5 646.5 c 128,-1,23
 237 711 237 711 263.5 773.5 c 128,-1,24
 290 836 290 836 312 886.5 c 128,-1,25
 334 937 334 937 348.5 971 c 128,-1,26
 363 1005 363 1005 367 1013 c 1,27,-1
 522 1013 l 1,28,-1
 836 279 l 1,0,-1
EndSplineSet
EndChar

StartChar: asciitilde
Encoding: 126 126 73
Width: 893
Flags: W
LayerCount: 2
Fore
SplineSet
562 617 m 1,0,1
 588 611 588 611 603 622 c 256,2,3
 618 633 618 633 623 656 c 128,-1,4
 628 679 628 679 629 705 c 1,5,-1
 760 705 l 1,6,7
 761 646 761 646 747.5 606 c 128,-1,8
 734 566 734 566 712.5 541 c 128,-1,9
 691 516 691 516 663.5 504 c 128,-1,10
 636 492 636 492 609 491 c 0,11,12
 599 490 599 490 589 490.5 c 128,-1,13
 579 491 579 491 568 493 c 0,14,15
 534 497 534 497 499.5 513 c 128,-1,16
 465 529 465 529 433 547 c 128,-1,17
 401 565 401 565 372 579.5 c 128,-1,18
 343 594 343 594 321 595 c 0,19,20
 306 595 306 595 295.5 587 c 128,-1,21
 285 579 285 579 279 565.5 c 128,-1,22
 273 552 273 552 270.5 534.5 c 128,-1,23
 268 517 268 517 268 498 c 1,24,-1
 136 498 l 1,25,26
 135 563 135 563 150 606.5 c 128,-1,27
 165 650 165 650 189.5 675.5 c 128,-1,28
 214 701 214 701 246 711.5 c 128,-1,29
 278 722 278 722 311 721 c 0,30,31
 348 719 348 719 383 704 c 128,-1,32
 418 689 418 689 450 671 c 128,-1,33
 482 653 482 653 510 637 c 128,-1,34
 538 621 538 621 562 617 c 1,0,1
EndSplineSet
EndChar

StartChar: asterisk
Encoding: 42 42 74
Width: 875
Flags: W
LayerCount: 2
Fore
SplineSet
309 722 m 1,0,-1
 212 777 l 1,1,-1
 357 1017 l 1,2,-1
 94 1008 l 1,3,-1
 94 1118 l 1,4,-1
 359 1110 l 1,5,-1
 225 1348 l 1,6,-1
 322 1403 l 1,7,-1
 438 1163 l 1,8,-1
 569 1409 l 1,9,-1
 666 1351 l 1,10,-1
 516 1109 l 1,11,-1
 782 1118 l 1,12,-1
 782 1008 l 1,13,-1
 519 1017 l 1,14,-1
 655 776 l 1,15,-1
 551 719 l 1,16,-1
 438 964 l 1,17,-1
 309 722 l 1,0,-1
EndSplineSet
EndChar

StartChar: at
Encoding: 64 64 75
Width: 1603
Flags: W
LayerCount: 2
Fore
SplineSet
1035 896 m 1,0,1
 1032 896 1032 896 1013.5 899.5 c 128,-1,2
 995 903 995 903 969 907 c 128,-1,3
 943 911 943 911 914.5 914.5 c 128,-1,4
 886 918 886 918 864 917 c 0,5,6
 794 914 794 914 732.5 882.5 c 128,-1,7
 671 851 671 851 624 801 c 128,-1,8
 577 751 577 751 548.5 687.5 c 128,-1,9
 520 624 520 624 517 557 c 1,10,11
 509 425 509 425 558 362 c 128,-1,12
 607 299 607 299 709 299 c 0,13,14
 777 299 777 299 828.5 324.5 c 128,-1,15
 880 350 880 350 917.5 399 c 128,-1,16
 955 448 955 448 978 519.5 c 128,-1,17
 1001 591 1001 591 1012 681 c 1,18,-1
 1035 896 l 1,0,1
1511 685 m 0,19,20
 1511 577 1511 577 1490 497.5 c 128,-1,21
 1469 418 1469 418 1434.5 362 c 128,-1,22
 1400 306 1400 306 1356.5 270.5 c 128,-1,23
 1313 235 1313 235 1268 216 c 128,-1,24
 1223 197 1223 197 1181.5 190 c 128,-1,25
 1140 183 1140 183 1109 183 c 0,26,27
 1071 183 1071 183 1049.5 195.5 c 128,-1,28
 1028 208 1028 208 1017.5 229.5 c 128,-1,29
 1007 251 1007 251 1005.5 281 c 128,-1,30
 1004 311 1004 311 1007 345 c 0,31,32
 1008 348 1008 348 1011 365 c 128,-1,33
 1014 382 1014 382 1017 401 c 2,34,-1
 1025 449 l 1,35,-1
 1016 450 l 1,36,37
 998 375 998 375 957 315 c 0,38,39
 939 290 939 290 914.5 265 c 128,-1,40
 890 240 890 240 857.5 221.5 c 128,-1,41
 825 203 825 203 783.5 191.5 c 128,-1,42
 742 180 742 180 691 180 c 0,43,44
 619 180 619 180 562.5 204.5 c 128,-1,45
 506 229 506 229 466 275.5 c 128,-1,46
 426 322 426 322 405 387 c 128,-1,47
 384 452 384 452 384 533 c 0,48,49
 384 598 384 598 403 661.5 c 128,-1,50
 422 725 422 725 457 782.5 c 128,-1,51
 492 840 492 840 541.5 888.5 c 128,-1,52
 591 937 591 937 651.5 970 c 128,-1,53
 712 1003 712 1003 782 1017.5 c 128,-1,54
 852 1032 852 1032 929 1022 c 0,55,56
 953 1019 953 1019 984.5 1014.5 c 128,-1,57
 1016 1010 1016 1010 1044.5 1005.5 c 128,-1,58
 1073 1001 1073 1001 1093 997.5 c 128,-1,59
 1113 994 1113 994 1114 994 c 2,60,-1
 1160 895 l 1,61,-1
 1105 287 l 1,62,63
 1128 287 1128 287 1157.5 292 c 128,-1,64
 1187 297 1187 297 1217.5 312 c 128,-1,65
 1248 327 1248 327 1277 355 c 128,-1,66
 1306 383 1306 383 1328.5 427.5 c 128,-1,67
 1351 472 1351 472 1364.5 535.5 c 128,-1,68
 1378 599 1378 599 1378 688 c 0,69,70
 1378 818 1378 818 1338.5 914 c 128,-1,71
 1299 1010 1299 1010 1227 1073 c 128,-1,72
 1155 1136 1155 1136 1053.5 1167 c 128,-1,73
 952 1198 952 1198 827 1198 c 0,74,75
 691 1198 691 1198 583.5 1147 c 128,-1,76
 476 1096 476 1096 400 1010 c 128,-1,77
 324 924 324 924 281 810.5 c 128,-1,78
 238 697 238 697 232 572 c 0,79,80
 225 444 225 444 260.5 339.5 c 128,-1,81
 296 235 296 235 370.5 160.5 c 128,-1,82
 445 86 445 86 557.5 44.5 c 128,-1,83
 670 3 670 3 817 3 c 0,84,85
 930 3 930 3 1010 24 c 128,-1,86
 1090 45 1090 45 1141 73 c 1,87,88
 1201 103 1201 103 1240 141 c 1,89,90
 1246 136 1246 136 1255 125 c 128,-1,91
 1264 114 1264 114 1274.5 102 c 128,-1,92
 1285 90 1285 90 1294 79 c 128,-1,93
 1303 68 1303 68 1309 62 c 1,94,95
 1269 12 1269 12 1199 -26 c 0,96,97
 1169 -42 1169 -42 1130.5 -58.5 c 128,-1,98
 1092 -75 1092 -75 1043.5 -87.5 c 128,-1,99
 995 -100 995 -100 936 -107.5 c 128,-1,100
 877 -115 877 -115 807 -115 c 0,101,102
 646 -115 646 -115 512 -68 c 128,-1,103
 378 -21 378 -21 283 68 c 128,-1,104
 188 157 188 157 138 283.5 c 128,-1,105
 88 410 88 410 94 572 c 0,106,107
 100 731 100 731 158.5 868 c 128,-1,108
 217 1005 217 1005 314.5 1104.5 c 128,-1,109
 412 1204 412 1204 542 1260.5 c 128,-1,110
 672 1317 672 1317 821 1317 c 0,111,112
 968 1317 968 1317 1094.5 1276 c 128,-1,113
 1221 1235 1221 1235 1313.5 1156 c 128,-1,114
 1406 1077 1406 1077 1458.5 958 c 128,-1,115
 1511 839 1511 839 1511 685 c 0,19,20
EndSplineSet
EndChar

StartChar: b
Encoding: 98 98 77
Width: 1134
Flags: W
LayerCount: 2
Fore
SplineSet
156 0 m 1,0,-1
 156 1418 l 1,1,-1
 341 1437 l 1,2,-1
 341 956 l 1,3,4
 377 980 377 980 423 999 c 0,5,6
 462 1016 462 1016 515.5 1029.5 c 128,-1,7
 569 1043 569 1043 635 1043 c 0,8,9
 714 1043 714 1043 785 1012.5 c 128,-1,10
 856 982 856 982 909.5 917 c 128,-1,11
 963 852 963 852 994.5 750 c 128,-1,12
 1026 648 1026 648 1026 507 c 0,13,14
 1026 361 1026 361 990 260.5 c 128,-1,15
 954 160 954 160 895.5 98 c 128,-1,16
 837 36 837 36 763.5 9 c 128,-1,17
 690 -18 690 -18 614 -18 c 0,18,19
 542 -18 542 -18 487 0 c 128,-1,20
 432 18 432 18 394 41 c 0,21,22
 350 67 350 67 318 101 c 1,23,-1
 292 -9 l 1,24,-1
 156 0 l 1,0,-1
341 217 m 1,25,26
 371 190 371 190 409 169 c 0,27,28
 441 151 441 151 486 136.5 c 128,-1,29
 531 122 531 122 586 122 c 0,30,31
 638 122 638 122 684.5 142.5 c 128,-1,32
 731 163 731 163 765.5 208.5 c 128,-1,33
 800 254 800 254 820.5 326.5 c 128,-1,34
 841 399 841 399 841 503 c 0,35,36
 841 692 841 692 781 796.5 c 128,-1,37
 721 901 721 901 599 901 c 0,38,39
 544 901 544 901 497.5 888.5 c 128,-1,40
 451 876 451 876 416 861 c 0,41,42
 376 843 376 843 341 822 c 1,43,-1
 341 217 l 1,25,26
EndSplineSet
EndChar

StartChar: backslash
Encoding: 92 92 78
Width: 698
Flags: W
LayerCount: 2
Fore
SplineSet
238 1533 m 1,0,-1
 620 -179 l 1,1,-1
 461 -220 l 1,2,-1
 78 1492 l 1,3,-1
 238 1533 l 1,4,-1
 238 1533 l 1,0,-1
EndSplineSet
EndChar

StartChar: bar
Encoding: 124 124 79
Width: 533
Flags: W
LayerCount: 2
Fore
SplineSet
173 -131 m 1,0,-1
 173 1473 l 1,1,-1
 361 1473 l 1,2,-1
 361 -131 l 1,3,-1
 173 -131 l 1,0,-1
EndSplineSet
EndChar

StartChar: blacksun
Encoding: 9728 9728 80
Width: 1355
Flags: W
LayerCount: 2
Fore
SplineSet
988 529 m 1,0,-1
 1156 189 l 1,1,-1
 808 350 l 1,2,-1
 679 -10 l 1,3,-1
 551 348 l 1,4,-1
 205 182 l 1,5,-1
 368 528 l 1,6,-1
 5 655 l 1,7,-1
 366 783 l 1,8,-1
 200 1123 l 1,9,-1
 549 961 l 1,10,-1
 677 1323 l 1,11,-1
 806 963 l 1,12,-1
 1150 1130 l 1,13,-1
 988 783 l 1,14,-1
 1351 657 l 1,15,-1
 988 529 l 1,0,-1
384 625 m 1,16,17
 391 565 391 565 420 514 c 128,-1,18
 449 463 449 463 494 426.5 c 128,-1,19
 539 390 539 390 596 372 c 128,-1,20
 653 354 653 354 716 361 c 1,21,22
 780 367 780 367 833 397 c 128,-1,23
 886 427 886 427 922 472 c 128,-1,24
 958 517 958 517 974.5 573.5 c 128,-1,25
 991 630 991 630 984 690 c 1,26,27
 978 754 978 754 948 806 c 128,-1,28
 918 858 918 858 872.5 893 c 128,-1,29
 827 928 827 928 770 945 c 128,-1,30
 713 962 713 962 652 955 c 0,31,32
 587 948 587 948 535 918.5 c 128,-1,33
 483 889 483 889 447 844 c 128,-1,34
 411 799 411 799 394.5 742.5 c 128,-1,35
 378 686 378 686 384 625 c 1,16,17
EndSplineSet
EndChar

StartChar: braceleft
Encoding: 123 123 81
Width: 608
Flags: W
LayerCount: 2
Fore
SplineSet
74 657 m 1,0,-1
 199 752 l 1,1,2
 199 891 199 891 206 993.5 c 128,-1,3
 213 1096 213 1096 228.5 1169 c 128,-1,4
 244 1242 244 1242 269 1289 c 128,-1,5
 294 1336 294 1336 330.5 1363 c 128,-1,6
 367 1390 367 1390 415.5 1400.5 c 128,-1,7
 464 1411 464 1411 526 1412 c 1,8,-1
 526 1322 l 1,9,10
 489 1322 489 1322 463.5 1313 c 128,-1,11
 438 1304 438 1304 421.5 1279.5 c 128,-1,12
 405 1255 405 1255 396 1212 c 128,-1,13
 387 1169 387 1169 382.5 1101 c 128,-1,14
 378 1033 378 1033 377.5 936 c 128,-1,15
 377 839 377 839 377 708 c 1,16,-1
 211 605 l 1,17,-1
 377 497 l 1,18,19
 377 366 377 366 377.5 269.5 c 128,-1,20
 378 173 378 173 382.5 105 c 128,-1,21
 387 37 387 37 396 -6 c 128,-1,22
 405 -49 405 -49 421.5 -73.5 c 128,-1,23
 438 -98 438 -98 463.5 -107 c 128,-1,24
 489 -116 489 -116 526 -116 c 1,25,-1
 526 -206 l 1,26,27
 464 -205 464 -205 415.5 -194.5 c 128,-1,28
 367 -184 367 -184 330.5 -157 c 128,-1,29
 294 -130 294 -130 269 -83 c 128,-1,30
 244 -36 244 -36 228.5 37 c 128,-1,31
 213 110 213 110 206 212.5 c 128,-1,32
 199 315 199 315 199 454 c 1,33,-1
 74 550 l 1,34,-1
 74 657 l 1,0,-1
EndSplineSet
EndChar

StartChar: braceright
Encoding: 125 125 82
Width: 608
Flags: W
LayerCount: 2
Fore
SplineSet
535 550 m 1,0,-1
 409 454 l 1,1,2
 409 315 409 315 402 212.5 c 128,-1,3
 395 110 395 110 379.5 37 c 128,-1,4
 364 -36 364 -36 339 -83 c 128,-1,5
 314 -130 314 -130 277.5 -157 c 128,-1,6
 241 -184 241 -184 192.5 -194.5 c 128,-1,7
 144 -205 144 -205 82 -206 c 1,8,-1
 82 -116 l 1,9,10
 119 -116 119 -116 144.5 -107 c 128,-1,11
 170 -98 170 -98 186.5 -73.5 c 128,-1,12
 203 -49 203 -49 211.5 -6 c 128,-1,13
 220 37 220 37 224.5 105 c 128,-1,14
 229 173 229 173 229.5 269.5 c 128,-1,15
 230 366 230 366 230 497 c 1,16,-1
 397 605 l 1,17,-1
 230 708 l 1,18,19
 230 839 230 839 229.5 936 c 128,-1,20
 229 1033 229 1033 224.5 1101 c 128,-1,21
 220 1169 220 1169 211.5 1212 c 128,-1,22
 203 1255 203 1255 186.5 1279.5 c 128,-1,23
 170 1304 170 1304 144.5 1313 c 128,-1,24
 119 1322 119 1322 82 1322 c 1,25,-1
 82 1412 l 1,26,27
 144 1411 144 1411 192.5 1400.5 c 128,-1,28
 241 1390 241 1390 277.5 1363 c 128,-1,29
 314 1336 314 1336 339 1289 c 128,-1,30
 364 1242 364 1242 379.5 1169 c 128,-1,31
 395 1096 395 1096 402 993.5 c 128,-1,32
 409 891 409 891 409 752 c 1,33,-1
 535 657 l 1,34,-1
 535 550 l 1,0,-1
EndSplineSet
EndChar

StartChar: bracketleft
Encoding: 91 91 83
Width: 646
Flags: W
LayerCount: 2
Fore
SplineSet
172 -218 m 1,0,-1
 172 1437 l 1,1,-1
 578 1437 l 1,2,-1
 578 1319 l 1,3,-1
 341 1319 l 1,4,-1
 347 966 l 1,5,-1
 347 337 l 1,6,-1
 341 -102 l 1,7,-1
 578 -102 l 1,8,-1
 578 -218 l 1,9,-1
 172 -218 l 1,0,-1
EndSplineSet
EndChar

StartChar: bracketright
Encoding: 93 93 84
Width: 646
Flags: W
LayerCount: 2
Fore
SplineSet
69 -218 m 1,0,-1
 69 -102 l 1,1,-1
 306 -102 l 1,2,-1
 300 337 l 1,3,-1
 300 966 l 1,4,-1
 306 1319 l 1,5,-1
 69 1319 l 1,6,-1
 69 1437 l 1,7,-1
 475 1437 l 1,8,-1
 475 -218 l 1,9,-1
 69 -218 l 1,0,-1
EndSplineSet
EndChar

StartChar: breve
Encoding: 728 728 85
Width: 861
Flags: W
LayerCount: 2
Fore
SplineSet
431 1190 m 0,0,1
 365 1190 365 1190 310 1207 c 128,-1,2
 255 1224 255 1224 212 1251.5 c 128,-1,3
 169 1279 169 1279 137.5 1314 c 128,-1,4
 106 1349 106 1349 85 1384 c 1,5,-1
 162 1456 l 1,6,7
 206 1399 206 1399 272 1360.5 c 128,-1,8
 338 1322 338 1322 431 1322 c 0,9,10
 479 1322 479 1322 519.5 1333 c 128,-1,11
 560 1344 560 1344 593.5 1362.5 c 128,-1,12
 627 1381 627 1381 653.5 1405.5 c 128,-1,13
 680 1430 680 1430 700 1456 c 1,14,-1
 775 1384 l 1,15,16
 757 1352 757 1352 728 1318 c 128,-1,17
 699 1284 699 1284 656.5 1255.5 c 128,-1,18
 614 1227 614 1227 558 1208.5 c 128,-1,19
 502 1190 502 1190 431 1190 c 0,0,1
EndSplineSet
EndChar

StartChar: bullet
Encoding: 8226 8226 86
Width: 926
Flags: W
LayerCount: 2
Fore
SplineSet
811 607 m 0,0,1
 811 521 811 521 780 457 c 128,-1,2
 749 393 749 393 699 350 c 128,-1,3
 649 307 649 307 587 285.5 c 128,-1,4
 525 264 525 264 464 264 c 0,5,6
 384 264 384 264 320 291.5 c 128,-1,7
 256 319 256 319 210.5 366 c 128,-1,8
 165 413 165 413 140.5 475 c 128,-1,9
 116 537 116 537 116 605 c 0,10,11
 116 677 116 677 142 739.5 c 128,-1,12
 168 802 168 802 214.5 848.5 c 128,-1,13
 261 895 261 895 325 922 c 128,-1,14
 389 949 389 949 464 949 c 256,15,16
 539 949 539 949 602.5 921.5 c 128,-1,17
 666 894 666 894 712.5 847.5 c 128,-1,18
 759 801 759 801 785 738.5 c 128,-1,19
 811 676 811 676 811 607 c 0,0,1
EndSplineSet
EndChar

StartChar: c
Encoding: 99 99 87
Width: 935
Flags: W
LayerCount: 2
Fore
SplineSet
106 506 m 0,0,1
 106 608 106 608 123.5 688.5 c 128,-1,2
 141 769 141 769 171.5 829 c 128,-1,3
 202 889 202 889 243.5 929.5 c 128,-1,4
 285 970 285 970 333.5 995.5 c 128,-1,5
 382 1021 382 1021 435.5 1032 c 128,-1,6
 489 1043 489 1043 543 1043 c 0,7,8
 609 1043 609 1043 663 1034.5 c 128,-1,9
 717 1026 717 1026 756 1015 c 0,10,11
 802 1003 802 1003 838 987 c 1,12,-1
 853 852 l 1,13,14
 814 866 814 866 768 877 c 0,15,16
 729 886 729 886 678 894 c 128,-1,17
 627 902 627 902 570 902 c 0,18,19
 503 902 503 902 451.5 880 c 128,-1,20
 400 858 400 858 365.5 810.5 c 128,-1,21
 331 763 331 763 313 688 c 128,-1,22
 295 613 295 613 295 509 c 0,23,24
 295 410 295 410 313 335 c 128,-1,25
 331 260 331 260 365.5 212.5 c 128,-1,26
 400 165 400 165 451.5 143.5 c 128,-1,27
 503 122 503 122 570 122 c 0,28,29
 627 122 627 122 678.5 129.5 c 128,-1,30
 730 137 730 137 769 146 c 0,31,32
 815 157 815 157 854 170 c 1,33,-1
 838 37 l 1,34,35
 802 21 802 21 757 9 c 0,36,37
 719 -2 719 -2 665.5 -10 c 128,-1,38
 612 -18 612 -18 548 -18 c 0,39,40
 465 -18 465 -18 386 7.5 c 128,-1,41
 307 33 307 33 244.5 94.5 c 128,-1,42
 182 156 182 156 144 258.5 c 128,-1,43
 106 361 106 361 106 506 c 0,0,1
EndSplineSet
EndChar

StartChar: caron
Encoding: 711 711 88
Width: 703
Flags: W
LayerCount: 2
Fore
SplineSet
60 1681 m 1,0,-1
 246 1681 l 1,1,-1
 344 1309 l 1,2,-1
 358 1309 l 1,3,-1
 458 1681 l 1,4,-1
 642 1681 l 1,5,-1
 443 1186 l 1,6,-1
 260 1186 l 1,7,-1
 60 1681 l 1,0,-1
EndSplineSet
EndChar

StartChar: cent
Encoding: 162 162 90
Width: 981
Flags: W
LayerCount: 2
Fore
SplineSet
562 -129 m 1,0,-1
 500 -129 l 1,1,-1
 528 1161 l 1,2,-1
 588 1161 l 1,3,-1
 562 -129 l 1,0,-1
97 504 m 0,4,5
 97 654 97 654 137.5 756 c 128,-1,6
 178 858 178 858 243.5 920 c 128,-1,7
 309 982 309 982 390.5 1009 c 128,-1,8
 472 1036 472 1036 555 1035 c 0,9,10
 625 1035 625 1035 687 1016.5 c 128,-1,11
 749 998 749 998 795 961.5 c 128,-1,12
 841 925 841 925 865.5 870.5 c 128,-1,13
 890 816 890 816 885 744 c 1,14,-1
 733 750 l 1,15,16
 734 827 734 827 687.5 860.5 c 128,-1,17
 641 894 641 894 556 893 c 0,18,19
 496 892 496 892 446.5 872.5 c 128,-1,20
 397 853 397 853 361 808 c 128,-1,21
 325 763 325 763 305.5 689 c 128,-1,22
 286 615 286 615 286 507 c 0,23,24
 286 398 286 398 304.5 322 c 128,-1,25
 323 246 323 246 359 199 c 128,-1,26
 395 152 395 152 447.5 130.5 c 128,-1,27
 500 109 500 109 567 109 c 0,28,29
 626 109 626 109 679 120 c 128,-1,30
 732 131 732 131 772.5 144 c 128,-1,31
 813 157 813 157 836.5 168 c 128,-1,32
 860 179 860 179 860 179 c 1,33,-1
 834 42 l 1,34,35
 822 34 822 34 797 22.5 c 128,-1,36
 772 11 772 11 735.5 -0.5 c 128,-1,37
 699 -12 699 -12 652 -20 c 128,-1,38
 605 -28 605 -28 551 -28 c 0,39,40
 496 -28 496 -28 441 -16.5 c 128,-1,41
 386 -5 386 -5 336 20.5 c 128,-1,42
 286 46 286 46 242 86.5 c 128,-1,43
 198 127 198 127 166 186.5 c 128,-1,44
 134 246 134 246 115.5 324.5 c 128,-1,45
 97 403 97 403 97 504 c 0,4,5
EndSplineSet
EndChar

StartChar: colon
Encoding: 58 58 91
Width: 501
Flags: W
LayerCount: 2
Fore
SplineSet
353 306 m 1,0,-1
 353 94 l 1,1,-1
 147 94 l 1,2,-1
 147 306 l 1,3,-1
 353 306 l 1,0,-1
353 805 m 1,4,-1
 353 591 l 1,5,-1
 148 591 l 1,6,-1
 148 805 l 1,7,-1
 353 805 l 1,4,-1
EndSplineSet
EndChar

StartChar: comma
Encoding: 44 44 92
Width: 507
Flags: W
LayerCount: 2
Fore
SplineSet
138 200 m 1,0,-1
 364 216 l 1,1,2
 366 192 366 192 369 164 c 0,3,4
 371 140 371 140 373 109 c 128,-1,5
 375 78 375 78 375 43 c 0,6,7
 375 -4 375 -4 365 -43.5 c 128,-1,8
 355 -83 355 -83 332 -115.5 c 128,-1,9
 309 -148 309 -148 270.5 -172.5 c 128,-1,10
 232 -197 232 -197 174 -213 c 1,11,-1
 147 -133 l 1,12,13
 203 -127 203 -127 230.5 -90 c 128,-1,14
 258 -53 258 -53 258 0 c 1,15,-1
 138 0 l 1,16,-1
 138 200 l 1,0,-1
EndSplineSet
EndChar

StartChar: copyright
Encoding: 169 169 93
Width: 1612
Flags: W
LayerCount: 2
Fore
SplineSet
1402 708 m 0,0,1
 1402 786 1402 786 1383.5 862 c 128,-1,2
 1365 938 1365 938 1330 1007 c 128,-1,3
 1295 1076 1295 1076 1243.5 1135 c 128,-1,4
 1192 1194 1192 1194 1126 1237 c 128,-1,5
 1060 1280 1060 1280 980 1304.5 c 128,-1,6
 900 1329 900 1329 808 1329 c 0,7,8
 680 1329 680 1329 571 1281 c 128,-1,9
 462 1233 462 1233 382.5 1149 c 128,-1,10
 303 1065 303 1065 257.5 951.5 c 128,-1,11
 212 838 212 838 212 708 c 0,12,13
 212 576 212 576 256 463 c 128,-1,14
 300 350 300 350 379.5 267 c 128,-1,15
 459 184 459 184 568 136.5 c 128,-1,16
 677 89 677 89 808 89 c 0,17,18
 928 89 928 89 1036 133.5 c 128,-1,19
 1144 178 1144 178 1225.5 259 c 128,-1,20
 1307 340 1307 340 1354.5 454 c 128,-1,21
 1402 568 1402 568 1402 708 c 0,0,1
1520 708 m 0,22,23
 1520 597 1520 597 1492.5 500 c 128,-1,24
 1465 403 1465 403 1415.5 322.5 c 128,-1,25
 1366 242 1366 242 1298.5 179 c 128,-1,26
 1231 116 1231 116 1152 72.5 c 128,-1,27
 1073 29 1073 29 984.5 6 c 128,-1,28
 896 -17 896 -17 806 -17 c 0,29,30
 706 -17 706 -17 614.5 8 c 128,-1,31
 523 33 523 33 443.5 78.5 c 128,-1,32
 364 124 364 124 299.5 189.5 c 128,-1,33
 235 255 235 255 188.5 335.5 c 128,-1,34
 142 416 142 416 117 510 c 128,-1,35
 92 604 92 604 92 708 c 0,36,37
 92 811 92 811 117.5 904.5 c 128,-1,38
 143 998 143 998 190 1079 c 128,-1,39
 237 1160 237 1160 302 1225.5 c 128,-1,40
 367 1291 367 1291 446.5 1337.5 c 128,-1,41
 526 1384 526 1384 617 1409.5 c 128,-1,42
 708 1435 708 1435 806 1435 c 0,43,44
 913 1435 913 1435 1007.5 1407 c 128,-1,45
 1102 1379 1102 1379 1181.5 1329.5 c 128,-1,46
 1261 1280 1261 1280 1323.5 1211.5 c 128,-1,47
 1386 1143 1386 1143 1430 1062 c 128,-1,48
 1474 981 1474 981 1497 891 c 128,-1,49
 1520 801 1520 801 1520 708 c 0,22,23
1047 313 m 1,50,51
 1043 311 1043 311 1023 300.5 c 128,-1,52
 1003 290 1003 290 972 278.5 c 128,-1,53
 941 267 941 267 900.5 257.5 c 128,-1,54
 860 248 860 248 816 248 c 0,55,56
 708 248 708 248 632.5 287 c 128,-1,57
 557 326 557 326 510 390.5 c 128,-1,58
 463 455 463 455 442 538 c 128,-1,59
 421 621 421 621 421 708 c 0,60,61
 421 807 421 807 446 891.5 c 128,-1,62
 471 976 471 976 520.5 1037 c 128,-1,63
 570 1098 570 1098 644 1132.5 c 128,-1,64
 718 1167 718 1167 816 1167 c 0,65,66
 859 1167 859 1167 899 1159 c 128,-1,67
 939 1151 939 1151 971 1140.5 c 128,-1,68
 1003 1130 1003 1130 1023.5 1121 c 128,-1,69
 1044 1112 1044 1112 1047 1110 c 1,70,-1
 1053 1013 l 1,71,72
 1022 1025 1022 1025 986 1036 c 0,73,74
 954 1045 954 1045 912.5 1052.5 c 128,-1,75
 871 1060 871 1060 823 1060 c 0,76,77
 745 1060 745 1060 691.5 1032 c 128,-1,78
 638 1004 638 1004 606 956 c 128,-1,79
 574 908 574 908 560 844 c 128,-1,80
 546 780 546 780 546 708 c 0,81,82
 546 631 546 631 559.5 566.5 c 128,-1,83
 573 502 573 502 605.5 455 c 128,-1,84
 638 408 638 408 691 381.5 c 128,-1,85
 744 355 744 355 823 355 c 0,86,87
 871 355 871 355 912 364 c 128,-1,88
 953 373 953 373 984 384 c 128,-1,89
 1015 395 1015 395 1033 405 c 128,-1,90
 1051 415 1051 415 1053 417 c 1,91,-1
 1047 313 l 1,50,51
EndSplineSet
EndChar

StartChar: cycle
Encoding: 10091 10091 94
Width: 1551
Flags: W
LayerCount: 2
Fore
SplineSet
1021 143 m 1,0,-1
 674 -82 l 1,1,-1
 674 81 l 1,2,-1
 136 81 l 1,3,-1
 136 888 l 1,4,-1
 467 889 l 1,5,-1
 467 762 l 1,6,-1
 304 763 l 1,7,-1
 304 210 l 1,8,-1
 674 210 l 1,9,-1
 674 363 l 1,10,-1
 1021 143 l 1,0,-1
869 1053 m 1,11,-1
 868 889 l 1,12,-1
 1416 889 l 1,13,-1
 1416 81 l 1,14,-1
 1083 81 l 1,15,-1
 1083 211 l 1,16,-1
 1246 210 l 1,17,-1
 1245 760 l 1,18,-1
 869 762 l 1,19,-1
 869 607 l 1,20,-1
 525 840 l 1,21,-1
 869 1053 l 1,11,-1
EndSplineSet
EndChar

StartChar: d
Encoding: 100 100 95
Width: 1137
Flags: W
LayerCount: 2
Fore
SplineSet
514 -18 m 0,0,1
 440 -18 440 -18 367 9 c 128,-1,2
 294 36 294 36 236.5 98 c 128,-1,3
 179 160 179 160 143.5 260.5 c 128,-1,4
 108 361 108 361 108 507 c 0,5,6
 108 648 108 648 139 750 c 128,-1,7
 170 852 170 852 223.5 917 c 128,-1,8
 277 982 277 982 348.5 1012.5 c 128,-1,9
 420 1043 420 1043 501 1043 c 0,10,11
 565 1043 565 1043 619 1030.5 c 128,-1,12
 673 1018 673 1018 713 1004 c 0,13,14
 760 987 760 987 798 966 c 1,15,-1
 798 1418 l 1,16,-1
 981 1437 l 1,17,-1
 981 0 l 1,18,-1
 838 -8 l 1,19,-1
 806 102 l 1,20,21
 776 68 776 68 734 42 c 0,22,23
 698 19 698 19 643.5 0.5 c 128,-1,24
 589 -18 589 -18 514 -18 c 0,0,1
543 122 m 0,25,26
 599 122 599 122 645.5 137 c 128,-1,27
 692 152 692 152 726 170 c 0,28,29
 766 191 766 191 798 219 c 1,30,-1
 798 833 l 1,31,32
 761 852 761 852 719 867 c 0,33,34
 682 880 682 880 634 890.5 c 128,-1,35
 586 901 586 901 530 901 c 0,36,37
 410 901 410 901 351 797 c 128,-1,38
 292 693 292 693 292 503 c 0,39,40
 292 399 292 399 312 326.5 c 128,-1,41
 332 254 332 254 366.5 208.5 c 128,-1,42
 401 163 401 163 446.5 142.5 c 128,-1,43
 492 122 492 122 543 122 c 0,25,26
EndSplineSet
EndChar

StartChar: dagger
Encoding: 8224 8224 96
Width: 853
Flags: W
LayerCount: 2
Fore
SplineSet
790 1008 m 1,0,-1
 790 883 l 1,1,-1
 507 883 l 1,2,-1
 507 0 l 1,3,-1
 346 0 l 1,4,-1
 346 883 l 1,5,-1
 63 883 l 1,6,-1
 63 1008 l 1,7,-1
 346 1008 l 1,8,-1
 346 1334 l 1,9,-1
 507 1334 l 1,10,-1
 507 1008 l 1,11,-1
 790 1008 l 1,0,-1
EndSplineSet
EndChar

StartChar: daggerdbl
Encoding: 8225 8225 97
Width: 831
Flags: W
LayerCount: 2
Fore
SplineSet
117 410 m 1,0,-1
 117 522 l 1,1,-1
 332 522 l 1,2,-1
 332 867 l 1,3,-1
 117 867 l 1,4,-1
 117 979 l 1,5,-1
 332 979 l 1,6,-1
 332 1252 l 1,7,-1
 497 1252 l 1,8,-1
 497 979 l 1,9,-1
 714 979 l 1,10,-1
 714 867 l 1,11,-1
 497 867 l 1,12,-1
 497 522 l 1,13,-1
 714 522 l 1,14,-1
 714 410 l 1,15,-1
 497 410 l 1,16,-1
 497 129 l 1,17,-1
 332 129 l 1,18,-1
 332 410 l 1,19,-1
 117 410 l 1,0,-1
EndSplineSet
EndChar

StartChar: degree
Encoding: 176 176 98
Width: 675
Flags: W
LayerCount: 2
Fore
SplineSet
456 985 m 0,0,1
 456 1036 456 1036 424.5 1069.5 c 128,-1,2
 393 1103 393 1103 337 1103 c 0,3,4
 283 1103 283 1103 250.5 1070 c 128,-1,5
 218 1037 218 1037 218 985 c 0,6,7
 218 934 218 934 249 901.5 c 128,-1,8
 280 869 280 869 337 869 c 0,9,10
 391 869 391 869 423.5 901 c 128,-1,11
 456 933 456 933 456 985 c 0,0,1
570 985 m 256,12,13
 570 936 570 936 552.5 894 c 128,-1,14
 535 852 535 852 504.5 821 c 128,-1,15
 474 790 474 790 431 772.5 c 128,-1,16
 388 755 388 755 337 755 c 0,17,18
 287 755 287 755 244.5 772.5 c 128,-1,19
 202 790 202 790 171 820.5 c 128,-1,20
 140 851 140 851 123 893 c 128,-1,21
 106 935 106 935 106 985 c 0,22,23
 106 1034 106 1034 123 1076 c 128,-1,24
 140 1118 140 1118 171 1148.5 c 128,-1,25
 202 1179 202 1179 244.5 1196 c 128,-1,26
 287 1213 287 1213 337 1213 c 0,27,28
 388 1213 388 1213 431 1195.5 c 128,-1,29
 474 1178 474 1178 504.5 1147.5 c 128,-1,30
 535 1117 535 1117 552.5 1075.5 c 128,-1,31
 570 1034 570 1034 570 985 c 256,12,13
EndSplineSet
EndChar

StartChar: divide
Encoding: 247 247 99
Width: 1022
Flags: W
LayerCount: 2
Fore
SplineSet
427 731 m 1,0,-1
 427 908 l 1,1,-1
 602 908 l 1,2,-1
 602 731 l 1,3,-1
 427 731 l 1,0,-1
127 521 m 1,4,-1
 127 641 l 1,5,-1
 896 641 l 1,6,-1
 896 521 l 1,7,-1
 127 521 l 1,4,-1
427 243 m 1,8,-1
 427 421 l 1,9,-1
 602 421 l 1,10,-1
 602 243 l 1,11,-1
 427 243 l 1,8,-1
EndSplineSet
EndChar

StartChar: dollar
Encoding: 36 36 100
Width: 1014
Flags: W
LayerCount: 2
Fore
SplineSet
473 32 m 1,0,1
 466 32 466 32 454 32.5 c 128,-1,2
 442 33 442 33 436 33 c 0,3,4
 367 36 367 36 311 47.5 c 128,-1,5
 255 59 255 59 216 72 c 0,6,7
 170 87 170 87 135 104 c 1,8,-1
 110 254 l 1,9,10
 154 234 154 234 207 217 c 0,11,12
 252 203 252 203 311 190.5 c 128,-1,13
 370 178 370 178 438 175 c 0,14,15
 443 175 443 175 453.5 174.5 c 128,-1,16
 464 174 464 174 470 174 c 1,17,-1
 458 651 l 1,18,19
 445 655 445 655 433 659 c 128,-1,20
 421 663 421 663 409 667 c 0,21,22
 329 694 329 694 270 725 c 128,-1,23
 211 756 211 756 171.5 797 c 128,-1,24
 132 838 132 838 112.5 893 c 128,-1,25
 93 948 93 948 93 1022 c 256,26,27
 93 1096 93 1096 118.5 1154 c 128,-1,28
 144 1212 144 1212 190 1254 c 128,-1,29
 236 1296 236 1296 300.5 1320.5 c 128,-1,30
 365 1345 365 1345 442 1353 c 1,31,-1
 437 1593 l 1,32,-1
 544 1593 l 1,33,-1
 549 1356 l 1,34,35
 613 1354 613 1354 668 1345.5 c 128,-1,36
 723 1337 723 1337 764 1328 c 0,37,38
 812 1317 812 1317 851 1305 c 1,39,-1
 871 1154 l 1,40,41
 828 1169 828 1169 777 1181 c 0,42,43
 733 1192 733 1192 675.5 1201 c 128,-1,44
 618 1210 618 1210 552 1213 c 1,45,-1
 563 787 l 1,46,47
 653 758 653 758 722 730 c 128,-1,48
 791 702 791 702 837 660.5 c 128,-1,49
 883 619 883 619 906.5 557 c 128,-1,50
 930 495 930 495 930 398 c 0,51,52
 930 323 930 323 910.5 261 c 128,-1,53
 891 199 891 199 849 152 c 128,-1,54
 807 105 807 105 740.5 75 c 128,-1,55
 674 45 674 45 580 35 c 1,56,-1
 586 -201 l 1,57,-1
 478 -201 l 1,58,-1
 473 32 l 1,0,1
754 381 m 0,59,60
 754 429 754 429 745 464 c 128,-1,61
 736 499 736 499 714.5 526 c 128,-1,62
 693 553 693 553 656.5 573.5 c 128,-1,63
 620 594 620 594 566 613 c 1,64,-1
 577 184 l 1,65,66
 618 191 618 191 651 205.5 c 128,-1,67
 684 220 684 220 707 244 c 128,-1,68
 730 268 730 268 742 301.5 c 128,-1,69
 754 335 754 335 754 381 c 0,59,60
257 1016 m 0,70,71
 257 979 257 979 267 951.5 c 128,-1,72
 277 924 277 924 300 901.5 c 128,-1,73
 323 879 323 879 360.5 860 c 128,-1,74
 398 841 398 841 454 822 c 1,75,-1
 446 1206 l 1,76,77
 405 1200 405 1200 370.5 1185.5 c 128,-1,78
 336 1171 336 1171 310.5 1148 c 128,-1,79
 285 1125 285 1125 271 1092 c 128,-1,80
 257 1059 257 1059 257 1016 c 0,70,71
EndSplineSet
EndChar

StartChar: dotaccent
Encoding: 729 729 101
Width: 421
Flags: W
LayerCount: 2
Fore
SplineSet
293 1304 m 0,0,1
 302 1287 302 1287 303 1269 c 128,-1,2
 304 1251 304 1251 299 1234.5 c 128,-1,3
 294 1218 294 1218 283 1204 c 128,-1,4
 272 1190 272 1190 256 1183 c 0,5,6
 222 1167 222 1167 187 1179 c 128,-1,7
 152 1191 152 1191 135 1226 c 1,8,9
 126 1242 126 1242 125 1260.5 c 128,-1,10
 124 1279 124 1279 129.5 1295.5 c 128,-1,11
 135 1312 135 1312 146 1325.5 c 128,-1,12
 157 1339 157 1339 174 1347 c 0,13,14
 206 1363 206 1363 241 1351 c 128,-1,15
 276 1339 276 1339 293 1304 c 0,0,1
EndSplineSet
EndChar

StartChar: dotlessi
Encoding: 305 305 102
Width: 492
Flags: W
LayerCount: 2
Fore
SplineSet
158 0 m 1,0,-1
 158 1021 l 1,1,-1
 334 1021 l 1,2,-1
 334 0 l 1,3,-1
 158 0 l 1,0,-1
EndSplineSet
EndChar

StartChar: e
Encoding: 101 101 103
Width: 1030
Flags: W
LayerCount: 2
Fore
SplineSet
556 906 m 0,0,1
 509 906 509 906 465.5 891.5 c 128,-1,2
 422 877 422 877 387 843 c 128,-1,3
 352 809 352 809 328.5 753.5 c 128,-1,4
 305 698 305 698 299 608 c 1,5,-1
 772 608 l 1,6,7
 772 624 772 624 773 633 c 0,8,9
 774 641 774 641 774 649 c 128,-1,10
 774 657 774 657 774 664 c 0,11,12
 772 728 772 728 755 773.5 c 128,-1,13
 738 819 738 819 709 848.5 c 128,-1,14
 680 878 680 878 641 892 c 128,-1,15
 602 906 602 906 556 906 c 0,0,1
872 30 m 1,16,17
 836 17 836 17 792 6 c 0,18,19
 754 -3 754 -3 703 -10.5 c 128,-1,20
 652 -18 652 -18 591 -18 c 0,21,22
 349 -18 349 -18 227 112 c 128,-1,23
 105 242 105 242 105 501 c 0,24,25
 105 646 105 646 139 746.5 c 128,-1,26
 173 847 173 847 233 913 c 128,-1,27
 293 979 293 979 375 1011 c 128,-1,28
 457 1043 457 1043 552 1043 c 0,29,30
 646 1043 646 1043 717 1013 c 128,-1,31
 788 983 788 983 835 933.5 c 128,-1,32
 882 884 882 884 906.5 820 c 128,-1,33
 931 756 931 756 933 687 c 0,34,35
 933 666 933 666 931.5 634.5 c 128,-1,36
 930 603 930 603 927.5 576.5 c 128,-1,37
 925 550 925 550 922.5 528 c 128,-1,38
 920 506 920 506 917 496 c 1,39,-1
 296 496 l 1,40,-1
 296 460 l 2,41,42
 296 368 296 368 318 301 c 128,-1,43
 340 234 340 234 380.5 194.5 c 128,-1,44
 421 155 421 155 478 138.5 c 128,-1,45
 535 122 535 122 604 122 c 0,46,47
 661 122 661 122 712.5 128.5 c 128,-1,48
 764 135 764 135 804 143 c 0,49,50
 851 152 851 152 891 164 c 1,51,-1
 872 30 l 1,16,17
EndSplineSet
EndChar

StartChar: eight
Encoding: 56 56 108
Width: 1155
Flags: W
LayerCount: 2
Fore
SplineSet
123 345 m 0,0,1
 123 414 123 414 138 466.5 c 128,-1,2
 153 519 153 519 178 558 c 128,-1,3
 203 597 203 597 234 623 c 128,-1,4
 265 649 265 649 297 667.5 c 128,-1,5
 329 686 329 686 359 695.5 c 128,-1,6
 389 705 389 705 412 711 c 1,7,8
 363 723 363 723 319 748.5 c 128,-1,9
 275 774 275 774 242 811.5 c 128,-1,10
 209 849 209 849 189.5 899 c 128,-1,11
 170 949 170 949 170 1013 c 0,12,13
 170 1087 170 1087 194 1151 c 128,-1,14
 218 1215 218 1215 268 1263.5 c 128,-1,15
 318 1312 318 1312 395 1339.5 c 128,-1,16
 472 1367 472 1367 577 1367 c 0,17,18
 683 1367 683 1367 761 1339 c 128,-1,19
 839 1311 839 1311 889 1262.5 c 128,-1,20
 939 1214 939 1214 963.5 1150 c 128,-1,21
 988 1086 988 1086 988 1013 c 0,22,23
 988 948 988 948 966 897.5 c 128,-1,24
 944 847 944 847 908.5 810.5 c 128,-1,25
 873 774 873 774 827 748.5 c 128,-1,26
 781 723 781 723 733 711 c 1,27,28
 775 702 775 702 827 679.5 c 128,-1,29
 879 657 879 657 924.5 616 c 128,-1,30
 970 575 970 575 1000.5 508.5 c 128,-1,31
 1031 442 1031 442 1031 345 c 0,32,33
 1031 241 1031 241 991 170.5 c 128,-1,34
 951 100 951 100 886.5 56.5 c 128,-1,35
 822 13 822 13 740.5 -5.5 c 128,-1,36
 659 -24 659 -24 577 -24 c 0,37,38
 496 -24 496 -24 414.5 -5.5 c 128,-1,39
 333 13 333 13 268.5 56.5 c 128,-1,40
 204 100 204 100 163.5 170.5 c 128,-1,41
 123 241 123 241 123 345 c 0,0,1
579 785 m 1,42,43
 642 802 642 802 691 833 c 0,44,45
 712 846 712 846 732 864.5 c 128,-1,46
 752 883 752 883 768 906 c 128,-1,47
 784 929 784 929 793.5 958.5 c 128,-1,48
 803 988 803 988 803 1023 c 0,49,50
 803 1081 803 1081 785.5 1118.5 c 128,-1,51
 768 1156 768 1156 738 1179.5 c 128,-1,52
 708 1203 708 1203 667 1212.5 c 128,-1,53
 626 1222 626 1222 579 1222 c 0,54,55
 535 1222 535 1222 494 1212.5 c 128,-1,56
 453 1203 453 1203 422 1179.5 c 128,-1,57
 391 1156 391 1156 372.5 1118.5 c 128,-1,58
 354 1081 354 1081 354 1023 c 0,59,60
 354 988 354 988 363.5 958 c 128,-1,61
 373 928 373 928 389 905 c 128,-1,62
 405 882 405 882 425 863.5 c 128,-1,63
 445 845 445 845 466 832 c 0,64,65
 515 801 515 801 579 785 c 1,42,43
314 364 m 0,66,67
 314 297 314 297 333.5 251.5 c 128,-1,68
 353 206 353 206 387.5 178 c 128,-1,69
 422 150 422 150 470.5 138 c 128,-1,70
 519 126 519 126 577 126 c 0,71,72
 634 126 634 126 683.5 137.5 c 128,-1,73
 733 149 733 149 769 177 c 128,-1,74
 805 205 805 205 825.5 250.5 c 128,-1,75
 846 296 846 296 846 364 c 0,76,77
 846 407 846 407 834.5 443 c 128,-1,78
 823 479 823 479 804 506.5 c 128,-1,79
 785 534 785 534 761 556.5 c 128,-1,80
 737 579 737 579 712 594 c 0,81,82
 653 630 653 630 578 646 c 1,83,84
 504 628 504 628 446 592 c 0,85,86
 421 577 421 577 397.5 555 c 128,-1,87
 374 533 374 533 355.5 505 c 128,-1,88
 337 477 337 477 325.5 441.5 c 128,-1,89
 314 406 314 406 314 364 c 0,66,67
EndSplineSet
EndChar

StartChar: ellipsis
Encoding: 8230 8230 109
Width: 1187
Flags: W
LayerCount: 2
Fore
SplineSet
688 185 m 1,0,-1
 688 -4 l 1,1,-1
 495 -4 l 1,2,-1
 495 185 l 1,3,-1
 688 185 l 1,0,-1
1053 185 m 1,4,-1
 1053 -4 l 1,5,-1
 860 -4 l 1,6,-1
 860 185 l 1,7,-1
 1053 185 l 1,4,-1
324 185 m 1,8,-1
 324 -4 l 1,9,-1
 134 -4 l 1,10,-1
 134 185 l 1,11,-1
 324 185 l 1,8,-1
EndSplineSet
EndChar

StartChar: emdash
Encoding: 8212 8212 110
Width: 1235
Flags: W
LayerCount: 2
Fore
SplineSet
134 704 m 1,0,-1
 134 844 l 1,1,-1
 1100 844 l 1,2,-1
 1100 704 l 1,3,-1
 134 704 l 1,0,-1
EndSplineSet
EndChar

StartChar: endash
Encoding: 8211 8211 111
Width: 1046
Flags: W
LayerCount: 2
Fore
SplineSet
135 758 m 1,0,-1
 135 903 l 1,1,-1
 909 903 l 1,2,-1
 909 758 l 1,3,-1
 135 758 l 1,0,-1
EndSplineSet
EndChar

StartChar: equal
Encoding: 61 61 112
Width: 939
Flags: W
LayerCount: 2
Fore
SplineSet
159 615 m 1,0,-1
 779 615 l 1,1,-1
 779 487 l 1,2,-1
 159 487 l 1,3,-1
 159 615 l 1,0,-1
160 534 m 1,4,-1
 779 534 l 1,5,-1
 779 405 l 1,6,-1
 160 405 l 1,7,-1
 160 534 l 1,4,-1
EndSplineSet
EndChar

StartChar: exclam
Encoding: 33 33 113
Width: 523
Flags: W
LayerCount: 2
Fore
SplineSet
348 -14 m 1,0,-1
 173 -14 l 1,1,-1
 173 165 l 1,2,-1
 348 165 l 1,3,-1
 348 -14 l 1,0,-1
217 355 m 1,4,5
 212 426 212 426 204 540 c 0,6,7
 197 637 197 637 187 790.5 c 128,-1,8
 177 944 177 944 163 1162 c 0,9,10
 163 1169 163 1169 162.5 1184.5 c 128,-1,11
 162 1200 162 1200 161 1228.5 c 128,-1,12
 160 1257 160 1257 159.5 1300 c 128,-1,13
 159 1343 159 1343 158 1404 c 1,14,-1
 362 1404 l 1,15,16
 361 1343 361 1343 360 1300 c 128,-1,17
 359 1257 359 1257 358.5 1228.5 c 128,-1,18
 358 1200 358 1200 357.5 1184.5 c 128,-1,19
 357 1169 357 1169 357 1162 c 0,20,21
 343 944 343 944 333 790.5 c 128,-1,22
 323 637 323 637 316 540 c 0,23,24
 308 426 308 426 303 355 c 1,25,-1
 217 355 l 1,4,5
EndSplineSet
EndChar

StartChar: f
Encoding: 102 102 115
Width: 721
Flags: W
LayerCount: 2
Fore
SplineSet
229 0 m 1,0,-1
 229 927 l 1,1,-1
 53 927 l 1,2,-1
 53 1031 l 1,3,-1
 230 1031 l 1,4,-1
 230 1034 l 1,5,6
 232 1140 232 1140 249 1216.5 c 128,-1,7
 266 1293 266 1293 300.5 1342 c 128,-1,8
 335 1391 335 1391 388.5 1414 c 128,-1,9
 442 1437 442 1437 516 1437 c 0,10,11
 561 1437 561 1437 597.5 1431 c 128,-1,12
 634 1425 634 1425 660 1417 c 0,13,14
 690 1408 690 1408 713 1398 c 1,15,-1
 727 1278 l 1,16,17
 703 1285 703 1285 677 1291 c 0,18,19
 654 1296 654 1296 626 1300 c 128,-1,20
 598 1304 598 1304 569 1304 c 0,21,22
 524 1304 524 1304 494 1294.5 c 128,-1,23
 464 1285 464 1285 446 1260 c 128,-1,24
 428 1235 428 1235 420 1190 c 128,-1,25
 412 1145 412 1145 412 1075 c 2,26,-1
 412 1031 l 1,27,-1
 685 1031 l 1,28,-1
 685 927 l 1,29,-1
 412 927 l 1,30,-1
 412 0 l 1,31,-1
 229 0 l 1,0,-1
EndSplineSet
EndChar

StartChar: fi
Encoding: 64257 64257 116
Width: 1102
Flags: W
LayerCount: 2
Fore
SplineSet
760 0 m 1,0,-1
 760 917 l 1,1,-1
 411 917 l 1,2,-1
 411 0 l 1,3,-1
 228 0 l 1,4,-1
 228 917 l 1,5,-1
 52 917 l 1,6,-1
 52 1021 l 1,7,-1
 229 1021 l 1,8,-1
 229 1068 l 1,9,10
 231 1174 231 1174 248.5 1250.5 c 128,-1,11
 266 1327 266 1327 300.5 1376 c 128,-1,12
 335 1425 335 1425 388.5 1448 c 128,-1,13
 442 1471 442 1471 516 1471 c 0,14,15
 559 1471 559 1471 593.5 1465 c 128,-1,16
 628 1459 628 1459 652 1451 c 0,17,18
 680 1442 680 1442 702 1432 c 1,19,-1
 710 1312 l 1,20,21
 689 1319 689 1319 666 1325 c 0,22,23
 646 1330 646 1330 620.5 1334 c 128,-1,24
 595 1338 595 1338 569 1338 c 0,25,26
 524 1338 524 1338 493.5 1328.5 c 128,-1,27
 463 1319 463 1319 445 1294 c 128,-1,28
 427 1269 427 1269 419 1224 c 128,-1,29
 411 1179 411 1179 411 1109 c 2,30,-1
 411 1021 l 1,31,-1
 944 1021 l 1,32,-1
 944 0 l 1,33,-1
 760 0 l 1,0,-1
947 1369 m 1,34,-1
 947 1187 l 1,35,-1
 755 1187 l 1,36,-1
 755 1369 l 1,37,-1
 947 1369 l 1,34,-1
EndSplineSet
EndChar

StartChar: i
Encoding: 105 105 117
Width: 500
Flags: W
LayerCount: 2
Fore
SplineSet
158 0 m 1,0,-1
 158 1031 l 1,1,-1
 342 1031 l 1,2,-1
 342 0 l 1,3,-1
 158 0 l 1,0,-1
346 1408 m 1,4,-1
 346 1226 l 1,5,-1
 153 1226 l 1,6,-1
 153 1408 l 1,7,-1
 346 1408 l 1,4,-1
EndSplineSet
EndChar

StartChar: five
Encoding: 53 53 118
Width: 1028
Flags: W
LayerCount: 2
Fore
SplineSet
197 667 m 0,0,1
 196 667 196 667 188 675.5 c 128,-1,2
 180 684 180 684 170 694 c 2,3,-1
 143 721 l 1,4,-1
 163 1339 l 1,5,-1
 839 1339 l 1,6,-1
 824 1209 l 1,7,-1
 319 1209 l 1,8,-1
 301 809 l 1,9,10
 332 815 332 815 367 820 c 0,11,12
 397 825 397 825 435.5 828.5 c 128,-1,13
 474 832 474 832 516 832 c 0,14,15
 602 832 602 832 676 808.5 c 128,-1,16
 750 785 750 785 804 735 c 128,-1,17
 858 685 858 685 889 607.5 c 128,-1,18
 920 530 920 530 920 425 c 0,19,20
 920 314 920 314 897.5 229.5 c 128,-1,21
 875 145 875 145 821 88.5 c 128,-1,22
 767 32 767 32 678 4 c 128,-1,23
 589 -24 589 -24 457 -24 c 0,24,25
 398 -24 398 -24 346 -16 c 128,-1,26
 294 -8 294 -8 254 3 c 0,27,28
 207 15 207 15 168 31 c 1,29,-1
 149 183 l 1,30,31
 191 169 191 169 240 157 c 0,32,33
 282 147 282 147 336 139.5 c 128,-1,34
 390 132 390 132 450 132 c 0,35,36
 535 132 535 132 592.5 147 c 128,-1,37
 650 162 650 162 684.5 195.5 c 128,-1,38
 719 229 719 229 733.5 285 c 128,-1,39
 748 341 748 341 748 424 c 0,40,41
 748 481 748 481 731.5 529 c 128,-1,42
 715 577 715 577 682 612 c 128,-1,43
 649 647 649 647 599 668 c 128,-1,44
 549 689 549 689 482 689 c 0,45,46
 396 689 396 689 320 682 c 128,-1,47
 244 675 244 675 197 667 c 0,0,1
EndSplineSet
EndChar

StartChar: l
Encoding: 108 108 120
Width: 500
Flags: W
LayerCount: 2
Fore
SplineSet
158 1419 m 1,0,-1
 342 1437 l 1,1,-1
 342 0 l 1,2,-1
 158 0 l 1,3,-1
 158 1419 l 1,0,-1
EndSplineSet
EndChar

StartChar: florin
Encoding: 402 402 121
Width: 771
Flags: W
LayerCount: 2
Fore
SplineSet
110 0 m 1,0,-1
 270 886 l 1,1,-1
 93 886 l 1,2,-1
 112 991 l 1,3,-1
 289 991 l 1,4,5
 313 1125 313 1125 345.5 1215 c 128,-1,6
 378 1305 378 1305 423.5 1359 c 128,-1,7
 469 1413 469 1413 528.5 1436 c 128,-1,8
 588 1459 588 1459 666 1459 c 0,9,10
 709 1459 709 1459 742 1453 c 128,-1,11
 775 1447 775 1447 798 1439 c 0,12,13
 824 1430 824 1430 845 1419 c 1,14,-1
 839 1296 l 1,15,16
 817 1303 817 1303 791 1309 c 0,17,18
 769 1314 769 1314 742 1318 c 128,-1,19
 715 1322 715 1322 686 1322 c 0,20,21
 639 1322 639 1322 607 1312.5 c 128,-1,22
 575 1303 575 1303 552 1277.5 c 128,-1,23
 529 1252 529 1252 513.5 1207 c 128,-1,24
 498 1162 498 1162 485 1092 c 1,25,-1
 468 991 l 1,26,-1
 744 991 l 1,27,-1
 725 886 l 1,28,-1
 449 886 l 1,29,-1
 290 0 l 1,30,-1
 110 0 l 1,0,-1
EndSplineSet
EndChar

StartChar: four
Encoding: 52 52 122
Width: 1082
Flags: W
LayerCount: 2
Fore
SplineSet
570 1335 m 1,0,-1
 836 1328 l 1,1,-1
 837 397 l 1,2,-1
 1004 397 l 1,3,-1
 1004 257 l 1,4,-1
 837 257 l 1,5,-1
 837 -14 l 1,6,-1
 662 -19 l 1,7,-1
 662 257 l 1,8,-1
 84 257 l 1,9,-1
 38 379 l 1,10,-1
 570 1335 l 1,0,-1
662 397 m 1,11,-1
 662 839 l 1,12,-1
 672 1217 l 1,13,-1
 488 853 l 1,14,-1
 233 393 l 1,15,-1
 424 397 l 1,16,-1
 662 397 l 1,11,-1
EndSplineSet
EndChar

StartChar: fraction
Encoding: 8260 8260 123
Width: 832
Flags: W
LayerCount: 2
Fore
SplineSet
827 1381 m 1,0,-1
 146 13 l 1,1,-1
 7 67 l 1,2,-1
 686 1432 l 1,3,-1
 827 1381 l 1,0,-1
EndSplineSet
EndChar

StartChar: slash
Encoding: 47 47 124
Width: 698
Flags: W
LayerCount: 2
Fore
SplineSet
621 1451 m 1,0,-1
 247 -202 l 1,1,-1
 79 -164 l 1,2,-1
 448 1490 l 1,3,-1
 621 1451 l 1,0,-1
EndSplineSet
EndChar

StartChar: g
Encoding: 103 103 125
Width: 1132
Flags: W
LayerCount: 2
Fore
SplineSet
286 -283 m 1,0,1
 320 -295 320 -295 360 -304 c 0,2,3
 394 -312 394 -312 438.5 -318.5 c 128,-1,4
 483 -325 483 -325 534 -325 c 0,5,6
 609 -325 609 -325 657.5 -309.5 c 128,-1,7
 706 -294 706 -294 735 -254.5 c 128,-1,8
 764 -215 764 -215 775.5 -147 c 128,-1,9
 787 -79 787 -79 788 39 c 1,10,-1
 788 72 l 1,11,12
 756 52 756 52 714 36 c 0,13,14
 678 22 678 22 626 11 c 128,-1,15
 574 0 574 0 507 0 c 0,16,17
 430 0 430 0 358.5 28.5 c 128,-1,18
 287 57 287 57 231.5 118.5 c 128,-1,19
 176 180 176 180 142.5 277.5 c 128,-1,20
 109 375 109 375 109 509 c 0,21,22
 109 649 109 649 136 750 c 128,-1,23
 163 851 163 851 214.5 916 c 128,-1,24
 266 981 266 981 340 1012 c 128,-1,25
 414 1043 414 1043 508 1043 c 0,26,27
 573 1043 573 1043 624.5 1030 c 128,-1,28
 676 1017 676 1017 715 999 c 128,-1,29
 754 981 754 981 780 962.5 c 128,-1,30
 806 944 806 944 821 932 c 1,31,-1
 854 1031 l 1,32,-1
 974 1031 l 1,33,-1
 974 67 l 2,34,35
 974 -79 974 -79 953.5 -179.5 c 128,-1,36
 933 -280 933 -280 884 -342.5 c 128,-1,37
 835 -405 835 -405 753 -433 c 128,-1,38
 671 -461 671 -461 549 -461 c 0,39,40
 489 -461 489 -461 443.5 -454 c 128,-1,41
 398 -447 398 -447 367 -439 c 0,42,43
 331 -429 331 -429 306 -417 c 1,44,-1
 286 -283 l 1,0,1
530 140 m 1,45,-1
 542 140 l 1,46,47
 600 141 600 141 645.5 150.5 c 128,-1,48
 691 160 691 160 723 171 c 0,49,50
 760 184 760 184 788 200 c 1,51,-1
 788 822 l 1,52,53
 755 843 755 843 715 861 c 0,54,55
 681 876 681 876 635.5 888.5 c 128,-1,56
 590 901 590 901 536 901 c 0,57,58
 468 901 468 901 422 873 c 128,-1,59
 376 845 376 845 347.5 795 c 128,-1,60
 319 745 319 745 306.5 675 c 128,-1,61
 294 605 294 605 294 520 c 0,62,63
 294 434 294 434 308 363 c 128,-1,64
 322 292 322 292 351 242.5 c 128,-1,65
 380 193 380 193 424 167 c 128,-1,66
 468 141 468 141 530 140 c 1,45,-1
EndSplineSet
EndChar

StartChar: germandbls
Encoding: 223 223 126
Width: 1307
Flags: W
LayerCount: 2
Fore
SplineSet
544 1402 m 0,0,1
 482 1402 482 1402 443 1381 c 128,-1,2
 404 1360 404 1360 382 1322 c 128,-1,3
 360 1284 360 1284 352.5 1230.5 c 128,-1,4
 345 1177 345 1177 345 1112 c 2,5,-1
 345 -4 l 1,6,-1
 158 -4 l 1,7,-1
 158 1110 l 2,8,9
 158 1331 158 1331 254 1440 c 128,-1,10
 350 1549 350 1549 544 1549 c 0,11,12
 636 1549 636 1549 700.5 1533.5 c 128,-1,13
 765 1518 765 1518 807.5 1491.5 c 128,-1,14
 850 1465 850 1465 873.5 1428.5 c 128,-1,15
 897 1392 897 1392 906 1349.5 c 128,-1,16
 915 1307 915 1307 912 1260.5 c 128,-1,17
 909 1214 909 1214 900 1168 c 1,18,19
 900 1159 900 1159 895 1140.5 c 128,-1,20
 890 1122 890 1122 882 1098 c 128,-1,21
 874 1074 874 1074 863.5 1045.5 c 128,-1,22
 853 1017 853 1017 843 989 c 0,23,24
 818 923 818 923 787 844 c 1,25,26
 873 838 873 838 952 801 c 128,-1,27
 1031 764 1031 764 1091 699.5 c 128,-1,28
 1151 635 1151 635 1187 544 c 128,-1,29
 1223 453 1223 453 1223 339 c 0,30,31
 1223 216 1223 216 1190.5 124.5 c 128,-1,32
 1158 33 1158 33 1101 -28 c 128,-1,33
 1044 -89 1044 -89 966 -119 c 128,-1,34
 888 -149 888 -149 796 -147 c 0,35,36
 748 -146 748 -146 709 -140 c 128,-1,37
 670 -134 670 -134 642 -126 c 0,38,39
 609 -117 609 -117 584 -107 c 1,40,-1
 564 34 l 1,41,42
 589 23 589 23 620 15 c 0,43,44
 646 8 646 8 682.5 2.5 c 128,-1,45
 719 -3 719 -3 764 -3 c 0,46,47
 839 -3 839 -3 890 24.5 c 128,-1,48
 941 52 941 52 972.5 100 c 128,-1,49
 1004 148 1004 148 1017.5 213.5 c 128,-1,50
 1031 279 1031 279 1031 356 c 0,51,52
 1031 467 1031 467 1000 542.5 c 128,-1,53
 969 618 969 618 911.5 664 c 128,-1,54
 854 710 854 710 771 730.5 c 128,-1,55
 688 751 688 751 584 752 c 1,56,57
 622 857 622 857 653 942 c 0,58,59
 666 978 666 978 678.5 1013.5 c 128,-1,60
 691 1049 691 1049 701 1078 c 128,-1,61
 711 1107 711 1107 717 1127 c 128,-1,62
 723 1147 723 1147 723 1153 c 1,63,64
 736 1201 736 1201 738.5 1246 c 128,-1,65
 741 1291 741 1291 723.5 1325.5 c 128,-1,66
 706 1360 706 1360 663.5 1381 c 128,-1,67
 621 1402 621 1402 544 1402 c 0,0,1
EndSplineSet
EndChar

StartChar: greater
Encoding: 62 62 127
Width: 988
Flags: W
LayerCount: 2
Fore
SplineSet
909 506 m 1,0,-1
 181 138 l 1,1,-1
 132 301 l 1,2,-1
 702 561 l 1,3,-1
 132 823 l 1,4,-1
 181 987 l 1,5,-1
 909 623 l 1,6,-1
 909 506 l 1,0,-1
EndSplineSet
EndChar

StartChar: greaterequal
Encoding: 8805 8805 128
Width: 1007
Flags: W
LayerCount: 2
Fore
SplineSet
155 -6 m 1,0,-1
 155 121 l 1,1,-1
 880 121 l 1,2,-1
 880 -6 l 1,3,-1
 155 -6 l 1,0,-1
158 280 m 1,4,-1
 158 446 l 1,5,6
 169 451 169 451 207 466 c 128,-1,7
 245 481 245 481 297 501.5 c 128,-1,8
 349 522 349 522 407.5 545 c 128,-1,9
 466 568 466 568 517.5 588.5 c 128,-1,10
 569 609 569 609 607 624 c 128,-1,11
 645 639 645 639 656 643 c 1,12,13
 634 652 634 652 594.5 667.5 c 128,-1,14
 555 683 555 683 507.5 702 c 128,-1,15
 460 721 460 721 407.5 741.5 c 128,-1,16
 355 762 355 762 307 780.5 c 128,-1,17
 259 799 259 799 219.5 815 c 128,-1,18
 180 831 180 831 158 840 c 1,19,-1
 158 1008 l 1,20,21
 165 1005 165 1005 198 990.5 c 128,-1,22
 231 976 231 976 280 954 c 128,-1,23
 329 932 329 932 390 905 c 128,-1,24
 451 878 451 878 514 850 c 128,-1,25
 577 822 577 822 638 795 c 128,-1,26
 699 768 699 768 748.5 746.5 c 128,-1,27
 798 725 798 725 831 710 c 128,-1,28
 864 695 864 695 872 692 c 1,29,-1
 872 600 l 1,30,-1
 158 280 l 1,4,-1
EndSplineSet
EndChar

StartChar: guillemotleft
Encoding: 171 171 129
Width: 1150
Flags: W
LayerCount: 2
Fore
SplineSet
603 189 m 1,0,-1
 529 76 l 1,1,-1
 58 552 l 1,2,-1
 529 1026 l 1,3,-1
 605 914 l 1,4,-1
 243 552 l 1,5,-1
 603 189 l 1,0,-1
964 1011 m 1,6,-1
 1039 900 l 1,7,-1
 666 552 l 1,8,-1
 1040 205 l 1,9,-1
 966 93 l 1,10,-1
 478 552 l 1,11,-1
 964 1011 l 1,6,-1
EndSplineSet
EndChar

StartChar: guillemotright
Encoding: 187 187 130
Width: 1150
Flags: W
LayerCount: 2
Fore
SplineSet
545 914 m 1,0,-1
 620 1026 l 1,1,-1
 1092 552 l 1,2,-1
 620 76 l 1,3,-1
 546 189 l 1,4,-1
 907 552 l 1,5,-1
 545 914 l 1,0,-1
185 93 m 1,6,-1
 110 205 l 1,7,-1
 483 552 l 1,8,-1
 111 900 l 1,9,-1
 186 1011 l 1,10,-1
 673 552 l 1,11,-1
 185 93 l 1,6,-1
EndSplineSet
EndChar

StartChar: guilsinglleft
Encoding: 8249 8249 131
Width: 709
Flags: W
LayerCount: 2
Fore
SplineSet
603 189 m 1,0,-1
 529 76 l 1,1,-1
 57 552 l 1,2,-1
 529 1026 l 1,3,-1
 604 914 l 1,4,-1
 242 552 l 1,5,-1
 603 189 l 1,0,-1
EndSplineSet
EndChar

StartChar: guilsinglright
Encoding: 8250 8250 132
Width: 710
Flags: W
LayerCount: 2
Fore
SplineSet
105 914 m 1,0,-1
 181 1026 l 1,1,-1
 652 552 l 1,2,-1
 181 76 l 1,3,-1
 106 189 l 1,4,-1
 467 552 l 1,5,-1
 105 914 l 1,0,-1
EndSplineSet
EndChar

StartChar: h
Encoding: 104 104 133
Width: 1161
Flags: W
LayerCount: 2
Fore
SplineSet
158 1419 m 1,0,-1
 343 1437 l 1,1,-1
 343 925 l 1,2,3
 384 957 384 957 424 979.5 c 128,-1,4
 464 1002 464 1002 506 1016 c 128,-1,5
 548 1030 548 1030 592.5 1036.5 c 128,-1,6
 637 1043 637 1043 688 1043 c 0,7,8
 775 1043 775 1043 836.5 1017.5 c 128,-1,9
 898 992 898 992 937 935.5 c 128,-1,10
 976 879 976 879 993.5 790.5 c 128,-1,11
 1011 702 1011 702 1011 576 c 2,12,-1
 1011 0 l 1,13,-1
 826 0 l 1,14,-1
 826 562 l 2,15,16
 826 664 826 664 814 730 c 128,-1,17
 802 796 802 796 778.5 834 c 128,-1,18
 755 872 755 872 720.5 887 c 128,-1,19
 686 902 686 902 641 902 c 0,20,21
 595 902 595 902 549 887.5 c 128,-1,22
 503 873 503 873 463.5 854.5 c 128,-1,23
 424 836 424 836 392.5 818.5 c 128,-1,24
 361 801 361 801 343 795 c 1,25,-1
 343 0 l 1,26,-1
 158 0 l 1,27,-1
 158 1419 l 1,0,-1
EndSplineSet
EndChar

StartChar: hungarumlaut
Encoding: 733 733 134
Width: 714
Flags: W
LayerCount: 2
Fore
SplineSet
466 1687 m 1,0,-1
 660 1687 l 1,1,-1
 458 1183 l 1,2,-1
 358 1183 l 1,3,-1
 466 1687 l 1,0,-1
174 1687 m 1,4,-1
 359 1687 l 1,5,-1
 222 1183 l 1,6,-1
 118 1183 l 1,7,-1
 174 1687 l 1,4,-1
EndSplineSet
EndChar

StartChar: hyphen
Encoding: 45 45 135
Width: 805
Flags: W
LayerCount: 2
Fore
SplineSet
146 448 m 1,0,-1
 146 578 l 1,1,-1
 659 578 l 1,2,-1
 659 448 l 1,3,-1
 146 448 l 1,0,-1
EndSplineSet
EndChar

StartChar: infinity
Encoding: 8734 8734 140
Width: 1972
Flags: W
LayerCount: 2
Fore
SplineSet
911 643 m 1,0,1
 896 660 896 660 873.5 689.5 c 128,-1,2
 851 719 851 719 822 753 c 128,-1,3
 793 787 793 787 759 821.5 c 128,-1,4
 725 856 725 856 687 884.5 c 128,-1,5
 649 913 649 913 608.5 931 c 128,-1,6
 568 949 568 949 526 949 c 0,7,8
 470 949 470 949 422.5 930.5 c 128,-1,9
 375 912 375 912 340 874 c 128,-1,10
 305 836 305 836 285.5 778.5 c 128,-1,11
 266 721 266 721 266 644 c 0,12,13
 266 564 266 564 285.5 505.5 c 128,-1,14
 305 447 305 447 339 408.5 c 128,-1,15
 373 370 373 370 420 351 c 128,-1,16
 467 332 467 332 523 332 c 0,17,18
 571 332 571 332 613.5 349 c 128,-1,19
 656 366 656 366 693 393 c 128,-1,20
 730 420 730 420 762 454 c 128,-1,21
 794 488 794 488 821 522.5 c 128,-1,22
 848 557 848 557 870.5 589 c 128,-1,23
 893 621 893 621 911 643 c 1,0,1
1703 645 m 0,24,25
 1703 722 1703 722 1681.5 779 c 128,-1,26
 1660 836 1660 836 1624 873.5 c 128,-1,27
 1588 911 1588 911 1540.5 929.5 c 128,-1,28
 1493 948 1493 948 1440 948 c 0,29,30
 1396 948 1396 948 1356 931 c 128,-1,31
 1316 914 1316 914 1280 887.5 c 128,-1,32
 1244 861 1244 861 1212.5 827 c 128,-1,33
 1181 793 1181 793 1153.5 759 c 128,-1,34
 1126 725 1126 725 1103.5 693.5 c 128,-1,35
 1081 662 1081 662 1064 641 c 1,36,37
 1082 619 1082 619 1105 588 c 128,-1,38
 1128 557 1128 557 1156 523.5 c 128,-1,39
 1184 490 1184 490 1216.5 457 c 128,-1,40
 1249 424 1249 424 1285 397.5 c 128,-1,41
 1321 371 1321 371 1360 355 c 128,-1,42
 1399 339 1399 339 1440 339 c 0,43,44
 1496 339 1496 339 1544 357.5 c 128,-1,45
 1592 376 1592 376 1627.5 414 c 128,-1,46
 1663 452 1663 452 1683 509.5 c 128,-1,47
 1703 567 1703 567 1703 645 c 0,24,25
1842 645 m 0,48,49
 1842 546 1842 546 1812.5 466 c 128,-1,50
 1783 386 1783 386 1731 330.5 c 128,-1,51
 1679 275 1679 275 1608 245 c 128,-1,52
 1537 215 1537 215 1453 215 c 0,53,54
 1370 215 1370 215 1308.5 239 c 128,-1,55
 1247 263 1247 263 1195.5 306 c 128,-1,56
 1144 349 1144 349 1095.5 408.5 c 128,-1,57
 1047 468 1047 468 991 538 c 1,58,59
 934 466 934 466 882.5 406.5 c 128,-1,60
 831 347 831 347 776 304 c 128,-1,61
 721 261 721 261 659 237 c 128,-1,62
 597 213 597 213 520 213 c 0,63,64
 432 213 432 213 360 243 c 128,-1,65
 288 273 288 273 236.5 328.5 c 128,-1,66
 185 384 185 384 157 464 c 128,-1,67
 129 544 129 544 129 644 c 0,68,69
 129 736 129 736 157 814 c 128,-1,70
 185 892 185 892 236 949 c 128,-1,71
 287 1006 287 1006 358.5 1038 c 128,-1,72
 430 1070 430 1070 516 1070 c 0,73,74
 599 1070 599 1070 662 1045 c 128,-1,75
 725 1020 725 1020 778 976.5 c 128,-1,76
 831 933 831 933 880.5 873.5 c 128,-1,77
 930 814 930 814 987 745 c 1,78,79
 1045 818 1045 818 1094 878 c 128,-1,80
 1143 938 1143 938 1195 981 c 128,-1,81
 1247 1024 1247 1024 1308 1048 c 128,-1,82
 1369 1072 1369 1072 1450 1072 c 0,83,84
 1539 1072 1539 1072 1611.5 1040.5 c 128,-1,85
 1684 1009 1684 1009 1735 952 c 128,-1,86
 1786 895 1786 895 1814 816.5 c 128,-1,87
 1842 738 1842 738 1842 645 c 0,48,49
EndSplineSet
EndChar

StartChar: integral
Encoding: 8747 8747 141
Width: 882
Flags: W
LayerCount: 2
Fore
SplineSet
526 886 m 1,0,-1
 526 111 l 2,1,2
 526 6 526 6 512 -83.5 c 128,-1,3
 498 -173 498 -173 459.5 -236 c 128,-1,4
 421 -299 421 -299 352.5 -330.5 c 128,-1,5
 284 -362 284 -362 175 -352 c 0,6,7
 145 -350 145 -350 121 -344 c 128,-1,8
 97 -338 97 -338 80 -332 c 0,9,10
 60 -325 60 -325 45 -317 c 1,11,-1
 28 -195 l 1,12,13
 51 -203 51 -203 77 -208 c 0,14,15
 99 -213 99 -213 127.5 -216.5 c 128,-1,16
 156 -220 156 -220 185 -220 c 0,17,18
 232 -220 232 -220 263 -210.5 c 128,-1,19
 294 -201 294 -201 312.5 -175.5 c 128,-1,20
 331 -150 331 -150 338.5 -105.5 c 128,-1,21
 346 -61 346 -61 346 9 c 2,22,-1
 345 886 l 1,23,-1
 168 886 l 1,24,-1
 168 991 l 1,25,-1
 345 991 l 1,26,27
 348 1106 348 1106 362.5 1196 c 128,-1,28
 377 1286 377 1286 415.5 1347 c 128,-1,29
 454 1408 454 1408 521 1436 c 128,-1,30
 588 1464 588 1464 696 1454 c 0,31,32
 725 1452 725 1452 749.5 1446.5 c 128,-1,33
 774 1441 774 1441 791 1435 c 0,34,35
 811 1428 811 1428 826 1419 c 1,36,-1
 842 1296 l 1,37,38
 819 1303 819 1303 793 1309 c 0,39,40
 771 1314 771 1314 743 1318 c 128,-1,41
 715 1322 715 1322 686 1322 c 0,42,43
 641 1322 641 1322 610 1312.5 c 128,-1,44
 579 1303 579 1303 560 1277.5 c 128,-1,45
 541 1252 541 1252 533 1207 c 128,-1,46
 525 1162 525 1162 525 1092 c 2,47,-1
 525 991 l 1,48,-1
 799 991 l 1,49,-1
 799 886 l 1,50,-1
 526 886 l 1,0,-1
EndSplineSet
EndChar

StartChar: j
Encoding: 106 106 142
Width: 500
Flags: W
LayerCount: 2
Fore
SplineSet
343 1031 m 1,0,-1
 343 133 l 2,1,2
 343 52 343 52 325.5 -15.5 c 128,-1,3
 308 -83 308 -83 268 -139.5 c 128,-1,4
 228 -196 228 -196 163 -242.5 c 128,-1,5
 98 -289 98 -289 3 -326 c 1,6,-1
 -52 -203 l 1,7,8
 7 -170 7 -170 47.5 -137.5 c 128,-1,9
 88 -105 88 -105 113 -64.5 c 128,-1,10
 138 -24 138 -24 149 28 c 128,-1,11
 160 80 160 80 160 152 c 2,12,-1
 160 1031 l 1,13,-1
 343 1031 l 1,0,-1
347 1408 m 1,14,-1
 347 1226 l 1,15,-1
 155 1226 l 1,16,-1
 155 1408 l 1,17,-1
 347 1408 l 1,14,-1
EndSplineSet
EndChar

StartChar: k
Encoding: 107 107 143
Width: 1053
Flags: W
LayerCount: 2
Fore
SplineSet
1027 0 m 1,0,-1
 841 0 l 1,1,-1
 439 457 l 1,2,-1
 343 373 l 1,3,-1
 343 0 l 1,4,-1
 158 0 l 1,5,-1
 158 1419 l 1,6,-1
 343 1437 l 1,7,-1
 343 560 l 1,8,-1
 808 1031 l 1,9,-1
 999 1031 l 1,10,-1
 999 997 l 1,11,-1
 559 550 l 1,12,-1
 1027 35 l 1,13,-1
 1027 0 l 1,0,-1
EndSplineSet
EndChar

StartChar: less
Encoding: 60 60 144
Width: 989
Flags: W
LayerCount: 2
Fore
SplineSet
79 623 m 1,0,-1
 808 987 l 1,1,-1
 857 823 l 1,2,-1
 285 561 l 1,3,-1
 857 301 l 1,4,-1
 808 138 l 1,5,-1
 79 506 l 1,6,-1
 79 623 l 1,0,-1
EndSplineSet
EndChar

StartChar: lessequal
Encoding: 8804 8804 145
Width: 1007
Flags: W
LayerCount: 2
Fore
SplineSet
127 -6 m 1,0,-1
 127 121 l 1,1,-1
 852 121 l 1,2,-1
 852 -6 l 1,3,-1
 127 -6 l 1,0,-1
849 280 m 1,4,5
 841 283 841 283 808 298 c 128,-1,6
 775 313 775 313 726 335 c 128,-1,7
 677 357 677 357 616 384 c 128,-1,8
 555 411 555 411 492 439.5 c 128,-1,9
 429 468 429 468 368 495.5 c 128,-1,10
 307 523 307 523 258 545 c 128,-1,11
 209 567 209 567 175.5 582 c 128,-1,12
 142 597 142 597 135 600 c 1,13,-1
 135 692 l 1,14,15
 142 695 142 695 175.5 710 c 128,-1,16
 209 725 209 725 258 746.5 c 128,-1,17
 307 768 307 768 368 795 c 128,-1,18
 429 822 429 822 492 850 c 128,-1,19
 555 878 555 878 616 905 c 128,-1,20
 677 932 677 932 726 954 c 128,-1,21
 775 976 775 976 808 990.5 c 128,-1,22
 841 1005 841 1005 849 1008 c 1,23,-1
 849 840 l 1,24,25
 827 831 827 831 787.5 815.5 c 128,-1,26
 748 800 748 800 700.5 781 c 128,-1,27
 653 762 653 762 600.5 741.5 c 128,-1,28
 548 721 548 721 500.5 702 c 128,-1,29
 453 683 453 683 413.5 667.5 c 128,-1,30
 374 652 374 652 352 643 c 1,31,32
 363 639 363 639 401 624 c 128,-1,33
 439 609 439 609 490.5 588.5 c 128,-1,34
 542 568 542 568 600.5 545 c 128,-1,35
 659 522 659 522 711 501.5 c 128,-1,36
 763 481 763 481 800.5 465.5 c 128,-1,37
 838 450 838 450 849 446 c 1,38,-1
 849 280 l 1,4,5
EndSplineSet
EndChar

StartChar: logicalnot
Encoding: 172 172 146
Width: 1386
Flags: W
LayerCount: 2
Fore
SplineSet
1025 119 m 1,0,-1
 1025 692 l 1,1,-1
 104 692 l 1,2,-1
 104 836 l 1,3,-1
 1205 836 l 1,4,-1
 1205 119 l 1,5,-1
 1025 119 l 1,0,-1
EndSplineSet
EndChar

StartChar: lozenge
Encoding: 9674 9674 147
Width: 978
Flags: W
LayerCount: 2
Fore
SplineSet
235 554 m 1,0,-1
 489 101 l 1,1,-1
 742 554 l 1,2,-1
 489 1001 l 1,3,-1
 235 554 l 1,0,-1
391 1119 m 1,4,-1
 583 1119 l 1,5,-1
 922 554 l 1,6,-1
 587 -6 l 1,7,-1
 387 -6 l 1,8,-1
 56 554 l 1,9,-1
 391 1119 l 1,4,-1
EndSplineSet
EndChar

StartChar: m
Encoding: 109 109 148
Width: 1692
Flags: W
LayerCount: 2
Fore
SplineSet
1266 1043 m 0,0,1
 1408 1043 1408 1043 1475 943.5 c 128,-1,2
 1542 844 1542 844 1542 642 c 2,3,-1
 1542 0 l 1,4,-1
 1356 0 l 1,5,-1
 1356 562 l 2,6,7
 1356 654 1356 654 1349 718.5 c 128,-1,8
 1342 783 1342 783 1325.5 823.5 c 128,-1,9
 1309 864 1309 864 1281 882.5 c 128,-1,10
 1253 901 1253 901 1211 901 c 0,11,12
 1176 901 1176 901 1133 891 c 128,-1,13
 1090 881 1090 881 1050 867 c 128,-1,14
 1010 853 1010 853 978.5 836.5 c 128,-1,15
 947 820 947 820 935 808 c 1,16,17
 938 787 938 787 942 754 c 0,18,19
 945 725 945 725 947.5 680.5 c 128,-1,20
 950 636 950 636 950 573 c 2,21,-1
 950 0 l 1,22,-1
 764 0 l 1,23,-1
 764 597 l 2,24,25
 764 688 764 688 757.5 747 c 128,-1,26
 751 806 751 806 736 840.5 c 128,-1,27
 721 875 721 875 695.5 888 c 128,-1,28
 670 901 670 901 632 901 c 0,29,30
 588 901 588 901 546 891.5 c 128,-1,31
 504 882 504 882 466.5 868 c 128,-1,32
 429 854 429 854 397.5 837.5 c 128,-1,33
 366 821 366 821 343 808 c 1,34,-1
 343 0 l 1,35,-1
 158 0 l 1,36,-1
 158 1031 l 1,37,-1
 287 1043 l 1,38,-1
 314 922 l 1,39,40
 394 981 394 981 481.5 1012 c 128,-1,41
 569 1043 569 1043 669 1043 c 256,42,43
 769 1043 769 1043 826.5 1010.5 c 128,-1,44
 884 978 884 978 907 919 c 1,45,46
 938 945 938 945 974.5 968 c 128,-1,47
 1011 991 1011 991 1055 1007.5 c 128,-1,48
 1099 1024 1099 1024 1151 1033.5 c 128,-1,49
 1203 1043 1203 1043 1266 1043 c 0,0,1
EndSplineSet
EndChar

StartChar: macron
Encoding: 175 175 149
Width: 890
Flags: W
LayerCount: 2
Fore
SplineSet
150 1185 m 1,0,-1
 150 1319 l 1,1,-1
 741 1319 l 1,2,-1
 741 1185 l 1,3,-1
 150 1185 l 1,0,-1
EndSplineSet
EndChar

StartChar: mu
Encoding: 181 181 150
Width: 1161
Flags: W
LayerCount: 2
Fore
SplineSet
1020 3 m 1,0,-1
 887 -8 l 1,1,-1
 862 132 l 1,2,3
 827 87 827 87 779 52 c 0,4,5
 737 22 737 22 676 -3 c 128,-1,6
 615 -28 615 -28 534 -28 c 0,7,8
 489 -28 489 -28 454 -16.5 c 128,-1,9
 419 -5 419 -5 393.5 15 c 128,-1,10
 368 35 368 35 352 62 c 128,-1,11
 336 89 336 89 330 120 c 1,12,-1
 326 -300 l 1,13,-1
 171 -300 l 1,14,-1
 171 1019 l 1,15,-1
 354 1019 l 1,16,-1
 354 435 l 2,17,18
 354 348 354 348 364 287 c 128,-1,19
 374 226 374 226 397 187 c 128,-1,20
 420 148 420 148 457.5 130.5 c 128,-1,21
 495 113 495 113 551 113 c 0,22,23
 614 113 614 113 665.5 131 c 128,-1,24
 717 149 717 149 755 172 c 0,25,26
 799 198 799 198 835 231 c 1,27,-1
 835 1019 l 1,28,-1
 1020 1019 l 1,29,-1
 1020 3 l 1,0,-1
EndSplineSet
EndChar

StartChar: n
Encoding: 110 110 151
Width: 1156
Flags: W
LayerCount: 2
Fore
SplineSet
158 1031 m 1,0,-1
 287 1043 l 1,1,-1
 314 922 l 1,2,3
 338 940 338 940 373.5 961.5 c 128,-1,4
 409 983 409 983 454.5 1001 c 128,-1,5
 500 1019 500 1019 555.5 1031 c 128,-1,6
 611 1043 611 1043 674 1043 c 0,7,8
 753 1043 753 1043 814.5 1020.5 c 128,-1,9
 876 998 876 998 919 948.5 c 128,-1,10
 962 899 962 899 984.5 819 c 128,-1,11
 1007 739 1007 739 1007 624 c 2,12,-1
 1007 0 l 1,13,-1
 822 0 l 1,14,-1
 822 584 l 2,15,16
 822 666 822 666 813 726 c 128,-1,17
 804 786 804 786 783 825 c 128,-1,18
 762 864 762 864 726.5 882.5 c 128,-1,19
 691 901 691 901 638 901 c 0,20,21
 582 901 582 901 529.5 886 c 128,-1,22
 477 871 477 871 435 854 c 0,23,24
 387 834 387 834 343 808 c 1,25,-1
 343 0 l 1,26,-1
 158 0 l 1,27,-1
 158 1031 l 1,0,-1
EndSplineSet
EndChar

StartChar: nine
Encoding: 57 57 152
Width: 1196
Flags: W
LayerCount: 2
Fore
SplineSet
255 142 m 1,0,1
 342 131 342 131 414.5 130 c 128,-1,2
 487 129 487 129 549 137 c 0,3,4
 636 147 636 147 697.5 182.5 c 128,-1,5
 759 218 759 218 798 278.5 c 128,-1,6
 837 339 837 339 855.5 426.5 c 128,-1,7
 874 514 874 514 875 629 c 1,8,9
 855 611 855 611 822 588.5 c 128,-1,10
 789 566 789 566 743.5 544.5 c 128,-1,11
 698 523 698 523 640.5 509.5 c 128,-1,12
 583 496 583 496 514 496 c 0,13,14
 425 496 425 496 347 523.5 c 128,-1,15
 269 551 269 551 211 604 c 128,-1,16
 153 657 153 657 119.5 734.5 c 128,-1,17
 86 812 86 812 86 911 c 0,18,19
 86 999 86 999 115 1080.5 c 128,-1,20
 144 1162 144 1162 204.5 1226 c 128,-1,21
 265 1290 265 1290 358 1327.5 c 128,-1,22
 451 1365 451 1365 580 1365 c 0,23,24
 698 1365 698 1365 788.5 1323.5 c 128,-1,25
 879 1282 879 1282 940.5 1200.5 c 128,-1,26
 1002 1119 1002 1119 1034 1002.5 c 128,-1,27
 1066 886 1066 886 1066 735 c 0,28,29
 1066 565 1066 565 1040 432 c 128,-1,30
 1014 299 1014 299 955 205.5 c 128,-1,31
 896 112 896 112 800 58.5 c 128,-1,32
 704 5 704 5 563 -8 c 1,33,34
 500 -18 500 -18 430 -18 c 128,-1,35
 360 -18 360 -18 278 -10 c 1,36,-1
 255 142 l 1,0,1
548 642 m 0,37,38
 617 642 617 642 676 660 c 128,-1,39
 735 678 735 678 779 698 c 0,40,41
 830 722 830 722 873 753 c 1,42,43
 873 756 873 756 873.5 765 c 128,-1,44
 874 774 874 774 874 783 c 128,-1,45
 874 792 874 792 874 799.5 c 128,-1,46
 874 807 874 807 874 810 c 0,47,48
 874 908 874 908 854.5 983.5 c 128,-1,49
 835 1059 835 1059 797 1112 c 128,-1,50
 759 1165 759 1165 702 1192.5 c 128,-1,51
 645 1220 645 1220 570 1220 c 0,52,53
 421 1220 421 1220 344 1145 c 128,-1,54
 267 1070 267 1070 267 913 c 0,55,56
 267 850 267 850 283 800 c 128,-1,57
 299 750 299 750 333 715.5 c 128,-1,58
 367 681 367 681 420 661.5 c 128,-1,59
 473 642 473 642 548 642 c 0,37,38
EndSplineSet
EndChar

StartChar: notequal
Encoding: 8800 8800 153
Width: 874
Flags: W
LayerCount: 2
Fore
SplineSet
448 334 m 1,0,-1
 390 181 l 1,1,-1
 268 229 l 1,2,-1
 310 334 l 1,3,-1
 106 336 l 1,4,-1
 106 449 l 1,5,-1
 348 449 l 1,6,-1
 387 548 l 1,7,-1
 104 548 l 1,8,-1
 104 663 l 1,9,-1
 425 663 l 1,10,-1
 488 830 l 1,11,-1
 613 788 l 1,12,-1
 563 663 l 1,13,-1
 769 663 l 1,14,-1
 769 548 l 1,15,-1
 526 548 l 1,16,-1
 486 449 l 1,17,-1
 771 449 l 1,18,-1
 771 334 l 1,19,-1
 448 334 l 1,0,-1
EndSplineSet
EndChar

StartChar: numbersign
Encoding: 35 35 155
Width: 1226
Flags: W
LayerCount: 2
Fore
SplineSet
429 430 m 1,0,-1
 395 103 l 1,1,-1
 245 103 l 1,2,-1
 278 430 l 1,3,-1
 88 430 l 1,4,-1
 98 559 l 1,5,-1
 290 559 l 1,6,-1
 334 992 l 1,7,-1
 139 992 l 1,8,-1
 153 1119 l 1,9,-1
 348 1119 l 1,10,-1
 382 1462 l 1,11,-1
 533 1462 l 1,12,-1
 498 1119 l 1,13,-1
 809 1119 l 1,14,-1
 841 1460 l 1,15,-1
 993 1460 l 1,16,-1
 960 1119 l 1,17,-1
 1139 1119 l 1,18,-1
 1124 992 l 1,19,-1
 945 992 l 1,20,-1
 901 559 l 1,21,-1
 1092 559 l 1,22,-1
 1082 430 l 1,23,-1
 888 430 l 1,24,-1
 856 102 l 1,25,-1
 703 102 l 1,26,-1
 739 430 l 1,27,-1
 429 430 l 1,0,-1
749 559 m 1,28,-1
 792 992 l 1,29,-1
 486 992 l 1,30,-1
 443 559 l 1,31,-1
 749 559 l 1,28,-1
EndSplineSet
EndChar

StartChar: o
Encoding: 111 111 156
Width: 1119
Flags: W
LayerCount: 2
Fore
SplineSet
560 1043 m 0,0,1
 675 1043 675 1043 760.5 1005 c 128,-1,2
 846 967 846 967 902 897.5 c 128,-1,3
 958 828 958 828 985.5 730 c 128,-1,4
 1013 632 1013 632 1013 510 c 0,5,6
 1013 394 1013 394 985.5 296 c 128,-1,7
 958 198 958 198 902 128.5 c 128,-1,8
 846 59 846 59 760.5 20.5 c 128,-1,9
 675 -18 675 -18 560 -18 c 0,10,11
 444 -18 444 -18 358.5 20.5 c 128,-1,12
 273 59 273 59 217 128.5 c 128,-1,13
 161 198 161 198 133.5 296 c 128,-1,14
 106 394 106 394 106 510 c 0,15,16
 106 632 106 632 133.5 730 c 128,-1,17
 161 828 161 828 217 897.5 c 128,-1,18
 273 967 273 967 358.5 1005 c 128,-1,19
 444 1043 444 1043 560 1043 c 0,0,1
560 122 m 256,20,21
 635 122 635 122 686 150 c 128,-1,22
 737 178 737 178 768.5 230 c 128,-1,23
 800 282 800 282 813.5 354.5 c 128,-1,24
 827 427 827 427 827 512 c 0,25,26
 827 606 827 606 813 678 c 128,-1,27
 799 750 799 750 767.5 799.5 c 128,-1,28
 736 849 736 849 685 875 c 128,-1,29
 634 901 634 901 560 901 c 0,30,31
 485 901 485 901 434 875 c 128,-1,32
 383 849 383 849 351.5 799.5 c 128,-1,33
 320 750 320 750 306.5 678 c 128,-1,34
 293 606 293 606 293 512 c 0,35,36
 293 427 293 427 306.5 354.5 c 128,-1,37
 320 282 320 282 351.5 230 c 128,-1,38
 383 178 383 178 434 150 c 128,-1,39
 485 122 485 122 560 122 c 256,20,21
EndSplineSet
EndChar

StartChar: ogonek
Encoding: 731 731 161
Width: 591
Flags: W
LayerCount: 2
Fore
SplineSet
526 -428 m 1,0,1
 510 -439 510 -439 486 -448 c 0,2,3
 466 -456 466 -456 436 -462 c 128,-1,4
 406 -468 406 -468 364 -468 c 0,5,6
 290 -468 290 -468 237 -447.5 c 128,-1,7
 184 -427 184 -427 149 -392.5 c 128,-1,8
 114 -358 114 -358 97.5 -313 c 128,-1,9
 81 -268 81 -268 81 -218 c 0,10,11
 81 -152 81 -152 107 -103 c 128,-1,12
 133 -54 133 -54 174.5 -18.5 c 128,-1,13
 216 17 216 17 268 39.5 c 128,-1,14
 320 62 320 62 373 75 c 1,15,-1
 373 12 l 1,16,17
 289 -20 289 -20 245.5 -73.5 c 128,-1,18
 202 -127 202 -127 202 -193 c 0,19,20
 202 -277 202 -277 244 -314 c 128,-1,21
 286 -351 286 -351 373 -351 c 0,22,23
 410 -351 410 -351 440 -344.5 c 128,-1,24
 470 -338 470 -338 493 -330 c 0,25,26
 519 -321 519 -321 540 -309 c 1,27,-1
 526 -428 l 1,0,1
EndSplineSet
EndChar

StartChar: one
Encoding: 49 49 163
Width: 659
Flags: W
LayerCount: 2
Fore
SplineSet
296 972 m 1,0,-1
 299 1158 l 1,1,-1
 204 1106 l 1,2,-1
 97 1050 l 1,3,-1
 39 1191 l 1,4,-1
 338 1336 l 1,5,-1
 471 1309 l 1,6,-1
 471 0 l 1,7,-1
 295 0 l 1,8,-1
 296 972 l 1,0,-1
EndSplineSet
EndChar

StartChar: ordfeminine
Encoding: 170 170 164
Width: 953
Flags: W
LayerCount: 2
Fore
SplineSet
198 375 m 1,0,-1
 798 375 l 1,1,-1
 798 297 l 1,2,-1
 198 297 l 1,3,-1
 198 375 l 1,0,-1
479 860 m 0,4,5
 457 860 457 860 431 859 c 128,-1,6
 405 858 405 858 379 853.5 c 128,-1,7
 353 849 353 849 328.5 840.5 c 128,-1,8
 304 832 304 832 285.5 817 c 128,-1,9
 267 802 267 802 255.5 779 c 128,-1,10
 244 756 244 756 244 724 c 0,11,12
 244 668 244 668 280.5 640.5 c 128,-1,13
 317 613 317 613 384 613 c 0,14,15
 430 613 430 613 468 622.5 c 128,-1,16
 506 632 506 632 533 645 c 1,17,18
 565 659 565 659 591 677 c 1,19,-1
 591 856 l 1,20,21
 574 857 574 857 554 858 c 0,22,23
 538 859 538 859 518.5 859.5 c 128,-1,24
 499 860 499 860 479 860 c 0,4,5
726 679 m 2,25,26
 726 652 726 652 729.5 637.5 c 128,-1,27
 733 623 733 623 742 620 c 0,28,29
 753 615 753 615 771 616 c 128,-1,30
 789 617 789 617 804 617 c 1,31,-1
 794 527 l 1,32,33
 784 523 784 523 771 520 c 0,34,35
 760 517 760 517 745 515.5 c 128,-1,36
 730 514 730 514 712 514 c 0,37,38
 682 514 682 514 661 524.5 c 128,-1,39
 640 535 640 535 626.5 550 c 128,-1,40
 613 565 613 565 607 584.5 c 128,-1,41
 601 604 601 604 601 613 c 1,42,43
 581 585 581 585 546 563 c 0,44,45
 515 544 515 544 466.5 529 c 128,-1,46
 418 514 418 514 344 514 c 0,47,48
 294 514 294 514 252.5 528 c 128,-1,49
 211 542 211 542 181.5 570 c 128,-1,50
 152 598 152 598 135.5 639.5 c 128,-1,51
 119 681 119 681 119 729 c 0,52,53
 119 796 119 796 148 837.5 c 128,-1,54
 177 879 177 879 224 902.5 c 128,-1,55
 271 926 271 926 332 935.5 c 128,-1,56
 393 945 393 945 457 945 c 0,57,58
 482 945 482 945 506.5 943 c 128,-1,59
 531 941 531 941 550 940 c 1,60,61
 572 936 572 936 591 934 c 1,62,-1
 591 1017 l 2,63,64
 591 1075 591 1075 582 1111 c 128,-1,65
 573 1147 573 1147 552.5 1166 c 128,-1,66
 532 1185 532 1185 500 1191.5 c 128,-1,67
 468 1198 468 1198 420 1198 c 0,68,69
 375 1198 375 1198 332 1191 c 128,-1,70
 289 1184 289 1184 255 1176 c 0,71,72
 214 1166 214 1166 179 1153 c 1,73,-1
 194 1255 l 1,74,75
 222 1268 222 1268 258 1278 c 0,76,77
 289 1287 289 1287 332.5 1294.5 c 128,-1,78
 376 1302 376 1302 431 1302 c 0,79,80
 520 1302 520 1302 577.5 1284.5 c 128,-1,81
 635 1267 635 1267 668 1228.5 c 128,-1,82
 701 1190 701 1190 713.5 1128 c 128,-1,83
 726 1066 726 1066 726 977 c 2,84,-1
 726 679 l 2,25,26
EndSplineSet
EndChar

StartChar: ordmasculine
Encoding: 186 186 165
Width: 930
Flags: W
LayerCount: 2
Fore
SplineSet
190 375 m 1,0,-1
 739 375 l 1,1,-1
 739 297 l 1,2,-1
 190 297 l 1,3,-1
 190 375 l 1,0,-1
464 1295 m 0,4,5
 548 1295 548 1295 611 1267 c 128,-1,6
 674 1239 674 1239 715 1188 c 128,-1,7
 756 1137 756 1137 776.5 1065 c 128,-1,8
 797 993 797 993 797 903 c 0,9,10
 797 818 797 818 776.5 746 c 128,-1,11
 756 674 756 674 715 622.5 c 128,-1,12
 674 571 674 571 611 543 c 128,-1,13
 548 515 548 515 464 515 c 0,14,15
 379 515 379 515 316 543 c 128,-1,16
 253 571 253 571 212 622.5 c 128,-1,17
 171 674 171 674 151 746 c 128,-1,18
 131 818 131 818 131 903 c 0,19,20
 131 993 131 993 151 1065 c 128,-1,21
 171 1137 171 1137 212 1188 c 128,-1,22
 253 1239 253 1239 316 1267 c 128,-1,23
 379 1295 379 1295 464 1295 c 0,4,5
464 618 m 256,24,25
 519 618 519 618 556.5 638.5 c 128,-1,26
 594 659 594 659 617 697 c 128,-1,27
 640 735 640 735 650 788.5 c 128,-1,28
 660 842 660 842 660 904 c 0,29,30
 660 973 660 973 649.5 1026 c 128,-1,31
 639 1079 639 1079 616 1115.5 c 128,-1,32
 593 1152 593 1152 555.5 1171 c 128,-1,33
 518 1190 518 1190 464 1190 c 0,34,35
 409 1190 409 1190 371.5 1171 c 128,-1,36
 334 1152 334 1152 311 1115.5 c 128,-1,37
 288 1079 288 1079 278 1026 c 128,-1,38
 268 973 268 973 268 904 c 0,39,40
 268 842 268 842 278 788.5 c 128,-1,41
 288 735 288 735 311 697 c 128,-1,42
 334 659 334 659 371.5 638.5 c 128,-1,43
 409 618 409 618 464 618 c 256,24,25
EndSplineSet
EndChar

StartChar: oslash
Encoding: 248 248 166
Width: 1117
Flags: W
LayerCount: 2
Fore
SplineSet
559 1035 m 0,0,1
 610 1035 610 1035 655.5 1026.5 c 128,-1,2
 701 1018 701 1018 740 1000 c 1,3,-1
 840 1226 l 1,4,-1
 922 1183 l 1,5,6
 918 1175 918 1175 908 1154 c 128,-1,7
 898 1133 898 1133 884 1102.5 c 128,-1,8
 870 1072 870 1072 853 1035 c 128,-1,9
 836 998 836 998 819 960 c 1,10,11
 917 892 917 892 964.5 773 c 128,-1,12
 1012 654 1012 654 1012 504 c 0,13,14
 1012 391 1012 391 984.5 293.5 c 128,-1,15
 957 196 957 196 901 124.5 c 128,-1,16
 845 53 845 53 760 12.5 c 128,-1,17
 675 -28 675 -28 559 -28 c 0,18,19
 511 -28 511 -28 469.5 -20.5 c 128,-1,20
 428 -13 428 -13 391 0 c 1,21,22
 359 -75 359 -75 336 -127 c 128,-1,23
 313 -179 313 -179 305 -197 c 1,24,-1
 220 -157 l 1,25,-1
 310 38 l 1,26,27
 258 72 258 72 219.5 120.5 c 128,-1,28
 181 169 181 169 155.5 229 c 128,-1,29
 130 289 130 289 117.5 358.5 c 128,-1,30
 105 428 105 428 105 504 c 0,31,32
 105 618 105 618 132.5 715 c 128,-1,33
 160 812 160 812 216 883.5 c 128,-1,34
 272 955 272 955 357.5 995 c 128,-1,35
 443 1035 443 1035 559 1035 c 0,0,1
292 506 m 0,36,37
 292 408 292 408 313 326.5 c 128,-1,38
 334 245 334 245 382 192 c 1,39,-1
 681 868 l 1,40,41
 655 882 655 882 625 889 c 128,-1,42
 595 896 595 896 559 896 c 0,43,44
 484 896 484 896 433 867.5 c 128,-1,45
 382 839 382 839 350.5 787 c 128,-1,46
 319 735 319 735 305.5 663.5 c 128,-1,47
 292 592 292 592 292 506 c 0,36,37
559 109 m 0,48,49
 634 109 634 109 685 140 c 128,-1,50
 736 171 736 171 767.5 224.5 c 128,-1,51
 799 278 799 278 812.5 350.5 c 128,-1,52
 826 423 826 423 826 506 c 0,53,54
 826 600 826 600 806.5 676 c 128,-1,55
 787 752 787 752 744 803 c 1,56,-1
 448 131 l 1,57,58
 495 109 495 109 559 109 c 0,48,49
EndSplineSet
EndChar

StartChar: p
Encoding: 112 112 168
Width: 1141
Flags: W
LayerCount: 2
Fore
SplineSet
278 1043 m 1,0,-1
 311 927 l 1,1,2
 344 951 344 951 380.5 972.5 c 128,-1,3
 417 994 417 994 460 1009.5 c 128,-1,4
 503 1025 503 1025 553.5 1034 c 128,-1,5
 604 1043 604 1043 666 1043 c 0,6,7
 752 1043 752 1043 819.5 1011.5 c 128,-1,8
 887 980 887 980 934 915.5 c 128,-1,9
 981 851 981 851 1005.5 751 c 128,-1,10
 1030 651 1030 651 1030 514 c 0,11,12
 1030 374 1030 374 1001 272.5 c 128,-1,13
 972 171 972 171 921.5 106.5 c 128,-1,14
 871 42 871 42 802.5 12 c 128,-1,15
 734 -18 734 -18 655 -18 c 0,16,17
 586 -18 586 -18 529 -4.5 c 128,-1,18
 472 9 472 9 430 26 c 0,19,20
 382 45 382 45 343 71 c 1,21,-1
 343 -399 l 1,22,-1
 158 -415 l 1,23,-1
 158 1032 l 1,24,-1
 278 1043 l 1,0,-1
343 198 m 1,25,26
 378 177 378 177 419 160 c 0,27,28
 454 146 454 146 502 134 c 128,-1,29
 550 122 550 122 606 122 c 0,30,31
 665 122 665 122 709.5 143.5 c 128,-1,32
 754 165 754 165 784 213.5 c 128,-1,33
 814 262 814 262 829 339 c 128,-1,34
 844 416 844 416 844 524 c 0,35,36
 844 722 844 722 790.5 811.5 c 128,-1,37
 737 901 737 901 631 901 c 0,38,39
 571 901 571 901 519 887.5 c 128,-1,40
 467 874 467 874 428 858 c 0,41,42
 382 840 382 840 343 816 c 1,43,-1
 343 198 l 1,25,26
EndSplineSet
EndChar

StartChar: paragraph
Encoding: 182 182 169
Width: 1182
Flags: W
LayerCount: 2
Fore
SplineSet
440 878 m 1,0,1
 354 875 354 875 285 886.5 c 128,-1,2
 216 898 216 898 167.5 929.5 c 128,-1,3
 119 961 119 961 93 1014.5 c 128,-1,4
 67 1068 67 1068 67 1148 c 0,5,6
 68 1248 68 1248 104.5 1306 c 128,-1,7
 141 1364 141 1364 209.5 1393 c 128,-1,8
 278 1422 278 1422 377 1429.5 c 128,-1,9
 476 1437 476 1437 603 1437 c 2,10,-1
 1101 1437 l 1,11,-1
 1126 1298 l 1,12,-1
 901 1298 l 1,13,-1
 901 -3 l 1,14,-1
 733 -3 l 1,15,-1
 733 1298 l 1,16,-1
 608 1298 l 1,17,-1
 608 -3 l 1,18,-1
 440 -3 l 1,19,-1
 440 878 l 1,0,1
EndSplineSet
EndChar

StartChar: parenleft
Encoding: 40 40 170
Width: 598
Flags: W
LayerCount: 2
Fore
SplineSet
107 619 m 256,0,1
 107 729 107 729 122 822 c 128,-1,2
 137 915 137 915 161.5 992 c 128,-1,3
 186 1069 186 1069 217 1131 c 128,-1,4
 248 1193 248 1193 281 1241 c 0,5,6
 358 1354 358 1354 456 1423 c 1,7,-1
 541 1326 l 1,8,9
 469 1262 469 1262 413 1162 c 0,10,11
 389 1119 389 1119 366 1064.5 c 128,-1,12
 343 1010 343 1010 325.5 942 c 128,-1,13
 308 874 308 874 297 793 c 128,-1,14
 286 712 286 712 286 617 c 256,15,16
 286 522 286 522 297 441 c 128,-1,17
 308 360 308 360 325.5 292.5 c 128,-1,18
 343 225 343 225 366 170 c 128,-1,19
 389 115 389 115 413 73 c 0,20,21
 469 -26 469 -26 541 -90 c 1,22,-1
 456 -186 l 1,23,24
 358 -117 358 -117 281 -4 c 0,25,26
 248 44 248 44 217 106 c 128,-1,27
 186 168 186 168 161.5 245 c 128,-1,28
 137 322 137 322 122 415.5 c 128,-1,29
 107 509 107 509 107 619 c 256,0,1
EndSplineSet
EndChar

StartChar: parenright
Encoding: 41 41 171
Width: 596
Flags: W
LayerCount: 2
Fore
SplineSet
489 619 m 256,0,1
 489 509 489 509 474 415.5 c 128,-1,2
 459 322 459 322 434.5 245 c 128,-1,3
 410 168 410 168 379 106 c 128,-1,4
 348 44 348 44 315 -4 c 0,5,6
 238 -117 238 -117 141 -186 c 1,7,-1
 55 -90 l 1,8,9
 127 -26 127 -26 183 73 c 0,10,11
 207 115 207 115 230 170 c 128,-1,12
 253 225 253 225 271 292.5 c 128,-1,13
 289 360 289 360 300 441 c 128,-1,14
 311 522 311 522 311 617 c 256,15,16
 311 712 311 712 300 793 c 128,-1,17
 289 874 289 874 271 942 c 128,-1,18
 253 1010 253 1010 230 1064.5 c 128,-1,19
 207 1119 207 1119 183 1162 c 0,20,21
 127 1262 127 1262 55 1326 c 1,22,-1
 141 1423 l 1,23,24
 238 1354 238 1354 315 1241 c 0,25,26
 348 1193 348 1193 379 1131 c 128,-1,27
 410 1069 410 1069 434.5 992 c 128,-1,28
 459 915 459 915 474 822 c 128,-1,29
 489 729 489 729 489 619 c 256,0,1
EndSplineSet
EndChar

StartChar: partialdiff
Encoding: 8706 8706 172
Width: 1105
Flags: W
LayerCount: 2
Fore
SplineSet
533 1539 m 0,0,1
 624 1539 624 1539 692 1508 c 128,-1,2
 760 1477 760 1477 809 1423 c 128,-1,3
 858 1369 858 1369 890 1294.5 c 128,-1,4
 922 1220 922 1220 940.5 1133.5 c 128,-1,5
 959 1047 959 1047 966.5 951 c 128,-1,6
 974 855 974 855 974 757 c 0,7,8
 974 524 974 524 945.5 372 c 128,-1,9
 917 220 917 220 859.5 131 c 128,-1,10
 802 42 802 42 715.5 6.5 c 128,-1,11
 629 -29 629 -29 514 -29 c 0,12,13
 461 -29 461 -29 409.5 -19 c 128,-1,14
 358 -9 358 -9 311 15 c 128,-1,15
 264 39 264 39 224 78.5 c 128,-1,16
 184 118 184 118 154.5 177.5 c 128,-1,17
 125 237 125 237 108.5 318 c 128,-1,18
 92 399 92 399 92 505 c 0,19,20
 92 621 92 621 117.5 718.5 c 128,-1,21
 143 816 143 816 193.5 887 c 128,-1,22
 244 958 244 958 320 998 c 128,-1,23
 396 1038 396 1038 497 1038 c 0,24,25
 569 1038 569 1038 625.5 1015 c 128,-1,26
 682 992 682 992 722 965 c 0,27,28
 769 933 769 933 805 893 c 1,29,30
 802 950 802 950 798 1011.5 c 128,-1,31
 794 1073 794 1073 784.5 1132 c 128,-1,32
 775 1191 775 1191 756.5 1244 c 128,-1,33
 738 1297 738 1297 705.5 1337 c 128,-1,34
 673 1377 673 1377 623.5 1400.5 c 128,-1,35
 574 1424 574 1424 503 1424 c 0,36,37
 459 1424 459 1424 421 1417 c 128,-1,38
 383 1410 383 1410 354 1402 c 0,39,40
 321 1392 321 1392 293 1381 c 1,41,42
 293 1388 293 1388 295 1403.5 c 128,-1,43
 297 1419 297 1419 298.5 1436 c 128,-1,44
 300 1453 300 1453 302 1468.5 c 128,-1,45
 304 1484 304 1484 304 1492 c 1,46,47
 332 1504 332 1504 367 1515 c 0,48,49
 397 1524 397 1524 439 1531.5 c 128,-1,50
 481 1539 481 1539 533 1539 c 0,0,1
525 109 m 0,51,52
 571 109 571 109 609.5 118.5 c 128,-1,53
 648 128 648 128 679.5 154 c 128,-1,54
 711 180 711 180 735 225 c 128,-1,55
 759 270 759 270 775 342 c 128,-1,56
 791 414 791 414 798.5 515 c 128,-1,57
 806 616 806 616 806 753 c 1,58,59
 767 792 767 792 721 824 c 0,60,61
 682 851 682 851 630.5 873 c 128,-1,62
 579 895 579 895 522 896 c 0,63,64
 453 897 453 897 404 866.5 c 128,-1,65
 355 836 355 836 324 785 c 128,-1,66
 293 734 293 734 278.5 668.5 c 128,-1,67
 264 603 264 603 264 533 c 0,68,69
 264 422 264 422 280 341.5 c 128,-1,70
 296 261 296 261 328 209.5 c 128,-1,71
 360 158 360 158 409.5 133.5 c 128,-1,72
 459 109 459 109 525 109 c 0,51,52
EndSplineSet
EndChar

StartChar: percent
Encoding: 37 37 173
Width: 1394
Flags: W
LayerCount: 2
Fore
SplineSet
351 864 m 0,0,1
 394 864 394 864 422 880.5 c 128,-1,2
 450 897 450 897 466.5 927.5 c 128,-1,3
 483 958 483 958 489.5 1001.5 c 128,-1,4
 496 1045 496 1045 496 1099 c 0,5,6
 496 1154 496 1154 489.5 1197.5 c 128,-1,7
 483 1241 483 1241 466.5 1271.5 c 128,-1,8
 450 1302 450 1302 422 1318.5 c 128,-1,9
 394 1335 394 1335 351 1335 c 0,10,11
 307 1335 307 1335 279 1318.5 c 128,-1,12
 251 1302 251 1302 234.5 1271.5 c 128,-1,13
 218 1241 218 1241 211.5 1197.5 c 128,-1,14
 205 1154 205 1154 205 1099 c 0,15,16
 205 1045 205 1045 211.5 1001.5 c 128,-1,17
 218 958 218 958 234.5 927.5 c 128,-1,18
 251 897 251 897 279 880.5 c 128,-1,19
 307 864 307 864 351 864 c 0,0,1
83 1099 m 256,20,21
 83 1270 83 1270 152 1354 c 128,-1,22
 221 1438 221 1438 351 1438 c 0,23,24
 483 1438 483 1438 551 1354 c 128,-1,25
 619 1270 619 1270 619 1099 c 0,26,27
 619 761 619 761 351 761 c 0,28,29
 219 761 219 761 151 844.5 c 128,-1,30
 83 928 83 928 83 1099 c 256,20,21
205 -12 m 1,31,-1
 1083 1490 l 1,32,-1
 1196 1423 l 1,33,-1
 314 -77 l 1,34,-1
 205 -12 l 1,31,-1
1187 321 m 256,35,36
 1187 375 1187 375 1180.5 419 c 128,-1,37
 1174 463 1174 463 1157.5 493.5 c 128,-1,38
 1141 524 1141 524 1113 540.5 c 128,-1,39
 1085 557 1085 557 1042 557 c 0,40,41
 998 557 998 557 969.5 540.5 c 128,-1,42
 941 524 941 524 924.5 493.5 c 128,-1,43
 908 463 908 463 901.5 419 c 128,-1,44
 895 375 895 375 895 321 c 256,45,46
 895 267 895 267 901.5 223 c 128,-1,47
 908 179 908 179 924.5 148.5 c 128,-1,48
 941 118 941 118 969.5 101.5 c 128,-1,49
 998 85 998 85 1042 85 c 0,50,51
 1085 85 1085 85 1113 101.5 c 128,-1,52
 1141 118 1141 118 1157.5 148.5 c 128,-1,53
 1174 179 1174 179 1180.5 223 c 128,-1,54
 1187 267 1187 267 1187 321 c 256,35,36
774 321 m 256,55,56
 774 492 774 492 841.5 576 c 128,-1,57
 909 660 909 660 1042 660 c 0,58,59
 1174 660 1174 660 1242 576 c 128,-1,60
 1310 492 1310 492 1310 321 c 0,61,62
 1310 -18 1310 -18 1042 -18 c 0,63,64
 910 -18 910 -18 842 66 c 128,-1,65
 774 150 774 150 774 321 c 256,55,56
EndSplineSet
EndChar

StartChar: period
Encoding: 46 46 174
Width: 469
Flags: W
LayerCount: 2
Fore
SplineSet
329 202 m 1,0,-1
 329 -9 l 1,1,-1
 139 -9 l 1,2,-1
 139 202 l 1,3,-1
 329 202 l 1,0,-1
EndSplineSet
EndChar

StartChar: periodcentered
Encoding: 183 183 175
Width: 469
Flags: W
LayerCount: 2
Fore
SplineSet
321 672 m 1,0,-1
 321 477 l 1,1,-1
 148 477 l 1,2,-1
 148 672 l 1,3,-1
 321 672 l 1,0,-1
EndSplineSet
EndChar

StartChar: perthousand
Encoding: 8240 8240 176
Width: 2025
Flags: W
LayerCount: 2
Fore
SplineSet
1073 1481 m 1,0,-1
 1186 1414 l 1,1,-1
 305 -87 l 1,2,-1
 196 -21 l 1,3,-1
 1073 1481 l 1,0,-1
84 1098 m 256,4,5
 84 1183 84 1183 104 1246.5 c 128,-1,6
 124 1310 124 1310 160 1352.5 c 128,-1,7
 196 1395 196 1395 245 1416 c 128,-1,8
 294 1437 294 1437 352 1437 c 0,9,10
 412 1437 412 1437 461.5 1416 c 128,-1,11
 511 1395 511 1395 546.5 1352.5 c 128,-1,12
 582 1310 582 1310 601.5 1246.5 c 128,-1,13
 621 1183 621 1183 621 1098 c 256,14,15
 621 1013 621 1013 601.5 949.5 c 128,-1,16
 582 886 582 886 547 844 c 128,-1,17
 512 802 512 802 462.5 781 c 128,-1,18
 413 760 413 760 352 760 c 0,19,20
 293 760 293 760 243.5 781 c 128,-1,21
 194 802 194 802 158.5 844 c 128,-1,22
 123 886 123 886 103.5 949.5 c 128,-1,23
 84 1013 84 1013 84 1098 c 256,4,5
498 1098 m 0,24,25
 498 1153 498 1153 490 1196.5 c 128,-1,26
 482 1240 482 1240 464.5 1270.5 c 128,-1,27
 447 1301 447 1301 419.5 1317.5 c 128,-1,28
 392 1334 392 1334 352 1334 c 0,29,30
 313 1334 313 1334 285 1317.5 c 128,-1,31
 257 1301 257 1301 239.5 1270.5 c 128,-1,32
 222 1240 222 1240 214 1196.5 c 128,-1,33
 206 1153 206 1153 206 1098 c 0,34,35
 206 1044 206 1044 214 1000.5 c 128,-1,36
 222 957 222 957 239.5 926.5 c 128,-1,37
 257 896 257 896 285 879.5 c 128,-1,38
 313 863 313 863 352 863 c 0,39,40
 431 863 431 863 464.5 926 c 128,-1,41
 498 989 498 989 498 1098 c 0,24,25
1423 310 m 256,42,43
 1423 395 1423 395 1442 458.5 c 128,-1,44
 1461 522 1461 522 1496.5 564 c 128,-1,45
 1532 606 1532 606 1581 627 c 128,-1,46
 1630 648 1630 648 1690 648 c 256,47,48
 1750 648 1750 648 1799.5 627 c 128,-1,49
 1849 606 1849 606 1884 564 c 128,-1,50
 1919 522 1919 522 1938.5 458.5 c 128,-1,51
 1958 395 1958 395 1958 310 c 256,52,53
 1958 225 1958 225 1939 161.5 c 128,-1,54
 1920 98 1920 98 1885 55.5 c 128,-1,55
 1850 13 1850 13 1800.5 -8 c 128,-1,56
 1751 -29 1751 -29 1690 -29 c 0,57,58
 1631 -29 1631 -29 1582 -8 c 128,-1,59
 1533 13 1533 13 1498 55.5 c 128,-1,60
 1463 98 1463 98 1443 161.5 c 128,-1,61
 1423 225 1423 225 1423 310 c 256,42,43
1835 310 m 0,62,63
 1835 364 1835 364 1827.5 407.5 c 128,-1,64
 1820 451 1820 451 1802.5 481.5 c 128,-1,65
 1785 512 1785 512 1757.5 528.5 c 128,-1,66
 1730 545 1730 545 1690 545 c 0,67,68
 1651 545 1651 545 1623 528.5 c 128,-1,69
 1595 512 1595 512 1577.5 481.5 c 128,-1,70
 1560 451 1560 451 1552 407.5 c 128,-1,71
 1544 364 1544 364 1544 310 c 0,72,73
 1544 255 1544 255 1552 211.5 c 128,-1,74
 1560 168 1560 168 1577.5 137.5 c 128,-1,75
 1595 107 1595 107 1623 90.5 c 128,-1,76
 1651 74 1651 74 1690 74 c 0,77,78
 1730 74 1730 74 1757.5 90.5 c 128,-1,79
 1785 107 1785 107 1802.5 137.5 c 128,-1,80
 1820 168 1820 168 1827.5 211.5 c 128,-1,81
 1835 255 1835 255 1835 310 c 0,62,63
754 310 m 256,82,83
 754 395 754 395 773.5 458.5 c 128,-1,84
 793 522 793 522 828 564 c 128,-1,85
 863 606 863 606 912.5 627 c 128,-1,86
 962 648 962 648 1022 648 c 256,87,88
 1082 648 1082 648 1131 627 c 128,-1,89
 1180 606 1180 606 1215 564 c 128,-1,90
 1250 522 1250 522 1269.5 458.5 c 128,-1,91
 1289 395 1289 395 1289 310 c 256,92,93
 1289 225 1289 225 1270 161.5 c 128,-1,94
 1251 98 1251 98 1216 55.5 c 128,-1,95
 1181 13 1181 13 1131.5 -8 c 128,-1,96
 1082 -29 1082 -29 1022 -29 c 0,97,98
 963 -29 963 -29 914 -8 c 128,-1,99
 865 13 865 13 829.5 55.5 c 128,-1,100
 794 98 794 98 774 161.5 c 128,-1,101
 754 225 754 225 754 310 c 256,82,83
1167 310 m 0,102,103
 1167 364 1167 364 1159 407.5 c 128,-1,104
 1151 451 1151 451 1134 481.5 c 128,-1,105
 1117 512 1117 512 1089.5 528.5 c 128,-1,106
 1062 545 1062 545 1022 545 c 256,107,108
 982 545 982 545 954.5 528.5 c 128,-1,109
 927 512 927 512 909.5 481.5 c 128,-1,110
 892 451 892 451 884 407.5 c 128,-1,111
 876 364 876 364 876 310 c 0,112,113
 876 255 876 255 884 211.5 c 128,-1,114
 892 168 892 168 909.5 137.5 c 128,-1,115
 927 107 927 107 954.5 90.5 c 128,-1,116
 982 74 982 74 1022 74 c 0,117,118
 1101 74 1101 74 1134 137 c 128,-1,119
 1167 200 1167 200 1167 310 c 0,102,103
EndSplineSet
EndChar

StartChar: pi
Encoding: 960 960 177
Width: 1204
Flags: W
LayerCount: 2
Fore
SplineSet
805 866 m 1,0,-1
 570 866 l 1,1,-1
 462 421 l 1,2,3
 436 319 436 319 406 247.5 c 128,-1,4
 376 176 376 176 343.5 129 c 128,-1,5
 311 82 311 82 277 55.5 c 128,-1,6
 243 29 243 29 208 16 c 128,-1,7
 173 3 173 3 138.5 0 c 128,-1,8
 104 -3 104 -3 71 -3 c 1,9,10
 69 6 69 6 64 26.5 c 128,-1,11
 59 47 59 47 53.5 69 c 128,-1,12
 48 91 48 91 43 111 c 128,-1,13
 38 131 38 131 36 140 c 1,14,15
 84 140 84 140 122.5 153 c 128,-1,16
 161 166 161 166 192.5 201 c 128,-1,17
 224 236 224 236 251 297 c 128,-1,18
 278 358 278 358 304 455 c 0,19,20
 316 501 316 501 330 553.5 c 128,-1,21
 344 606 344 606 358.5 660.5 c 128,-1,22
 373 715 373 715 387 767.5 c 128,-1,23
 401 820 401 820 413 866 c 1,24,-1
 219 866 l 1,25,26
 224 898 224 898 230 931 c 128,-1,27
 236 964 236 964 242 997 c 1,28,-1
 1163 997 l 1,29,30
 1157 964 1157 964 1151.5 931 c 128,-1,31
 1146 898 1146 898 1140 866 c 1,32,-1
 970 866 l 1,33,34
 949 732 949 732 928.5 600 c 128,-1,35
 908 468 908 468 887 334 c 0,36,37
 878 277 878 277 876.5 236 c 128,-1,38
 875 195 875 195 883 168.5 c 128,-1,39
 891 142 891 142 911.5 129 c 128,-1,40
 932 116 932 116 967 116 c 0,41,42
 997 116 997 116 1023.5 120.5 c 128,-1,43
 1050 125 1050 125 1070 130 c 0,44,45
 1093 136 1093 136 1112 145 c 1,46,47
 1104 110 1104 110 1096 76 c 128,-1,48
 1088 42 1088 42 1080 6 c 1,49,50
 1061 -2 1061 -2 1037 -7 c 0,51,52
 1016 -12 1016 -12 987 -16 c 128,-1,53
 958 -20 958 -20 922 -20 c 0,54,55
 863 -20 863 -20 818.5 -1 c 128,-1,56
 774 18 774 18 747.5 59.5 c 128,-1,57
 721 101 721 101 713.5 167.5 c 128,-1,58
 706 234 706 234 720 329 c 1,59,-1
 805 866 l 1,0,-1
EndSplineSet
EndChar

StartChar: plus
Encoding: 43 43 178
Width: 848
Flags: W
LayerCount: 2
Fore
SplineSet
493 455 m 1,0,-1
 493 153 l 1,1,-1
 355 153 l 1,2,-1
 355 455 l 1,3,-1
 91 455 l 1,4,-1
 91 591 l 1,5,-1
 355 591 l 1,6,-1
 355 895 l 1,7,-1
 493 895 l 1,8,-1
 493 591 l 1,9,-1
 757 591 l 1,10,-1
 757 455 l 1,11,-1
 493 455 l 1,0,-1
EndSplineSet
EndChar

StartChar: plusminus
Encoding: 177 177 179
Width: 1047
Flags: W
LayerCount: 2
Fore
SplineSet
132 -5 m 1,0,-1
 132 109 l 1,1,-1
 916 109 l 1,2,-1
 916 -5 l 1,3,-1
 132 -5 l 1,0,-1
598 762 m 1,4,-1
 598 403 l 1,5,-1
 453 403 l 1,6,-1
 453 762 l 1,7,-1
 132 762 l 1,8,-1
 132 884 l 1,9,-1
 453 884 l 1,10,-1
 453 1247 l 1,11,-1
 598 1247 l 1,12,-1
 598 884 l 1,13,-1
 916 884 l 1,14,-1
 916 762 l 1,15,-1
 598 762 l 1,4,-1
EndSplineSet
EndChar

StartChar: product
Encoding: 8719 8719 180
Width: 1422
Flags: W
LayerCount: 2
Fore
SplineSet
1233 1409 m 1,0,-1
 1233 0 l 1,1,-1
 1045 0 l 1,2,-1
 1045 874 l 1,3,-1
 1056 1286 l 1,4,-1
 367 1286 l 1,5,-1
 377 848 l 1,6,-1
 377 0 l 1,7,-1
 190 0 l 1,8,-1
 190 1409 l 1,9,-1
 1233 1409 l 1,0,-1
EndSplineSet
EndChar

StartChar: q
Encoding: 113 113 181
Width: 1111
Flags: W
LayerCount: 2
Fore
SplineSet
956 -390 m 1,0,-1
 771 -417 l 1,1,-1
 771 71 l 1,2,3
 732 45 732 45 684 26 c 0,4,5
 643 9 643 9 588.5 -4.5 c 128,-1,6
 534 -18 534 -18 470 -18 c 0,7,8
 389 -18 389 -18 322.5 17 c 128,-1,9
 256 52 256 52 209 120 c 128,-1,10
 162 188 162 188 136 286.5 c 128,-1,11
 110 385 110 385 110 509 c 0,12,13
 110 641 110 641 136.5 740.5 c 128,-1,14
 163 840 163 840 213 907.5 c 128,-1,15
 263 975 263 975 335.5 1009 c 128,-1,16
 408 1043 408 1043 501 1043 c 0,17,18
 548 1043 548 1043 600.5 1039 c 128,-1,19
 653 1035 653 1035 703.5 1028 c 128,-1,20
 754 1021 754 1021 800 1011 c 128,-1,21
 846 1001 846 1001 880.5 993 c 128,-1,22
 915 985 915 985 935 979 c 1,23,-1
 956 974 l 1,24,-1
 956 -390 l 1,0,-1
543 901 m 0,25,26
 487 901 487 901 441 883 c 128,-1,27
 395 865 395 865 362.5 820.5 c 128,-1,28
 330 776 330 776 312 701.5 c 128,-1,29
 294 627 294 627 294 512 c 0,30,31
 294 316 294 316 352 219 c 128,-1,32
 410 122 410 122 531 122 c 0,33,34
 576 122 576 122 618.5 133.5 c 128,-1,35
 661 145 661 145 695 159 c 0,36,37
 735 175 735 175 771 196 c 1,38,-1
 771 875 l 1,39,40
 731 883 731 883 691 889 c 0,41,42
 656 894 656 894 617 897.5 c 128,-1,43
 578 901 578 901 543 901 c 0,25,26
EndSplineSet
EndChar

StartChar: question
Encoding: 63 63 182
Width: 872
Flags: W
LayerCount: 2
Fore
SplineSet
804 1093 m 0,0,1
 804 998 804 998 770 933 c 128,-1,2
 736 868 736 868 684.5 823.5 c 128,-1,3
 633 779 633 779 573.5 750.5 c 128,-1,4
 514 722 514 722 462.5 698.5 c 128,-1,5
 411 675 411 675 377 653 c 128,-1,6
 343 631 343 631 343 600 c 2,7,-1
 343 302 l 1,8,-1
 192 302 l 1,9,-1
 192 590 l 2,10,11
 192 643 192 643 211 681.5 c 128,-1,12
 230 720 230 720 261.5 748.5 c 128,-1,13
 293 777 293 777 332.5 798.5 c 128,-1,14
 372 820 372 820 414 840.5 c 128,-1,15
 456 861 456 861 495.5 882.5 c 128,-1,16
 535 904 535 904 566.5 932.5 c 128,-1,17
 598 961 598 961 617 999 c 128,-1,18
 636 1037 636 1037 636 1090 c 256,19,20
 636 1143 636 1143 623 1180.5 c 128,-1,21
 610 1218 610 1218 581.5 1242 c 128,-1,22
 553 1266 553 1266 506.5 1277 c 128,-1,23
 460 1288 460 1288 393 1288 c 0,24,25
 340 1288 340 1288 287.5 1281 c 128,-1,26
 235 1274 235 1274 192 1266 c 0,27,28
 142 1256 142 1256 96 1244 c 1,29,30
 96 1246 96 1246 97 1268 c 128,-1,31
 98 1290 98 1290 98.5 1316 c 128,-1,32
 99 1342 99 1342 100 1364 c 128,-1,33
 101 1386 101 1386 101 1388 c 1,34,35
 146 1401 146 1401 195 1412 c 0,36,37
 237 1421 237 1421 289 1429 c 128,-1,38
 341 1437 341 1437 394 1437 c 0,39,40
 511 1437 511 1437 590 1409.5 c 128,-1,41
 669 1382 669 1382 716.5 1335 c 128,-1,42
 764 1288 764 1288 784 1225.5 c 128,-1,43
 804 1163 804 1163 804 1093 c 0,0,1
173 78 m 0,44,45
 173 101 173 101 181 121.5 c 128,-1,46
 189 142 189 142 202.5 157.5 c 128,-1,47
 216 173 216 173 234.5 182 c 128,-1,48
 253 191 253 191 274 191 c 0,49,50
 296 191 296 191 315 182 c 128,-1,51
 334 173 334 173 348.5 157.5 c 128,-1,52
 363 142 363 142 371 121.5 c 128,-1,53
 379 101 379 101 379 78 c 0,54,55
 379 56 379 56 371 37 c 128,-1,56
 363 18 363 18 348.5 3.5 c 128,-1,57
 334 -11 334 -11 315 -19.5 c 128,-1,58
 296 -28 296 -28 274 -28 c 0,59,60
 253 -28 253 -28 234.5 -19.5 c 128,-1,61
 216 -11 216 -11 202.5 3.5 c 128,-1,62
 189 18 189 18 181 37 c 128,-1,63
 173 56 173 56 173 78 c 0,44,45
EndSplineSet
EndChar

StartChar: quotedbl
Encoding: 34 34 184
Width: 606
Flags: W
LayerCount: 2
Fore
SplineSet
273 1436 m 1,0,1
 273 1362 273 1362 265.5 1286.5 c 128,-1,2
 258 1211 258 1211 249 1148 c 0,3,4
 238 1075 238 1075 225 1007 c 1,5,-1
 152 1007 l 1,6,7
 143 1061 143 1061 137 1128 c 0,8,9
 131 1185 131 1185 126.5 1263.5 c 128,-1,10
 122 1342 122 1342 120 1436 c 1,11,-1
 273 1436 l 1,0,1
497 1436 m 1,12,13
 497 1362 497 1362 488 1286.5 c 128,-1,14
 479 1211 479 1211 468 1148 c 0,15,16
 455 1075 455 1075 439 1007 c 1,17,-1
 369 1007 l 1,18,19
 364 1027 364 1027 360 1071.5 c 128,-1,20
 356 1116 356 1116 353 1174.5 c 128,-1,21
 350 1233 350 1233 348.5 1300.5 c 128,-1,22
 347 1368 347 1368 347 1436 c 1,23,-1
 497 1436 l 1,12,13
EndSplineSet
EndChar

StartChar: quotedblbase
Encoding: 8222 8222 185
Width: 772
Flags: W
LayerCount: 2
Fore
SplineSet
631 205 m 1,0,1
 633 185 633 185 636 160 c 0,2,3
 638 139 638 139 639.5 111 c 128,-1,4
 641 83 641 83 641 50 c 0,5,6
 641 -63 641 -63 594.5 -126 c 128,-1,7
 548 -189 548 -189 443 -198 c 1,8,9
 443 -197 443 -197 440 -187.5 c 128,-1,10
 437 -178 437 -178 434 -167 c 128,-1,11
 431 -156 431 -156 428 -146.5 c 128,-1,12
 425 -137 425 -137 425 -136 c 0,13,14
 464 -130 464 -130 487.5 -118 c 128,-1,15
 511 -106 511 -106 524 -89 c 128,-1,16
 537 -72 537 -72 541 -50.5 c 128,-1,17
 545 -29 545 -29 545 -3 c 1,18,-1
 426 -3 l 1,19,-1
 426 195 l 1,20,-1
 631 205 l 1,0,1
338 205 m 1,21,22
 341 185 341 185 344 160 c 0,23,24
 346 139 346 139 348 111 c 128,-1,25
 350 83 350 83 350 50 c 0,26,27
 350 -63 350 -63 303 -126 c 128,-1,28
 256 -189 256 -189 151 -198 c 1,29,30
 151 -197 151 -197 148 -187.5 c 128,-1,31
 145 -178 145 -178 142 -167 c 128,-1,32
 139 -156 139 -156 136 -146.5 c 128,-1,33
 133 -137 133 -137 133 -136 c 0,34,35
 172 -130 172 -130 195.5 -118 c 128,-1,36
 219 -106 219 -106 231.5 -89 c 128,-1,37
 244 -72 244 -72 248.5 -50.5 c 128,-1,38
 253 -29 253 -29 253 -3 c 1,39,-1
 133 -3 l 1,40,-1
 133 195 l 1,41,-1
 338 205 l 1,21,22
EndSplineSet
EndChar

StartChar: quotedblleft
Encoding: 8220 8220 186
Width: 824
Flags: W
LayerCount: 2
Fore
SplineSet
712 1129 m 1,0,-1
 484 1113 l 1,1,2
 481 1138 481 1138 478 1167 c 0,3,4
 476 1191 476 1191 474.5 1222.5 c 128,-1,5
 473 1254 473 1254 473 1286 c 0,6,7
 473 1394 473 1394 524 1460.5 c 128,-1,8
 575 1527 575 1527 691 1562 c 1,9,-1
 717 1481 l 1,10,11
 682 1476 682 1476 656.5 1461 c 128,-1,12
 631 1446 631 1446 614.5 1426 c 128,-1,13
 598 1406 598 1406 589.5 1382 c 128,-1,14
 581 1358 581 1358 581 1334 c 1,15,-1
 712 1334 l 1,16,-1
 712 1129 l 1,0,-1
361 1129 m 1,17,-1
 133 1113 l 1,18,19
 130 1138 130 1138 127 1167 c 0,20,21
 125 1191 125 1191 123 1222.5 c 128,-1,22
 121 1254 121 1254 121 1286 c 0,23,24
 121 1394 121 1394 171.5 1460.5 c 128,-1,25
 222 1527 222 1527 338 1562 c 1,26,-1
 366 1481 l 1,27,28
 331 1476 331 1476 304.5 1461 c 128,-1,29
 278 1446 278 1446 261 1426 c 128,-1,30
 244 1406 244 1406 235.5 1382 c 128,-1,31
 227 1358 227 1358 227 1334 c 1,32,-1
 361 1334 l 1,33,-1
 361 1129 l 1,17,-1
EndSplineSet
EndChar

StartChar: quotedblright
Encoding: 8221 8221 187
Width: 792
Flags: W
LayerCount: 2
Fore
SplineSet
470 1542 m 1,0,-1
 698 1557 l 1,1,2
 700 1531 700 1531 703 1503 c 0,3,4
 705 1479 705 1479 707 1448.5 c 128,-1,5
 709 1418 709 1418 709 1386 c 0,6,7
 709 1277 709 1277 658.5 1210.5 c 128,-1,8
 608 1144 608 1144 492 1109 c 1,9,-1
 465 1190 l 1,10,11
 500 1195 500 1195 526 1209.5 c 128,-1,12
 552 1224 552 1224 569 1244 c 128,-1,13
 586 1264 586 1264 594.5 1288.5 c 128,-1,14
 603 1313 603 1313 603 1337 c 1,15,-1
 470 1337 l 1,16,-1
 470 1542 l 1,0,-1
116 1542 m 1,17,-1
 345 1557 l 1,18,19
 347 1531 347 1531 350 1503 c 0,20,21
 352 1479 352 1479 353.5 1448.5 c 128,-1,22
 355 1418 355 1418 355 1386 c 0,23,24
 355 1277 355 1277 304.5 1210.5 c 128,-1,25
 254 1144 254 1144 138 1109 c 1,26,-1
 111 1190 l 1,27,28
 146 1195 146 1195 171.5 1209.5 c 128,-1,29
 197 1224 197 1224 214 1244.5 c 128,-1,30
 231 1265 231 1265 239 1289 c 128,-1,31
 247 1313 247 1313 247 1337 c 1,32,-1
 116 1337 l 1,33,-1
 116 1542 l 1,17,-1
EndSplineSet
EndChar

StartChar: quoteleft
Encoding: 8216 8216 188
Width: 471
Flags: W
LayerCount: 2
Fore
SplineSet
359 1134 m 1,0,-1
 131 1118 l 1,1,2
 128 1144 128 1144 125 1172 c 0,3,4
 123 1196 123 1196 121 1227 c 128,-1,5
 119 1258 119 1258 119 1290 c 0,6,7
 119 1398 119 1398 169.5 1464.5 c 128,-1,8
 220 1531 220 1531 336 1566 c 1,9,-1
 364 1486 l 1,10,11
 329 1481 329 1481 302.5 1466.5 c 128,-1,12
 276 1452 276 1452 259 1431.5 c 128,-1,13
 242 1411 242 1411 233.5 1387 c 128,-1,14
 225 1363 225 1363 225 1339 c 1,15,-1
 359 1339 l 1,16,-1
 359 1134 l 1,0,-1
EndSplineSet
EndChar

StartChar: quoteright
Encoding: 8217 8217 189
Width: 441
Flags: W
LayerCount: 2
Fore
SplineSet
117 1537 m 1,0,-1
 345 1553 l 1,1,2
 348 1527 348 1527 351 1499 c 0,3,4
 353 1475 353 1475 355 1444 c 128,-1,5
 357 1413 357 1413 357 1381 c 0,6,7
 357 1272 357 1272 306.5 1205.5 c 128,-1,8
 256 1139 256 1139 140 1104 c 1,9,-1
 112 1185 l 1,10,11
 147 1190 147 1190 173 1204.5 c 128,-1,12
 199 1219 199 1219 216 1239.5 c 128,-1,13
 233 1260 233 1260 241.5 1284.5 c 128,-1,14
 250 1309 250 1309 250 1333 c 1,15,-1
 117 1333 l 1,16,-1
 117 1537 l 1,0,-1
EndSplineSet
EndChar

StartChar: quotesinglbase
Encoding: 8218 8218 190
Width: 481
Flags: W
LayerCount: 2
Fore
SplineSet
338 205 m 1,0,1
 341 185 341 185 344 160 c 0,2,3
 346 139 346 139 348 110.5 c 128,-1,4
 350 82 350 82 350 47 c 0,5,6
 350 -71 350 -71 301.5 -130 c 128,-1,7
 253 -189 253 -189 151 -198 c 1,8,9
 151 -197 151 -197 148 -187.5 c 128,-1,10
 145 -178 145 -178 142 -167 c 128,-1,11
 139 -156 139 -156 136.5 -146.5 c 128,-1,12
 134 -137 134 -137 134 -136 c 0,13,14
 172 -130 172 -130 195.5 -118 c 128,-1,15
 219 -106 219 -106 232 -89.5 c 128,-1,16
 245 -73 245 -73 249.5 -51.5 c 128,-1,17
 254 -30 254 -30 254 -3 c 1,18,-1
 133 -3 l 1,19,-1
 133 195 l 1,20,-1
 338 205 l 1,0,1
EndSplineSet
EndChar

StartChar: quotesingle
Encoding: 39 39 191
Width: 389
Flags: W
LayerCount: 2
Fore
SplineSet
284 1436 m 1,0,1
 284 1371 284 1371 273.5 1296.5 c 128,-1,2
 263 1222 263 1222 250 1157 c 0,3,4
 235 1081 235 1081 216 1007 c 1,5,-1
 141 1007 l 1,6,7
 138 1093 138 1093 135 1173 c 0,8,9
 134 1207 134 1207 133 1243.5 c 128,-1,10
 132 1280 132 1280 131 1314.5 c 128,-1,11
 130 1349 130 1349 129.5 1380.5 c 128,-1,12
 129 1412 129 1412 129 1436 c 1,13,-1
 284 1436 l 1,0,1
EndSplineSet
EndChar

StartChar: r
Encoding: 114 114 192
Width: 736
Flags: W
LayerCount: 2
Fore
SplineSet
598 1043 m 0,0,1
 618 1043 618 1043 637 1039.5 c 128,-1,2
 656 1036 656 1036 671 1032 c 0,3,4
 689 1027 689 1027 704 1021 c 1,5,-1
 682 878 l 1,6,7
 678 881 678 881 668 885 c 1,8,9
 660 887 660 887 645 889.5 c 128,-1,10
 630 892 630 892 606 892 c 0,11,12
 549 892 549 892 501 877 c 128,-1,13
 453 862 453 862 418 845 c 0,14,15
 377 825 377 825 343 799 c 1,16,-1
 343 0 l 1,17,-1
 158 0 l 1,18,-1
 158 1033 l 1,19,-1
 287 1043 l 1,20,-1
 322 917 l 1,21,22
 380 977 380 977 451 1010 c 128,-1,23
 522 1043 522 1043 598 1043 c 0,0,1
EndSplineSet
EndChar

StartChar: radical
Encoding: 8730 8730 193
Width: 1153
Flags: W
LayerCount: 2
Fore
SplineSet
30 895 m 1,0,-1
 339 895 l 1,1,2
 343 880 343 880 353.5 844 c 128,-1,3
 364 808 364 808 379 759.5 c 128,-1,4
 394 711 394 711 411.5 653.5 c 128,-1,5
 429 596 429 596 447.5 536.5 c 128,-1,6
 466 477 466 477 483.5 419 c 128,-1,7
 501 361 501 361 515 312.5 c 128,-1,8
 529 264 529 264 539.5 228 c 128,-1,9
 550 192 550 192 553 176 c 1,10,11
 562 206 562 206 582.5 271.5 c 128,-1,12
 603 337 603 337 630.5 425.5 c 128,-1,13
 658 514 658 514 691 618.5 c 128,-1,14
 724 723 724 723 758 830.5 c 128,-1,15
 792 938 792 938 824.5 1042.5 c 128,-1,16
 857 1147 857 1147 885 1235.5 c 128,-1,17
 913 1324 913 1324 933.5 1389.5 c 128,-1,18
 954 1455 954 1455 963 1485 c 1,19,-1
 1125 1435 l 1,20,21
 1112 1400 1112 1400 1087.5 1327 c 128,-1,22
 1063 1254 1063 1254 1031 1157.5 c 128,-1,23
 999 1061 999 1061 962 947 c 128,-1,24
 925 833 925 833 886.5 716 c 128,-1,25
 848 599 848 599 811 485 c 128,-1,26
 774 371 774 371 742.5 274 c 128,-1,27
 711 177 711 177 686.5 104 c 128,-1,28
 662 31 662 31 649 -4 c 1,29,-1
 458 -4 l 1,30,-1
 180 812 l 1,31,-1
 30 812 l 1,32,-1
 30 895 l 1,0,-1
EndSplineSet
EndChar

StartChar: registered
Encoding: 174 174 194
Width: 1218
Flags: W
LayerCount: 2
Fore
SplineSet
539 1019 m 1,0,-1
 589 1019 l 2,1,2
 626 1019 626 1019 650.5 1023.5 c 128,-1,3
 675 1028 675 1028 689 1038.5 c 128,-1,4
 703 1049 703 1049 708.5 1065.5 c 128,-1,5
 714 1082 714 1082 714 1106 c 0,6,7
 714 1128 714 1128 709 1143.5 c 128,-1,8
 704 1159 704 1159 688.5 1168 c 128,-1,9
 673 1177 673 1177 644 1181 c 128,-1,10
 615 1185 615 1185 567 1185 c 2,11,-1
 539 1185 l 1,12,-1
 539 1019 l 1,0,-1
715 720 m 1,13,-1
 577 947 l 1,14,-1
 537 947 l 1,15,-1
 537 720 l 1,16,-1
 449 720 l 1,17,-1
 449 1257 l 1,18,-1
 569 1257 l 2,19,20
 639 1257 639 1257 684 1247.5 c 128,-1,21
 729 1238 729 1238 755 1219 c 128,-1,22
 781 1200 781 1200 791 1171.5 c 128,-1,23
 801 1143 801 1143 801 1106 c 0,24,25
 801 1071 801 1071 793.5 1045.5 c 128,-1,26
 786 1020 786 1020 769 1002.5 c 128,-1,27
 752 985 752 985 725 973.5 c 128,-1,28
 698 962 698 962 659 955 c 1,29,30
 671 938 671 938 683 919 c 0,31,32
 694 902 694 902 707.5 881 c 128,-1,33
 721 860 721 860 735 838 c 2,34,-1
 811 720 l 1,35,-1
 715 720 l 1,13,-1
110 981 m 256,36,37
 110 1085 110 1085 149 1176 c 128,-1,38
 188 1267 188 1267 255.5 1335 c 128,-1,39
 323 1403 323 1403 414.5 1442 c 128,-1,40
 506 1481 506 1481 610 1481 c 256,41,42
 714 1481 714 1481 805 1442 c 128,-1,43
 896 1403 896 1403 963.5 1335 c 128,-1,44
 1031 1267 1031 1267 1069.5 1176 c 128,-1,45
 1108 1085 1108 1085 1108 981 c 256,46,47
 1108 877 1108 877 1069.5 786 c 128,-1,48
 1031 695 1031 695 963.5 627.5 c 128,-1,49
 896 560 896 560 805 521 c 128,-1,50
 714 482 714 482 610 482 c 256,51,52
 506 482 506 482 414.5 521 c 128,-1,53
 323 560 323 560 255.5 627.5 c 128,-1,54
 188 695 188 695 149 786 c 128,-1,55
 110 877 110 877 110 981 c 256,36,37
197 980 m 0,56,57
 197 891 197 891 229 815 c 128,-1,58
 261 739 261 739 317 683.5 c 128,-1,59
 373 628 373 628 448.5 596.5 c 128,-1,60
 524 565 524 565 610 565 c 256,61,62
 696 565 696 565 771.5 596.5 c 128,-1,63
 847 628 847 628 903 683.5 c 128,-1,64
 959 739 959 739 991 815 c 128,-1,65
 1023 891 1023 891 1023 980 c 0,66,67
 1023 1068 1023 1068 991 1144.5 c 128,-1,68
 959 1221 959 1221 903 1277 c 128,-1,69
 847 1333 847 1333 771.5 1365 c 128,-1,70
 696 1397 696 1397 610 1397 c 256,71,72
 524 1397 524 1397 448.5 1365 c 128,-1,73
 373 1333 373 1333 317 1277 c 128,-1,74
 261 1221 261 1221 229 1144.5 c 128,-1,75
 197 1068 197 1068 197 980 c 0,56,57
EndSplineSet
EndChar

StartChar: s
Encoding: 115 115 195
Width: 925
Flags: W
LayerCount: 2
Fore
SplineSet
102 777 m 0,0,1
 103 850 103 850 130 900 c 128,-1,2
 157 950 157 950 205 982.5 c 128,-1,3
 253 1015 253 1015 320 1029.5 c 128,-1,4
 387 1044 387 1044 470 1043 c 0,5,6
 533 1042 533 1042 584.5 1035.5 c 128,-1,7
 636 1029 636 1029 674 1021 c 0,8,9
 718 1011 718 1011 753 999 c 1,10,-1
 773 858 l 1,11,12
 737 869 737 869 694 878 c 0,13,14
 657 886 657 886 606.5 892.5 c 128,-1,15
 556 899 556 899 496 900 c 0,16,17
 443 900 443 900 401.5 895 c 128,-1,18
 360 890 360 890 331.5 876.5 c 128,-1,19
 303 863 303 863 288 839 c 128,-1,20
 273 815 273 815 273 774 c 0,21,22
 273 737 273 737 283 714.5 c 128,-1,23
 293 692 293 692 320.5 673.5 c 128,-1,24
 348 655 348 655 396 639 c 128,-1,25
 444 623 444 623 519 604 c 0,26,27
 606 581 606 581 667 554.5 c 128,-1,28
 728 528 728 528 766.5 490.5 c 128,-1,29
 805 453 805 453 822.5 400.5 c 128,-1,30
 840 348 840 348 839 282 c 0,31,32
 838 215 838 215 815.5 160 c 128,-1,33
 793 105 793 105 746.5 65.5 c 128,-1,34
 700 26 700 26 629 4 c 128,-1,35
 558 -18 558 -18 460 -18 c 0,36,37
 378 -18 378 -18 317.5 -9 c 128,-1,38
 257 0 257 0 215 11 c 0,39,40
 167 23 167 23 132 40 c 1,41,-1
 113 182 l 1,42,43
 155 166 155 166 207 154 c 0,44,45
 252 143 252 143 312.5 134 c 128,-1,46
 373 125 373 125 445 124 c 0,47,48
 556 123 556 123 610 158.5 c 128,-1,49
 664 194 664 194 665 278 c 0,50,51
 665 310 665 310 656 339 c 128,-1,52
 647 368 647 368 619.5 389.5 c 128,-1,53
 592 411 592 411 541.5 429 c 128,-1,54
 491 447 491 447 410 467 c 0,55,56
 337 485 337 485 279 509 c 128,-1,57
 221 533 221 533 181 568 c 128,-1,58
 141 603 141 603 120.5 653.5 c 128,-1,59
 100 704 100 704 102 777 c 0,0,1
EndSplineSet
EndChar

StartChar: section
Encoding: 167 167 196
Width: 1003
Flags: W
LayerCount: 2
Fore
SplineSet
123 1091 m 0,0,1
 124 1174 124 1174 157 1226.5 c 128,-1,2
 190 1279 190 1279 242 1308.5 c 128,-1,3
 294 1338 294 1338 358.5 1349 c 128,-1,4
 423 1360 423 1360 487 1360 c 0,5,6
 552 1360 552 1360 604.5 1351 c 128,-1,7
 657 1342 657 1342 695 1331 c 0,8,9
 739 1318 739 1318 774 1302 c 1,10,11
 774 1299 774 1299 777.5 1278 c 128,-1,12
 781 1257 781 1257 785 1232.5 c 128,-1,13
 789 1208 789 1208 792.5 1187 c 128,-1,14
 796 1166 796 1166 796 1163 c 1,15,16
 779 1171 779 1171 751.5 1181.5 c 128,-1,17
 724 1192 724 1192 685 1201.5 c 128,-1,18
 646 1211 646 1211 596 1217 c 128,-1,19
 546 1223 546 1223 486 1223 c 1,20,21
 443 1222 443 1222 406.5 1217.5 c 128,-1,22
 370 1213 370 1213 343 1199 c 128,-1,23
 316 1185 316 1185 301 1160 c 128,-1,24
 286 1135 286 1135 286 1094 c 0,25,26
 286 1050 286 1050 307.5 1021.5 c 128,-1,27
 329 993 329 993 367 971.5 c 128,-1,28
 405 950 405 950 456 931.5 c 128,-1,29
 507 913 507 913 567 889 c 0,30,31
 636 862 636 862 693.5 837.5 c 128,-1,32
 751 813 751 813 792 783 c 128,-1,33
 833 753 833 753 855.5 713.5 c 128,-1,34
 878 674 878 674 878 617 c 0,35,36
 878 575 878 575 864 541 c 128,-1,37
 850 507 850 507 832.5 483 c 128,-1,38
 815 459 815 459 799.5 445.5 c 128,-1,39
 784 432 784 432 781 430 c 1,40,41
 799 417 799 417 819.5 397.5 c 128,-1,42
 840 378 840 378 856.5 352.5 c 128,-1,43
 873 327 873 327 883.5 295.5 c 128,-1,44
 894 264 894 264 893 227 c 1,45,46
 893 169 893 169 872 119 c 128,-1,47
 851 69 851 69 804.5 32 c 128,-1,48
 758 -5 758 -5 684 -26 c 128,-1,49
 610 -47 610 -47 504 -47 c 0,50,51
 432 -47 432 -47 373.5 -37 c 128,-1,52
 315 -27 315 -27 273 -14 c 0,53,54
 224 0 224 0 184 19 c 1,55,-1
 162 159 l 1,56,57
 207 139 207 139 262 124 c 0,58,59
 308 111 308 111 369 100.5 c 128,-1,60
 430 90 430 90 499 90 c 0,61,62
 552 90 552 90 593 97.5 c 128,-1,63
 634 105 634 105 662 121.5 c 128,-1,64
 690 138 690 138 705 165 c 128,-1,65
 720 192 720 192 721 232 c 0,66,67
 722 278 722 278 695 309 c 128,-1,68
 668 340 668 340 623.5 363 c 128,-1,69
 579 386 579 386 521.5 405.5 c 128,-1,70
 464 425 464 425 406 449 c 0,71,72
 323 483 323 483 270 513.5 c 128,-1,73
 217 544 217 544 185.5 575.5 c 128,-1,74
 154 607 154 607 142 641.5 c 128,-1,75
 130 676 130 676 130 717 c 0,76,77
 130 747 130 747 139 772.5 c 128,-1,78
 148 798 148 798 162 820 c 128,-1,79
 176 842 176 842 194.5 860 c 128,-1,80
 213 878 213 878 231 892 c 1,81,82
 215 903 215 903 196 920 c 128,-1,83
 177 937 177 937 160.5 961 c 128,-1,84
 144 985 144 985 133 1017 c 128,-1,85
 122 1049 122 1049 123 1091 c 0,0,1
751 603 m 0,86,87
 751 632 751 632 738 651.5 c 128,-1,88
 725 671 725 671 697 687.5 c 128,-1,89
 669 704 669 704 625.5 721.5 c 128,-1,90
 582 739 582 739 521 763 c 0,91,92
 497 772 497 772 475.5 780.5 c 128,-1,93
 454 789 454 789 430 798 c 128,-1,94
 406 807 406 807 377.5 818.5 c 128,-1,95
 349 830 349 830 312 846 c 1,96,97
 304 841 304 841 294 831 c 128,-1,98
 284 821 284 821 275.5 808 c 128,-1,99
 267 795 267 795 261 780.5 c 128,-1,100
 255 766 255 766 254 751 c 0,101,102
 252 723 252 723 259 702.5 c 128,-1,103
 266 682 266 682 287.5 663 c 128,-1,104
 309 644 309 644 349.5 623.5 c 128,-1,105
 390 603 390 603 455 576 c 0,106,107
 488 563 488 563 522.5 549.5 c 128,-1,108
 557 536 557 536 589.5 523 c 128,-1,109
 622 510 622 510 650 498 c 128,-1,110
 678 486 678 486 699 476 c 1,111,112
 714 490 714 490 725 508 c 0,113,114
 735 524 735 524 743 547.5 c 128,-1,115
 751 571 751 571 751 603 c 0,86,87
EndSplineSet
EndChar

StartChar: semicolon
Encoding: 59 59 197
Width: 514
Flags: W
LayerCount: 2
Fore
SplineSet
357 805 m 1,0,-1
 357 591 l 1,1,-1
 152 591 l 1,2,-1
 152 805 l 1,3,-1
 357 805 l 1,0,-1
152 189 m 1,4,-1
 355 195 l 1,5,6
 358 175 358 175 361 150 c 0,7,8
 363 129 363 129 365 101.5 c 128,-1,9
 367 74 367 74 367 43 c 0,10,11
 367 -4 367 -4 358 -43.5 c 128,-1,12
 349 -83 349 -83 328.5 -115.5 c 128,-1,13
 308 -148 308 -148 273.5 -172.5 c 128,-1,14
 239 -197 239 -197 188 -213 c 1,15,-1
 160 -133 l 1,16,17
 206 -127 206 -127 228 -90 c 128,-1,18
 250 -53 250 -53 250 0 c 1,19,-1
 152 0 l 1,20,-1
 152 189 l 1,4,-1
EndSplineSet
EndChar

StartChar: seven
Encoding: 55 55 198
Width: 917
Flags: W
LayerCount: 2
Fore
SplineSet
205 48 m 1,0,-1
 528 817 l 1,1,-1
 678 1174 l 1,2,-1
 370 1171 l 1,3,-1
 59 1171 l 1,4,-1
 69 1317 l 1,5,-1
 826 1317 l 1,6,-1
 867 1177 l 1,7,-1
 365 -24 l 1,8,-1
 205 48 l 1,0,-1
EndSplineSet
EndChar

StartChar: six
Encoding: 54 54 199
Width: 1196
Flags: W
LayerCount: 2
Fore
SplineSet
941 1191 m 1,0,1
 854 1202 854 1202 781.5 1203 c 128,-1,2
 709 1204 709 1204 647 1195 c 1,3,4
 560 1185 560 1185 498.5 1149.5 c 128,-1,5
 437 1114 437 1114 398 1053.5 c 128,-1,6
 359 993 359 993 340.5 905.5 c 128,-1,7
 322 818 322 818 321 705 c 1,8,9
 346 722 346 722 383 746 c 128,-1,10
 420 770 420 770 469 791 c 128,-1,11
 518 812 518 812 577.5 827 c 128,-1,12
 637 842 637 842 706 842 c 0,13,14
 794 842 794 842 868 813 c 128,-1,15
 942 784 942 784 996 730 c 128,-1,16
 1050 676 1050 676 1080 599 c 128,-1,17
 1110 522 1110 522 1110 427 c 0,18,19
 1110 340 1110 340 1081 258.5 c 128,-1,20
 1052 177 1052 177 991.5 114 c 128,-1,21
 931 51 931 51 838 13.5 c 128,-1,22
 745 -24 745 -24 616 -24 c 0,23,24
 498 -24 498 -24 407 18 c 128,-1,25
 316 60 316 60 254.5 140 c 128,-1,26
 193 220 193 220 161.5 336 c 128,-1,27
 130 452 130 452 130 600 c 0,28,29
 130 770 130 770 156 901 c 128,-1,30
 182 1032 182 1032 241 1124.5 c 128,-1,31
 300 1217 300 1217 396 1270.5 c 128,-1,32
 492 1324 492 1324 632 1337 c 1,33,34
 695 1346 695 1346 765.5 1346 c 128,-1,35
 836 1346 836 1346 918 1338 c 1,36,-1
 941 1191 l 1,0,1
669 692 m 0,37,38
 595 692 595 692 532.5 674 c 128,-1,39
 470 656 470 656 423 636 c 0,40,41
 368 612 368 612 323 582 c 1,42,43
 323 580 323 580 322.5 572.5 c 128,-1,44
 322 565 322 565 322 556 c 128,-1,45
 322 547 322 547 322 539.5 c 128,-1,46
 322 532 322 532 322 529 c 0,47,48
 321 334 321 334 398 227 c 128,-1,49
 475 120 475 120 626 120 c 0,50,51
 774 120 774 120 851.5 194.5 c 128,-1,52
 929 269 929 269 929 424 c 0,53,54
 929 486 929 486 914 535.5 c 128,-1,55
 899 585 899 585 867.5 619.5 c 128,-1,56
 836 654 836 654 786.5 673 c 128,-1,57
 737 692 737 692 669 692 c 0,37,38
EndSplineSet
EndChar

StartChar: sterling
Encoding: 163 163 200
Width: 994
Flags: W
LayerCount: 2
Fore
SplineSet
874 -3 m 1,0,-1
 89 -3 l 1,1,-1
 89 140 l 1,2,-1
 185 140 l 1,3,4
 210 168 210 168 229 238 c 0,5,6
 237 268 237 268 245 309.5 c 128,-1,7
 253 351 253 351 259.5 407 c 128,-1,8
 266 463 266 463 270 535 c 128,-1,9
 274 607 274 607 274 697 c 1,10,-1
 108 697 l 1,11,-1
 108 814 l 1,12,-1
 274 814 l 1,13,-1
 274 1059 l 2,14,15
 274 1149 274 1149 294.5 1222.5 c 128,-1,16
 315 1296 315 1296 357.5 1347.5 c 128,-1,17
 400 1399 400 1399 466 1426.5 c 128,-1,18
 532 1454 532 1454 623 1453 c 0,19,20
 676 1452 676 1452 720.5 1443.5 c 128,-1,21
 765 1435 765 1435 798 1424 c 0,22,23
 837 1412 837 1412 868 1396 c 1,24,-1
 868 1257 l 1,25,26
 837 1269 837 1269 803 1280 c 0,27,28
 774 1289 774 1289 735 1296 c 128,-1,29
 696 1303 696 1303 654 1304 c 1,30,31
 573 1304 573 1304 532.5 1272 c 128,-1,32
 492 1240 492 1240 476 1177.5 c 128,-1,33
 460 1115 460 1115 460 1023.5 c 128,-1,34
 460 932 460 932 460 814 c 1,35,-1
 821 814 l 1,36,-1
 821 697 l 1,37,-1
 460 697 l 1,38,39
 460 602 460 602 455 527.5 c 128,-1,40
 450 453 450 453 442 396 c 128,-1,41
 434 339 434 339 423.5 298 c 128,-1,42
 413 257 413 257 403 229 c 0,43,44
 378 162 378 162 347 141 c 1,45,-1
 885 141 l 1,46,-1
 874 -3 l 1,0,-1
EndSplineSet
EndChar

StartChar: summation
Encoding: 8721 8721 201
Width: 1062
Flags: W
LayerCount: 2
Fore
SplineSet
683 707 m 1,0,-1
 449 338 l 1,1,-1
 319 151 l 1,2,-1
 491 160 l 1,3,-1
 972 160 l 1,4,-1
 972 -3 l 1,5,-1
 59 -3 l 1,6,-1
 497 707 l 1,7,-1
 72 1398 l 1,8,-1
 948 1398 l 1,9,-1
 949 1248 l 1,10,-1
 496 1248 l 1,11,-1
 315 1253 l 1,12,-1
 455 1059 l 1,13,-1
 683 707 l 1,0,-1
EndSplineSet
EndChar

StartChar: t
Encoding: 116 116 202
Width: 679
Flags: W
LayerCount: 2
Fore
SplineSet
444 -18 m 0,0,1
 376 -18 376 -18 329 -1 c 128,-1,2
 282 16 282 16 253 57 c 128,-1,3
 224 98 224 98 210.5 166.5 c 128,-1,4
 197 235 197 235 197 337 c 2,5,-1
 197 927 l 1,6,-1
 55 927 l 1,7,-1
 55 1031 l 1,8,-1
 204 1031 l 1,9,-1
 230 1345 l 1,10,-1
 379 1374 l 1,11,-1
 379 1031 l 1,12,-1
 635 1031 l 1,13,-1
 635 927 l 1,14,-1
 382 927 l 1,15,-1
 382 298 l 2,16,17
 382 244 382 244 385.5 208.5 c 128,-1,18
 389 173 389 173 400.5 152 c 128,-1,19
 412 131 412 131 433.5 122.5 c 128,-1,20
 455 114 455 114 492 114 c 0,21,22
 519 114 519 114 544 116.5 c 128,-1,23
 569 119 569 119 589 123 c 0,24,25
 612 127 612 127 631 132 c 1,26,-1
 615 3 l 1,27,28
 597 -4 597 -4 571 -8 c 0,29,30
 549 -12 549 -12 517.5 -15 c 128,-1,31
 486 -18 486 -18 444 -18 c 0,0,1
EndSplineSet
EndChar

StartChar: three
Encoding: 51 51 203
Width: 1061
Flags: W
LayerCount: 2
Fore
SplineSet
125 189 m 1,0,1
 138 186 138 186 173.5 177 c 128,-1,2
 209 168 209 168 257.5 157.5 c 128,-1,3
 306 147 306 147 364 139.5 c 128,-1,4
 422 132 422 132 479 132 c 0,5,6
 537 132 537 132 584.5 146.5 c 128,-1,7
 632 161 632 161 665 189.5 c 128,-1,8
 698 218 698 218 716 262 c 128,-1,9
 734 306 734 306 734 367 c 0,10,11
 734 430 734 430 714 479 c 128,-1,12
 694 528 694 528 647 561.5 c 128,-1,13
 600 595 600 595 522.5 611.5 c 128,-1,14
 445 628 445 628 330 628 c 1,15,-1
 330 789 l 1,16,17
 436 789 436 789 507.5 799.5 c 128,-1,18
 579 810 579 810 621.5 835.5 c 128,-1,19
 664 861 664 861 682 904 c 128,-1,20
 700 947 700 947 700 1011 c 0,21,22
 700 1070 700 1070 681 1110 c 128,-1,23
 662 1150 662 1150 628.5 1175 c 128,-1,24
 595 1200 595 1200 549.5 1210.5 c 128,-1,25
 504 1221 504 1221 452 1221 c 0,26,27
 405 1221 405 1221 351.5 1214.5 c 128,-1,28
 298 1208 298 1208 250.5 1199 c 128,-1,29
 203 1190 203 1190 166 1180.5 c 128,-1,30
 129 1171 129 1171 115 1167 c 1,31,-1
 140 1320 l 1,32,33
 156 1325 156 1325 186.5 1333 c 128,-1,34
 217 1341 217 1341 258 1349 c 128,-1,35
 299 1357 299 1357 348.5 1363.5 c 128,-1,36
 398 1370 398 1370 452 1370 c 0,37,38
 552 1370 552 1370 633 1350 c 128,-1,39
 714 1330 714 1330 771 1288 c 128,-1,40
 828 1246 828 1246 858.5 1182 c 128,-1,41
 889 1118 889 1118 889 1030 c 0,42,43
 889 976 889 976 878.5 933.5 c 128,-1,44
 868 891 868 891 851 858 c 128,-1,45
 834 825 834 825 812 802 c 128,-1,46
 790 779 790 779 768 761 c 1,47,48
 715 724 715 724 648 712 c 1,49,50
 729 706 729 706 792 670 c 1,51,52
 819 652 819 652 845 628 c 128,-1,53
 871 604 871 604 891 568.5 c 128,-1,54
 911 533 911 533 923.5 485 c 128,-1,55
 936 437 936 437 936 376 c 0,56,57
 936 258 936 258 900 181 c 128,-1,58
 864 104 864 104 801.5 58 c 128,-1,59
 739 12 739 12 655 -6 c 128,-1,60
 571 -24 571 -24 476 -24 c 0,61,62
 414 -24 414 -24 352 -15.5 c 128,-1,63
 290 -7 290 -7 237.5 4 c 128,-1,64
 185 15 185 15 146 25.5 c 128,-1,65
 107 36 107 36 91 40 c 1,66,-1
 125 189 l 1,0,1
EndSplineSet
EndChar

StartChar: trademark
Encoding: 8482 8482 204
Width: 1169
Flags: W
LayerCount: 2
Fore
SplineSet
345 1330 m 1,0,-1
 345 897 l 1,1,-1
 248 897 l 1,2,-1
 248 1330 l 1,3,-1
 116 1330 l 1,4,-1
 116 1405 l 1,5,-1
 478 1405 l 1,6,-1
 478 1330 l 1,7,-1
 345 1330 l 1,0,-1
928 897 m 1,8,-1
 928 1172 l 1,9,-1
 940 1368 l 1,10,-1
 900 1186 l 1,11,12
 881 1115 881 1115 862.5 1046 c 128,-1,13
 844 977 844 977 824 905 c 1,14,-1
 728 905 l 1,15,16
 695 1019 695 1019 667 1133 c 128,-1,17
 639 1247 639 1247 614 1363 c 1,18,-1
 626 1172 l 1,19,-1
 626 1127 l 1,20,-1
 626 897 l 1,21,-1
 537 897 l 1,22,-1
 537 1405 l 1,23,-1
 677 1405 l 1,24,25
 692 1343 692 1343 708.5 1282.5 c 128,-1,26
 725 1222 725 1222 739 1159 c 2,27,-1
 777 986 l 1,28,-1
 814 1184 l 1,29,30
 817 1193 817 1193 820 1203 c 128,-1,31
 823 1213 823 1213 826 1223 c 2,32,-1
 877 1405 l 1,33,-1
 1017 1405 l 1,34,-1
 1017 897 l 1,35,-1
 928 897 l 1,8,-1
EndSplineSet
EndChar

StartChar: two
Encoding: 50 50 205
Width: 988
Flags: W
LayerCount: 2
Fore
SplineSet
488 1363 m 0,0,1
 586 1363 586 1363 658 1336.5 c 128,-1,2
 730 1310 730 1310 777.5 1261 c 128,-1,3
 825 1212 825 1212 848 1144.5 c 128,-1,4
 871 1077 871 1077 871 996 c 0,5,6
 871 934 871 934 856.5 881 c 128,-1,7
 842 828 842 828 817 778 c 128,-1,8
 792 728 792 728 757 680.5 c 128,-1,9
 722 633 722 633 682 585 c 2,10,-1
 304 144 l 1,11,-1
 856 144 l 1,12,-1
 836 0 l 1,13,-1
 120 0 l 1,14,-1
 90 146 l 1,15,-1
 553 700 l 2,16,17
 577 729 577 729 602 763 c 128,-1,18
 627 797 627 797 646.5 834.5 c 128,-1,19
 666 872 666 872 678.5 911 c 128,-1,20
 691 950 691 950 691 993 c 0,21,22
 691 1040 691 1040 677 1081.5 c 128,-1,23
 663 1123 663 1123 634.5 1153.5 c 128,-1,24
 606 1184 606 1184 562 1200.5 c 128,-1,25
 518 1217 518 1217 458 1217 c 0,26,27
 402 1217 402 1217 342.5 1205 c 128,-1,28
 283 1193 283 1193 232 1179 c 1,29,30
 173 1160 173 1160 117 1140 c 1,31,-1
 137 1296 l 1,32,33
 189 1314 189 1314 247 1329 c 0,34,35
 297 1342 297 1342 359.5 1352.5 c 128,-1,36
 422 1363 422 1363 488 1363 c 0,0,1
EndSplineSet
EndChar

StartChar: u
Encoding: 117 117 206
Width: 1155
Flags: W
LayerCount: 2
Fore
SplineSet
998 0 m 1,0,-1
 864 -11 l 1,1,-1
 839 118 l 1,2,3
 800 80 800 80 746 50 c 0,4,5
 700 24 700 24 634.5 3 c 128,-1,6
 569 -18 569 -18 484 -18 c 0,7,8
 310 -18 310 -18 229.5 92.5 c 128,-1,9
 149 203 149 203 149 438 c 2,10,-1
 149 1031 l 1,11,-1
 333 1031 l 1,12,-1
 333 445 l 2,13,14
 333 358 333 358 342.5 296.5 c 128,-1,15
 352 235 352 235 374.5 196.5 c 128,-1,16
 397 158 397 158 434.5 140 c 128,-1,17
 472 122 472 122 527 122 c 0,18,19
 590 122 590 122 642.5 136.5 c 128,-1,20
 695 151 695 151 733 169 c 0,21,22
 778 190 778 190 813 217 c 1,23,-1
 813 1031 l 1,24,-1
 998 1031 l 1,25,-1
 998 0 l 1,0,-1
EndSplineSet
EndChar

StartChar: underscore
Encoding: 95 95 211
Width: 1156
Flags: W
LayerCount: 2
Fore
SplineSet
121 -1 m 1,0,-1
 121 149 l 1,1,-1
 1035 149 l 1,2,-1
 1035 -1 l 1,3,-1
 121 -1 l 1,0,-1
EndSplineSet
EndChar

StartChar: v
Encoding: 118 118 212
Width: 965
Flags: W
LayerCount: 2
Fore
SplineSet
373 0 m 1,0,-1
 45 1031 l 1,1,-1
 239 1031 l 1,2,-1
 482 161 l 1,3,-1
 732 1031 l 1,4,-1
 921 1031 l 1,5,-1
 594 0 l 1,6,-1
 373 0 l 1,0,-1
EndSplineSet
EndChar

StartChar: w
Encoding: 119 119 213
Width: 1485
Flags: W
LayerCount: 2
Fore
SplineSet
567 0 m 1,0,-1
 321 0 l 1,1,-1
 64 1031 l 1,2,-1
 264 1031 l 1,3,-1
 451 93 l 1,4,-1
 618 1011 l 1,5,-1
 853 1011 l 1,6,-1
 1051 93 l 1,7,-1
 1213 1031 l 1,8,-1
 1414 1031 l 1,9,-1
 1175 0 l 1,10,-1
 931 0 l 1,11,-1
 735 877 l 1,12,-1
 567 0 l 1,0,-1
EndSplineSet
EndChar

StartChar: x
Encoding: 120 120 214
Width: 997
Flags: W
LayerCount: 2
Fore
SplineSet
395 513 m 1,0,-1
 53 1031 l 1,1,-1
 247 1031 l 1,2,-1
 499 617 l 1,3,-1
 749 1031 l 1,4,-1
 945 1031 l 1,5,-1
 601 513 l 1,6,-1
 945 0 l 1,7,-1
 738 0 l 1,8,-1
 499 402 l 1,9,-1
 258 0 l 1,10,-1
 53 0 l 1,11,-1
 395 513 l 1,0,-1
EndSplineSet
EndChar

StartChar: y
Encoding: 121 121 215
Width: 979
Flags: W
LayerCount: 2
Fore
SplineSet
491 136 m 1,0,-1
 738 1031 l 1,1,-1
 934 1031 l 1,2,-1
 581 -60 l 2,3,4
 552 -149 552 -149 527.5 -218 c 128,-1,5
 503 -287 503 -287 473.5 -334 c 128,-1,6
 444 -381 444 -381 405.5 -405 c 128,-1,7
 367 -429 367 -429 311 -429 c 0,8,9
 249 -429 249 -429 198 -417 c 128,-1,10
 147 -405 147 -405 110 -390 c 0,11,12
 67 -373 67 -373 32 -351 c 1,13,-1
 45 -225 l 1,14,15
 85 -241 85 -241 125 -252 c 0,16,17
 160 -262 160 -262 200.5 -270 c 128,-1,18
 241 -278 241 -278 279 -278 c 0,19,20
 301 -278 301 -278 316 -269.5 c 128,-1,21
 331 -261 331 -261 341.5 -245.5 c 128,-1,22
 352 -230 352 -230 359.5 -207 c 128,-1,23
 367 -184 367 -184 375 -154 c 1,24,-1
 399 -47 l 1,25,-1
 43 1031 l 1,26,-1
 242 1031 l 1,27,-1
 491 136 l 1,0,-1
EndSplineSet
EndChar

StartChar: yen
Encoding: 165 165 217
Width: 1061
Flags: W
LayerCount: 2
Fore
SplineSet
170 550 m 1,0,-1
 406 550 l 1,1,2
 402 558 402 558 385.5 597 c 128,-1,3
 369 636 369 636 345 694.5 c 128,-1,4
 321 753 321 753 291 826 c 128,-1,5
 261 899 261 899 230 974.5 c 128,-1,6
 199 1050 199 1050 169 1122.5 c 128,-1,7
 139 1195 139 1195 115 1253.5 c 128,-1,8
 91 1312 91 1312 75 1351 c 128,-1,9
 59 1390 59 1390 55 1398 c 1,10,-1
 246 1398 l 1,11,-1
 447 879 l 1,12,13
 448 873 448 873 454 852.5 c 128,-1,14
 460 832 460 832 469 804 c 128,-1,15
 478 776 478 776 487.5 744.5 c 128,-1,16
 497 713 497 713 506 685 c 128,-1,17
 515 657 515 657 521 636 c 128,-1,18
 527 615 527 615 528 609 c 1,19,20
 529 612 529 612 535.5 632 c 128,-1,21
 542 652 542 652 551 681 c 128,-1,22
 560 710 560 710 570.5 743 c 128,-1,23
 581 776 581 776 590 805 c 128,-1,24
 599 834 599 834 605.5 854.5 c 128,-1,25
 612 875 612 875 613 879 c 0,26,27
 613 882 613 882 621 905 c 128,-1,28
 629 928 629 928 642.5 963.5 c 128,-1,29
 656 999 656 999 673 1044 c 128,-1,30
 690 1089 690 1089 708 1135.5 c 128,-1,31
 726 1182 726 1182 743.5 1227 c 128,-1,32
 761 1272 761 1272 775 1308.5 c 128,-1,33
 789 1345 789 1345 798 1369 c 128,-1,34
 807 1393 807 1393 809 1398 c 1,35,-1
 1001 1398 l 1,36,37
 997 1390 997 1390 981 1351 c 128,-1,38
 965 1312 965 1312 940.5 1253.5 c 128,-1,39
 916 1195 916 1195 886 1122.5 c 128,-1,40
 856 1050 856 1050 825 974.5 c 128,-1,41
 794 899 794 899 764 826 c 128,-1,42
 734 753 734 753 710 694.5 c 128,-1,43
 686 636 686 636 669.5 597 c 128,-1,44
 653 558 653 558 649 550 c 1,45,-1
 899 550 l 1,46,-1
 899 460 l 1,47,-1
 628 460 l 1,48,49
 627 455 627 455 626.5 437 c 128,-1,50
 626 419 626 419 625 399 c 128,-1,51
 624 379 624 379 623.5 361 c 128,-1,52
 623 343 623 343 623 339 c 1,53,-1
 902 339 l 1,54,-1
 902 254 l 1,55,-1
 618 254 l 1,56,-1
 618 -3 l 1,57,-1
 437 -3 l 1,58,-1
 437 254 l 1,59,-1
 170 254 l 1,60,-1
 170 339 l 1,61,-1
 433 339 l 1,62,-1
 427 460 l 1,63,-1
 170 460 l 1,64,-1
 170 550 l 1,0,-1
EndSplineSet
EndChar

StartChar: z
Encoding: 122 122 218
Width: 886
Flags: W
LayerCount: 2
Fore
SplineSet
810 888 m 1,0,-1
 272 134 l 1,1,-1
 460 138 l 1,2,-1
 769 138 l 1,3,-1
 769 0 l 1,4,-1
 83 0 l 1,5,-1
 83 153 l 1,6,-1
 621 898 l 1,7,-1
 377 893 l 1,8,-1
 121 893 l 1,9,-1
 121 1031 l 1,10,-1
 778 1031 l 1,11,-1
 810 888 l 1,0,-1
EndSplineSet
EndChar

StartChar: zero
Encoding: 48 48 219
Width: 1280
Flags: W
LayerCount: 2
Fore
SplineSet
639 123 m 0,0,1
 738 123 738 123 800.5 162.5 c 128,-1,2
 863 202 863 202 897.5 273.5 c 128,-1,3
 932 345 932 345 944.5 446.5 c 128,-1,4
 957 548 957 548 957 674 c 0,5,6
 957 796 957 796 943.5 898 c 128,-1,7
 930 1000 930 1000 894.5 1072.5 c 128,-1,8
 859 1145 859 1145 797 1186 c 128,-1,9
 735 1227 735 1227 639 1227 c 256,10,11
 543 1227 543 1227 481.5 1186.5 c 128,-1,12
 420 1146 420 1146 384.5 1073.5 c 128,-1,13
 349 1001 349 1001 336 899 c 128,-1,14
 323 797 323 797 323 674 c 0,15,16
 323 548 323 548 336.5 446.5 c 128,-1,17
 350 345 350 345 385.5 273.5 c 128,-1,18
 421 202 421 202 482.5 162.5 c 128,-1,19
 544 123 544 123 639 123 c 0,0,1
133 673 m 0,20,21
 133 834 133 834 158 964 c 128,-1,22
 183 1094 183 1094 242 1184 c 128,-1,23
 301 1274 301 1274 398 1321.5 c 128,-1,24
 495 1369 495 1369 639 1369 c 0,25,26
 784 1369 784 1369 881.5 1321.5 c 128,-1,27
 979 1274 979 1274 1038 1184 c 128,-1,28
 1097 1094 1097 1094 1122 964 c 128,-1,29
 1147 834 1147 834 1147 673 c 0,30,31
 1147 509 1147 509 1121 379 c 128,-1,32
 1095 249 1095 249 1035 160 c 128,-1,33
 975 71 975 71 878 23.5 c 128,-1,34
 781 -24 781 -24 639 -24 c 256,35,36
 497 -24 497 -24 400.5 23.5 c 128,-1,37
 304 71 304 71 244.5 160 c 128,-1,38
 185 249 185 249 159 379 c 128,-1,39
 133 509 133 509 133 673 c 0,20,21
EndSplineSet
EndChar

StartChar: AE
Encoding: 198 198 222
Width: 1576
Flags: W
LayerCount: 2
Fore
SplineSet
706 0 m 1,0,-1
 706 288 l 1,1,-1
 351 288 l 1,2,-1
 240 0 l 1,3,-1
 19 0 l 1,4,-1
 581 1409 l 1,5,-1
 1459 1409 l 1,6,-1
 1459 1263 l 1,7,-1
 894 1263 l 1,8,-1
 894 810 l 1,9,-1
 1400 810 l 1,10,-1
 1400 665 l 1,11,-1
 894 665 l 1,12,-1
 894 146 l 1,13,-1
 1471 146 l 1,14,-1
 1471 0 l 1,15,-1
 706 0 l 1,0,-1
387 421 m 1,16,-1
 706 421 l 1,17,-1
 706 1276 l 1,18,-1
 599 960 l 1,19,-1
 387 421 l 1,16,-1
EndSplineSet
EndChar

StartChar: Euro
Encoding: 8364 8364 224
Width: 1279
Flags: W
LayerCount: 2
Fore
SplineSet
80 890 m 1,0,-1
 204 890 l 1,1,2
 223 1041 223 1041 274 1145.5 c 128,-1,3
 325 1250 325 1250 401.5 1314.5 c 128,-1,4
 478 1379 478 1379 575.5 1407.5 c 128,-1,5
 673 1436 673 1436 786 1436 c 0,6,7
 867 1436 867 1436 936.5 1426.5 c 128,-1,8
 1006 1417 1006 1417 1057 1406 c 0,9,10
 1117 1393 1117 1393 1165 1377 c 1,11,-1
 1180 1226 l 1,12,13
 1130 1243 1130 1243 1070 1257 c 0,14,15
 1019 1268 1019 1268 951.5 1278 c 128,-1,16
 884 1288 884 1288 807 1288 c 0,17,18
 725 1288 725 1288 657 1267 c 128,-1,19
 589 1246 589 1246 537.5 1198.5 c 128,-1,20
 486 1151 486 1151 451.5 1075.5 c 128,-1,21
 417 1000 417 1000 403 890 c 1,22,-1
 699 890 l 1,23,-1
 699 762 l 1,24,-1
 391 762 l 1,25,-1
 391 718 l 2,26,27
 391 700 391 700 391 683 c 128,-1,28
 391 666 391 666 392 649 c 1,29,-1
 701 649 l 1,30,-1
 701 521 l 1,31,-1
 406 521 l 1,32,33
 419 413 419 413 450 337 c 128,-1,34
 481 261 481 261 528.5 213 c 128,-1,35
 576 165 576 165 641 143 c 128,-1,36
 706 121 706 121 788 121 c 256,37,38
 870 121 870 121 941 131.5 c 128,-1,39
 1012 142 1012 142 1066 156 c 0,40,41
 1128 171 1128 171 1180 191 c 1,42,-1
 1164 39 l 1,43,44
 1115 20 1115 20 1053 5 c 0,45,46
 1000 -8 1000 -8 927 -18 c 128,-1,47
 854 -28 854 -28 766 -28 c 0,48,49
 661 -28 661 -28 567.5 -2 c 128,-1,50
 474 24 474 24 400.5 87.5 c 128,-1,51
 327 151 327 151 277 256.5 c 128,-1,52
 227 362 227 362 207 521 c 1,53,-1
 81 521 l 1,54,-1
 81 649 l 1,55,-1
 194 649 l 1,56,57
 193 666 193 666 192.5 682.5 c 128,-1,58
 192 699 192 699 192 716 c 0,59,60
 192 722 192 722 192 739 c 128,-1,61
 192 756 192 756 193 762 c 1,62,-1
 80 762 l 1,63,-1
 80 890 l 1,0,-1
EndSplineSet
EndChar

StartChar: Eth
Encoding: 208 208 225
Width: 1391
Flags: W
LayerCount: 2
Fore
SplineSet
194 0 m 1,0,-1
 194 677 l 1,1,-1
 45 677 l 1,2,-1
 45 806 l 1,3,-1
 194 806 l 1,4,-1
 194 1437 l 1,5,-1
 606 1437 l 2,6,7
 690 1437 690 1437 771.5 1428.5 c 128,-1,8
 853 1420 853 1420 927 1394 c 128,-1,9
 1001 1368 1001 1368 1064 1322 c 128,-1,10
 1127 1276 1127 1276 1173 1201 c 128,-1,11
 1219 1126 1219 1126 1245 1018 c 128,-1,12
 1271 910 1271 910 1271 749 c 0,13,14
 1271 622 1271 622 1260 524.5 c 128,-1,15
 1249 427 1249 427 1221.5 345.5 c 128,-1,16
 1194 264 1194 264 1148.5 200 c 128,-1,17
 1103 136 1103 136 1034 91.5 c 128,-1,18
 965 47 965 47 871 23.5 c 128,-1,19
 777 0 777 0 652 0 c 2,20,-1
 194 0 l 1,0,-1
588 139 m 2,21,22
 685 139 685 139 760 151 c 128,-1,23
 835 163 835 163 890 190 c 128,-1,24
 945 217 945 217 982 261.5 c 128,-1,25
 1019 306 1019 306 1041.5 371 c 128,-1,26
 1064 436 1064 436 1073.5 523.5 c 128,-1,27
 1083 611 1083 611 1083 741 c 0,28,29
 1083 886 1083 886 1063.5 987 c 128,-1,30
 1044 1088 1044 1088 995 1156 c 128,-1,31
 946 1224 946 1224 864 1258.5 c 128,-1,32
 782 1293 782 1293 658 1293 c 2,33,-1
 386 1293 l 1,34,-1
 386 806 l 1,35,-1
 612 806 l 1,36,-1
 612 677 l 1,37,-1
 386 677 l 1,38,-1
 386 139 l 1,39,-1
 588 139 l 2,21,22
EndSplineSet
EndChar

StartChar: lslash
Encoding: 322 322 229
Width: 683
Flags: W
LayerCount: 2
Fore
SplineSet
261 713 m 1,0,-1
 37 605 l 1,1,-1
 37 750 l 1,2,-1
 261 858 l 1,3,-1
 261 1470 l 1,4,-1
 445 1496 l 1,5,-1
 445 949 l 1,6,-1
 664 1055 l 1,7,-1
 664 911 l 1,8,-1
 445 805 l 1,9,-1
 445 0 l 1,10,-1
 261 0 l 1,11,-1
 261 713 l 1,0,-1
EndSplineSet
EndChar

StartChar: Lslash
Encoding: 321 321 232
Width: 1014
Flags: W
LayerCount: 2
Fore
SplineSet
197 0 m 1,0,-1
 197 641 l 1,1,-1
 49 577 l 1,2,-1
 49 722 l 1,3,-1
 197 786 l 1,4,-1
 197 1408 l 1,5,-1
 382 1408 l 1,6,-1
 382 862 l 1,7,-1
 729 1014 l 1,8,-1
 729 870 l 1,9,-1
 382 717 l 1,10,-1
 382 145 l 1,11,-1
 970 145 l 1,12,-1
 953 0 l 1,13,-1
 197 0 l 1,0,-1
EndSplineSet
EndChar

StartChar: multiply
Encoding: 215 215 233
Width: 865
Flags: W
LayerCount: 2
Fore
SplineSet
529 524 m 1,0,-1
 731 323 l 1,1,-1
 633 226 l 1,2,-1
 432 427 l 1,3,-1
 231 226 l 1,4,-1
 134 323 l 1,5,-1
 334 524 l 1,6,-1
 134 725 l 1,7,-1
 231 823 l 1,8,-1
 432 622 l 1,9,-1
 633 823 l 1,10,-1
 731 725 l 1,11,-1
 529 524 l 1,0,-1
EndSplineSet
EndChar

StartChar: minus
Encoding: 8722 8722 234
Width: 984
Flags: W
LayerCount: 2
Fore
SplineSet
825 455 m 1,0,-1
 159 455 l 1,1,-1
 159 591 l 1,2,-1
 825 591 l 1,3,-1
 825 455 l 1,0,-1
EndSplineSet
EndChar

StartChar: thorn
Encoding: 254 254 235
Width: 1137
Flags: W
LayerCount: 2
Fore
SplineSet
158 -340 m 1,0,-1
 158 1473 l 1,1,-1
 343 1499 l 1,2,-1
 343 958 l 1,3,4
 379 982 379 982 425 1001 c 0,5,6
 464 1018 464 1018 517.5 1031.5 c 128,-1,7
 571 1045 571 1045 637 1045 c 0,8,9
 716 1045 716 1045 787 1014.5 c 128,-1,10
 858 984 858 984 911.5 919 c 128,-1,11
 965 854 965 854 996.5 752 c 128,-1,12
 1028 650 1028 650 1028 507 c 0,13,14
 1028 361 1028 361 992 260.5 c 128,-1,15
 956 160 956 160 897.5 98 c 128,-1,16
 839 36 839 36 765.5 9 c 128,-1,17
 692 -18 692 -18 616 -18 c 0,18,19
 548 -18 548 -18 497 0 c 128,-1,20
 446 18 446 18 411 41 c 0,21,22
 371 67 371 67 341 101 c 1,23,-1
 341 -349 l 1,24,-1
 158 -340 l 1,0,-1
343 217 m 1,25,26
 373 190 373 190 411 169 c 0,27,28
 443 151 443 151 488.5 136.5 c 128,-1,29
 534 122 534 122 589 122 c 0,30,31
 641 122 641 122 687 142.5 c 128,-1,32
 733 163 733 163 767.5 208.5 c 128,-1,33
 802 254 802 254 822.5 326.5 c 128,-1,34
 843 399 843 399 843 503 c 0,35,36
 843 694 843 694 783 798.5 c 128,-1,37
 723 903 723 903 601 903 c 0,38,39
 546 903 546 903 499.5 890.5 c 128,-1,40
 453 878 453 878 418 863 c 0,41,42
 378 845 378 845 343 824 c 1,43,-1
 343 217 l 1,25,26
EndSplineSet
EndChar

StartChar: Thorn
Encoding: 222 222 236
Width: 1226
Flags: W
LayerCount: 2
Fore
SplineSet
544 512 m 2,0,1
 665 512 665 512 744.5 527.5 c 128,-1,2
 824 543 824 543 870.5 576.5 c 128,-1,3
 917 610 917 610 935.5 662 c 128,-1,4
 954 714 954 714 954 787 c 0,5,6
 954 876 954 876 936 931.5 c 128,-1,7
 918 987 918 987 870 1018 c 128,-1,8
 822 1049 822 1049 737 1060 c 128,-1,9
 652 1071 652 1071 517 1071 c 2,10,-1
 370 1071 l 1,11,-1
 370 512 l 1,12,-1
 544 512 l 2,0,1
1147 785 m 0,13,14
 1147 669 1147 669 1111 589.5 c 128,-1,15
 1075 510 1075 510 999.5 460.5 c 128,-1,16
 924 411 924 411 807 389 c 128,-1,17
 690 367 690 367 528 367 c 2,18,-1
 433 367 l 2,19,20
 403 367 403 367 370 368 c 1,21,-1
 370 0 l 1,22,-1
 185 0 l 1,23,-1
 185 1409 l 1,24,-1
 370 1409 l 1,25,-1
 371 1216 l 1,26,-1
 494 1216 l 2,27,28
 688 1216 688 1216 814 1194.5 c 128,-1,29
 940 1173 940 1173 1014 1122.5 c 128,-1,30
 1088 1072 1088 1072 1117.5 989.5 c 128,-1,31
 1147 907 1147 907 1147 785 c 0,13,14
EndSplineSet
EndChar

StartChar: brokenbar
Encoding: 166 166 238
Width: 534
Flags: W
LayerCount: 2
Fore
SplineSet
177 -138 m 1,0,-1
 177 576 l 1,1,-1
 357 576 l 1,2,-1
 357 -138 l 1,3,-1
 177 -138 l 1,0,-1
177 815 m 1,4,-1
 177 1473 l 1,5,-1
 357 1473 l 1,6,-1
 357 815 l 1,7,-1
 177 815 l 1,4,-1
EndSplineSet
EndChar

StartChar: currency
Encoding: 164 164 239
Width: 1184
Flags: W
LayerCount: 2
Fore
SplineSet
591 1354 m 256,0,1
 672 1354 672 1354 734 1334.5 c 128,-1,2
 796 1315 796 1315 844 1281 c 1,3,-1
 970 1409 l 1,4,-1
 1040 1337 l 1,5,-1
 916 1213 l 1,6,7
 962 1157 962 1157 983.5 1088 c 128,-1,8
 1005 1019 1005 1019 1005 945 c 0,9,10
 1005 872 1005 872 984.5 804.5 c 128,-1,11
 964 737 964 737 919 682 c 1,12,-1
 1040 560 l 1,13,-1
 973 490 l 1,14,-1
 850 613 l 1,15,16
 802 577 802 577 738 556.5 c 128,-1,17
 674 536 674 536 591 536 c 256,18,19
 508 536 508 536 444 556.5 c 128,-1,20
 380 577 380 577 331 612 c 1,21,-1
 211 490 l 1,22,-1
 145 560 l 1,23,-1
 262 679 l 1,24,25
 217 735 217 735 196 803.5 c 128,-1,26
 175 872 175 872 175 945 c 0,27,28
 175 1020 175 1020 196.5 1089.5 c 128,-1,29
 218 1159 218 1159 265 1215 c 1,30,-1
 145 1337 l 1,31,-1
 215 1409 l 1,32,-1
 338 1283 l 1,33,34
 386 1316 386 1316 448 1335 c 128,-1,35
 510 1354 510 1354 591 1354 c 256,0,1
591 677 m 0,36,37
 661 677 661 677 710 699.5 c 128,-1,38
 759 722 759 722 790 759.5 c 128,-1,39
 821 797 821 797 835 845 c 128,-1,40
 849 893 849 893 849 945 c 0,41,42
 849 996 849 996 835 1044 c 128,-1,43
 821 1092 821 1092 790.5 1129 c 128,-1,44
 760 1166 760 1166 710.5 1188.5 c 128,-1,45
 661 1211 661 1211 591 1211 c 0,46,47
 520 1211 520 1211 470.5 1188.5 c 128,-1,48
 421 1166 421 1166 390.5 1129 c 128,-1,49
 360 1092 360 1092 346 1044 c 128,-1,50
 332 996 332 996 332 945 c 0,51,52
 332 893 332 893 346 845 c 128,-1,53
 360 797 360 797 391 759.5 c 128,-1,54
 422 722 422 722 471 699.5 c 128,-1,55
 520 677 520 677 591 677 c 0,36,37
EndSplineSet
EndChar

StartChar: eth
Encoding: 240 240 240
Width: 1175
Flags: W
LayerCount: 2
Fore
SplineSet
580 947 m 1,0,-1
 544 1057 l 1,1,-1
 739 1122 l 1,2,3
 721 1159 721 1159 695 1197.5 c 128,-1,4
 669 1236 669 1236 640.5 1270.5 c 128,-1,5
 612 1305 612 1305 584.5 1332 c 128,-1,6
 557 1359 557 1359 535 1372 c 1,7,-1
 699 1371 l 1,8,9
 758 1329 758 1329 804 1278.5 c 128,-1,10
 850 1228 850 1228 885 1170 c 1,11,-1
 1086 1240 l 1,12,-1
 1122 1129 l 1,13,-1
 944 1067 l 1,14,15
 1004 946 1004 946 1031.5 821 c 128,-1,16
 1059 696 1059 696 1059 567 c 256,17,18
 1059 438 1059 438 1028 330.5 c 128,-1,19
 997 223 997 223 936 145.5 c 128,-1,20
 875 68 875 68 784 25 c 128,-1,21
 693 -18 693 -18 572 -18 c 0,22,23
 443 -18 443 -18 350 19.5 c 128,-1,24
 257 57 257 57 197 119 c 128,-1,25
 137 181 137 181 108 262 c 128,-1,26
 79 343 79 343 79 429 c 0,27,28
 79 514 79 514 102.5 587.5 c 128,-1,29
 126 661 126 661 177 715 c 128,-1,30
 228 769 228 769 309 800 c 128,-1,31
 390 831 390 831 505 831 c 0,32,33
 577 831 577 831 639 814 c 128,-1,34
 701 797 701 797 749 775.5 c 128,-1,35
 797 754 797 754 828 733 c 128,-1,36
 859 712 859 712 868 703 c 1,37,38
 867 741 867 741 861.5 782.5 c 128,-1,39
 856 824 856 824 846 865 c 128,-1,40
 836 906 836 906 821.5 945 c 128,-1,41
 807 984 807 984 788 1017 c 1,42,-1
 580 947 l 1,0,-1
519 693 m 0,43,44
 451 693 451 693 401.5 674 c 128,-1,45
 352 655 352 655 320.5 620.5 c 128,-1,46
 289 586 289 586 274 536.5 c 128,-1,47
 259 487 259 487 259 426 c 0,48,49
 259 272 259 272 337 198.5 c 128,-1,50
 415 125 415 125 564 125 c 0,51,52
 649 125 649 125 706.5 156.5 c 128,-1,53
 764 188 764 188 799.5 242 c 128,-1,54
 835 296 835 296 850.5 368.5 c 128,-1,55
 866 441 866 441 866 523 c 2,56,-1
 866 582 l 1,57,58
 816 612 816 612 760 637 c 0,59,60
 712 658 712 658 649 675.5 c 128,-1,61
 586 693 586 693 519 693 c 0,43,44
EndSplineSet
EndChar

StartChar: foursuperior
Encoding: 8308 8308 241
Width: 935
Flags: W
LayerCount: 2
Fore
SplineSet
469 963 m 1,0,-1
 705 956 l 1,1,-1
 705 335 l 1,2,-1
 865 335 l 1,3,-1
 865 215 l 1,4,-1
 705 215 l 1,5,-1
 705 0 l 1,6,-1
 548 -6 l 1,7,-1
 548 215 l 1,8,-1
 88 215 l 1,9,-1
 45 320 l 1,10,-1
 469 963 l 1,0,-1
548 335 m 1,11,-1
 548 613 l 1,12,-1
 552 853 l 1,13,-1
 396 601 l 1,14,-1
 222 332 l 1,15,-1
 408 335 l 1,16,-1
 548 335 l 1,11,-1
EndSplineSet
EndChar

StartChar: twosuperior
Encoding: 178 178 243
Width: 843
Flags: W
LayerCount: 2
Fore
SplineSet
414 988 m 0,0,1
 495 988 495 988 555.5 969 c 128,-1,2
 616 950 616 950 656.5 915.5 c 128,-1,3
 697 881 697 881 717 832.5 c 128,-1,4
 737 784 737 784 737 726 c 0,5,6
 737 683 737 683 725.5 644.5 c 128,-1,7
 714 606 714 606 694 570.5 c 128,-1,8
 674 535 674 535 645.5 501 c 128,-1,9
 617 467 617 467 584 434 c 2,10,-1
 292 136 l 1,11,-1
 722 136 l 1,12,-1
 710 0 l 1,13,-1
 113 0 l 1,14,-1
 93 136 l 1,15,-1
 474 542 l 2,16,17
 490 560 490 560 506.5 581.5 c 128,-1,18
 523 603 523 603 536.5 626 c 128,-1,19
 550 649 550 649 558 673.5 c 128,-1,20
 566 698 566 698 566 722 c 0,21,22
 566 777 566 777 524.5 813 c 128,-1,23
 483 849 483 849 395 849 c 0,24,25
 349 849 349 849 299.5 839 c 128,-1,26
 250 829 250 829 208 818 c 0,27,28
 159 804 159 804 112 787 c 1,29,-1
 131 933 l 1,30,31
 172 948 172 948 219 960 c 0,32,33
 259 971 259 971 309.5 979.5 c 128,-1,34
 360 988 360 988 414 988 c 0,0,1
EndSplineSet
EndChar

StartChar: onesuperior
Encoding: 185 185 244
Width: 613
Flags: W
LayerCount: 2
Fore
SplineSet
289 599 m 1,0,-1
 289 798 l 1,1,-1
 203 751 l 1,2,-1
 98 697 l 1,3,-1
 43 829 l 1,4,-1
 326 966 l 1,5,-1
 448 939 l 1,6,-1
 448 0 l 1,7,-1
 289 0 l 1,8,-1
 289 599 l 1,0,-1
EndSplineSet
EndChar

StartChar: threesuperior
Encoding: 179 179 247
Width: 886
Flags: W
LayerCount: 2
Fore
SplineSet
120 155 m 1,0,1
 162 141 162 141 208 130 c 0,2,3
 247 120 247 120 296 112.5 c 128,-1,4
 345 105 345 105 395 105 c 0,5,6
 604 105 604 105 604 250 c 0,7,8
 604 290 604 290 587.5 319.5 c 128,-1,9
 571 349 571 349 532.5 368.5 c 128,-1,10
 494 388 494 388 431.5 397.5 c 128,-1,11
 369 407 369 407 277 407 c 1,12,-1
 277 536 l 1,13,14
 363 536 363 536 420 544.5 c 128,-1,15
 477 553 477 553 511 571 c 128,-1,16
 545 589 545 589 559 616.5 c 128,-1,17
 573 644 573 644 573 682 c 0,18,19
 573 760 573 760 522 790 c 128,-1,20
 471 820 471 820 371 820 c 0,21,22
 334 820 334 820 292.5 815 c 128,-1,23
 251 810 251 810 214 803.5 c 128,-1,24
 177 797 177 797 149.5 791 c 128,-1,25
 122 785 122 785 113 783 c 1,26,-1
 134 910 l 1,27,28
 172 920 172 920 213 929 c 0,29,30
 248 936 248 936 291 942 c 128,-1,31
 334 948 334 948 376 948 c 0,32,33
 564 948 564 948 648 884 c 128,-1,34
 732 820 732 820 732 699 c 0,35,36
 732 636 732 636 706 595 c 128,-1,37
 680 554 680 554 646 529.5 c 128,-1,38
 612 505 612 505 580.5 493 c 128,-1,39
 549 481 549 481 537 476 c 1,40,41
 547 475 547 475 568 471.5 c 128,-1,42
 589 468 589 468 615.5 459.5 c 128,-1,43
 642 451 642 451 670 436 c 128,-1,44
 698 421 698 421 721 395.5 c 128,-1,45
 744 370 744 370 759 333 c 128,-1,46
 774 296 774 296 774 244 c 0,47,48
 774 170 774 170 743.5 119 c 128,-1,49
 713 68 713 68 660.5 36 c 128,-1,50
 608 4 608 4 539 -10.5 c 128,-1,51
 470 -25 470 -25 392 -25 c 0,52,53
 338 -25 338 -25 287 -17 c 128,-1,54
 236 -9 236 -9 194.5 1 c 128,-1,55
 153 11 153 11 125.5 20 c 128,-1,56
 98 29 98 29 91 31 c 1,57,-1
 120 155 l 1,0,1
EndSplineSet
EndChar

StartChar: uni0311
Encoding: 785 785 248
Width: 861
Flags: W
LayerCount: 2
Fore
SplineSet
431 1456 m 0,0,1
 502 1456 502 1456 558 1437.5 c 128,-1,2
 614 1419 614 1419 656.5 1390.5 c 128,-1,3
 699 1362 699 1362 728 1327.5 c 128,-1,4
 757 1293 757 1293 775 1262 c 1,5,-1
 700 1190 l 1,6,7
 680 1217 680 1217 653.5 1241 c 128,-1,8
 627 1265 627 1265 593.5 1283.5 c 128,-1,9
 560 1302 560 1302 519.5 1313 c 128,-1,10
 479 1324 479 1324 431 1324 c 0,11,12
 338 1324 338 1324 272 1285.5 c 128,-1,13
 206 1247 206 1247 162 1190 c 1,14,-1
 85 1262 l 1,15,16
 106 1297 106 1297 137.5 1332 c 128,-1,17
 169 1367 169 1367 212 1394.5 c 128,-1,18
 255 1422 255 1422 310 1439 c 128,-1,19
 365 1456 365 1456 431 1456 c 0,0,1
EndSplineSet
EndChar

StartChar: uni030F
Encoding: 783 783 249
Width: 714
Flags: W
LayerCount: 2
Fore
SplineSet
373 1183 m 1,0,-1
 273 1183 l 1,1,-1
 70 1687 l 1,2,-1
 265 1687 l 1,3,-1
 373 1183 l 1,0,-1
612 1183 m 1,4,-1
 509 1183 l 1,5,-1
 372 1687 l 1,6,-1
 556 1687 l 1,7,-1
 612 1183 l 1,4,-1
EndSplineSet
EndChar

StartChar: uni0326
Encoding: 806 806 250
Width: 441
Flags: W
LayerCount: 2
Fore
SplineSet
119 -125 m 1,0,-1
 344 -109 l 1,1,2
 347 -133 347 -133 350 -161 c 0,3,4
 352 -185 352 -185 354 -216 c 128,-1,5
 356 -247 356 -247 356 -282 c 0,6,7
 356 -328 356 -328 346 -368 c 128,-1,8
 336 -408 336 -408 313 -440 c 128,-1,9
 290 -472 290 -472 251 -497 c 128,-1,10
 212 -522 212 -522 155 -538 c 1,11,-1
 127 -458 l 1,12,13
 183 -451 183 -451 211 -414.5 c 128,-1,14
 239 -378 239 -378 239 -325 c 1,15,-1
 119 -325 l 1,16,-1
 119 -125 l 1,0,-1
EndSplineSet
EndChar

